<svg xmlns="http://www.w3.org/2000/svg" xmlns:xlink="http://www.w3.org/1999/xlink" width="601.403" height="548.64" viewBox="0 0 601.403 548.64">
  <defs>
    <clipPath id="clip-path">
      <path id="Path_1098" data-name="Path 1098" d="M137.455,814.32H-414.268V315.36l49.68-49.68H187.135V764.64Z" fill="#8d00e8" stroke="rgba(0,0,0,0)" stroke-width="1"/>
    </clipPath>
  </defs>
  <g id="Group_680" data-name="Group 680" transform="translate(414.268 -265.68)" clip-path="url(#clip-path)">
    <path id="Path_1245" data-name="Path 1245" d="M0-20H621.156V111.6H0Z" transform="translate(-424.145 710.796)" fill="#8d00e8"/>
    <text id="Mingo" transform="translate(-127.748 773.596)" fill="#fff" font-size="60" font-family="Baloo2-Regular, 'Baloo \32 '"><tspan x="-79.83" y="0">Mingo</tspan></text>
    <g id="Group_737" data-name="Group 737" transform="translate(-330.132 382.913)">
      <rect id="Rectangle_500" data-name="Rectangle 500" width="8.226" height="25.627" transform="translate(286.156 52.294)" fill="#7a5f44"/>
      <g id="Group_713" data-name="Group 713" transform="translate(139.231 94.21)">
        <g id="Group_710" data-name="Group 710" transform="translate(9.648 10.148)">
          <ellipse id="Ellipse_145" data-name="Ellipse 145" cx="32.09" cy="32.09" rx="32.09" ry="32.09" transform="translate(21.233 20.936)" fill="#3f3f3f"/>
          <path id="Path_1131" data-name="Path 1131" d="M706.982,581.667a46.048,46.048,0,1,1-46.048,46.048A46.063,46.063,0,0,1,706.982,581.667Zm-17.62,54.181a19.2,19.2,0,0,1-1.549-5.152l-11.527-.142A30.539,30.539,0,0,0,679.5,641.7Zm-1.8-9.808.115,0a19.189,19.189,0,0,1,1.248-5.41l-9.91-5.885a30.558,30.558,0,0,0-2.815,11.422Zm-6.435-15.126,9.916,5.566.108.057a19.366,19.366,0,0,1,3.936-4.123l-5.64-10.048A30.747,30.747,0,0,0,681.126,610.915Zm18.126,22.152a9.127,9.127,0,0,0,3.05,2.792,3.275,3.275,0,0,0,.478.258,8.911,8.911,0,0,0,3.928.983,2.012,2.012,0,0,0,.273.012,1.971,1.971,0,0,0,.271-.012,8.8,8.8,0,0,0,3.93-.995,2.4,2.4,0,0,0,.478-.246,9.417,9.417,0,0,0,3.05-2.792c.09-.142.193-.285.271-.439a9,9,0,0,0,1.345-4.072,3.5,3.5,0,0,0,.039-.517,2.821,2.821,0,0,0,.012-.324,9.313,9.313,0,0,0-.9-4.019,4.955,4.955,0,0,0-.234-.453,9.326,9.326,0,0,0-3.089-3.374,4.879,4.879,0,0,0-.439-.258,9.087,9.087,0,0,0-4.472-1.278,2.367,2.367,0,0,0-.517,0,9.215,9.215,0,0,0-4.474,1.266,3.234,3.234,0,0,0-.439.271,9.13,9.13,0,0,0-3.089,3.374,3.791,3.791,0,0,0-.232.466,9.235,9.235,0,0,0-.9,4.006,2.848,2.848,0,0,0,.012.324,3.28,3.28,0,0,0,.039.517,8.933,8.933,0,0,0,1.331,4.059A5.124,5.124,0,0,0,699.252,633.067Zm-.191-23.053a19.148,19.148,0,0,1,5.6-1.547l.136-11.5a30.6,30.6,0,0,0-11.6,3.176Zm10.238-1.547a19.208,19.208,0,0,1,5.6,1.549l5.856-9.877a30.587,30.587,0,0,0-11.594-3.176Zm4.987,37.221a19.349,19.349,0,0,1-4.971,1.271l-.135,11.509a30.446,30.446,0,0,0,10.978-2.882Zm-9.64,1.273a19.339,19.339,0,0,1-4.973-1.269l-5.87,9.895a30.431,30.431,0,0,0,10.98,2.882Zm19.872-44.595-5.642,10.05a19.519,19.519,0,0,1,3.935,4.127l10.022-5.626A30.892,30.892,0,0,0,724.518,602.366Zm.506,18.268a19.3,19.3,0,0,1,1.248,5.407l11.491.131a30.566,30.566,0,0,0-2.817-11.424Zm1.349,10.059-.246,0a19.013,19.013,0,0,1-1.542,5.145l9.873,5.86a30.523,30.523,0,0,0,3.219-11.141Zm5.819,14.765-10.066-5.651a19.23,19.23,0,0,1-3.766,3.6l5.626,10.024A31.034,31.034,0,0,0,732.193,645.458Zm-42.219,7.968,5.559-9.9.08-.115a19.348,19.348,0,0,1-3.785-3.6l-10.061,5.644A30.928,30.928,0,0,0,689.974,653.426Z" transform="translate(-653.659 -574.685)" fill="#a5a5a5"/>
          <g id="Group_709" data-name="Group 709">
            <path id="Path_1132" data-name="Path 1132" d="M657.545,605.708l16.468-3.36-16.579,2.783A4.1,4.1,0,0,1,657.545,605.708Z" transform="translate(-568.445 -558.753)" fill="#a5a5a5"/>
            <path id="Path_1133" data-name="Path 1133" d="M657.129,610.626l16.8,1.653-16.735-2.25A3.87,3.87,0,0,1,657.129,610.626Z" transform="translate(-567.828 -552.836)" fill="#a5a5a5"/>
            <path id="Path_1134" data-name="Path 1134" d="M660.634,601.923l14.66-8.027-14.931,7.5A5.928,5.928,0,0,1,660.634,601.923Z" transform="translate(-574.914 -565.264)" fill="#a5a5a5"/>
            <path id="Path_1135" data-name="Path 1135" d="M659.466,616.468l15.646,6.561-15.42-7.115A4.491,4.491,0,0,1,659.466,616.468Z" transform="translate(-573.144 -548.303)" fill="#a5a5a5"/>
            <path id="Path_1136" data-name="Path 1136" d="M666.059,598.624l11.617-11.95L665.65,598.215A4.95,4.95,0,0,1,666.059,598.624Z" transform="translate(-586.656 -570.828)" fill="#a5a5a5"/>
            <path id="Path_1137" data-name="Path 1137" d="M664.657,621.061c-.135.151-.267.317-.4.453l13.081,10.932Z" transform="translate(-583.846 -544.338)" fill="#a5a5a5"/>
            <path id="Path_1138" data-name="Path 1138" d="M673.349,596.128l7.549-14.79-8.064,14.513A5.08,5.08,0,0,1,673.349,596.128Z" transform="translate(-602.596 -574.937)" fill="#a5a5a5"/>
            <path id="Path_1139" data-name="Path 1139" d="M671.582,625.036c-.168.11-.352.221-.524.317l9.307,14.334Z" transform="translate(-598.918 -541.276)" fill="#a5a5a5"/>
            <path id="Path_1140" data-name="Path 1140" d="M684.688,578.357l-3.413,16.2a3.959,3.959,0,0,1,.572.117Z" transform="translate(-621.33 -577.235)" fill="#a5a5a5"/>
            <path id="Path_1141" data-name="Path 1141" d="M679.858,627.48c-.189.051-.4.1-.588.142l4.676,16.471Z" transform="translate(-617.037 -539.393)" fill="#a5a5a5"/>
            <path id="Path_1142" data-name="Path 1142" d="M689.038,577.994l1.5,16.48.209-.025a3.342,3.342,0,0,1,.375-.026Z" transform="translate(-641.508 -577.514)" fill="#a5a5a5"/>
            <path id="Path_1143" data-name="Path 1143" d="M688,628.168l-.391,17.117.984-17.093A3.956,3.956,0,0,1,688,628.168Z" transform="translate(-636.442 -538.863)" fill="#a5a5a5"/>
            <path id="Path_1144" data-name="Path 1144" d="M695,580.28l6.3,15.322c.188-.082.359-.161.549-.228Z" transform="translate(-662.786 -575.753)" fill="#a5a5a5"/>
            <path id="Path_1145" data-name="Path 1145" d="M698.978,626.983l-5.406,16.229,5.989-16.022A4.665,4.665,0,0,1,698.978,626.983Z" transform="translate(-657.969 -539.776)" fill="#a5a5a5"/>
            <path id="Path_1146" data-name="Path 1146" d="M710.812,597.835a5.409,5.409,0,0,1,.441-.382l-11.013-12.435Z" transform="translate(-681.466 -572.103)" fill="#a5a5a5"/>
            <path id="Path_1147" data-name="Path 1147" d="M708.91,624.1l-9.935,13.878,10.415-13.508C709.225,624.351,709.075,624.231,708.91,624.1Z" transform="translate(-677.366 -541.998)" fill="#a5a5a5"/>
            <path id="Path_1148" data-name="Path 1148" d="M718.521,600.452l-14.25-8.669,13.927,9.174A3.471,3.471,0,0,1,718.521,600.452Z" transform="translate(-695.872 -566.892)" fill="#a5a5a5"/>
            <path id="Path_1149" data-name="Path 1149" d="M716.857,619.778,703.33,630.067l13.87-9.8A4.345,4.345,0,0,1,716.857,619.778Z" transform="translate(-692.887 -545.326)" fill="#a5a5a5"/>
            <path id="Path_1150" data-name="Path 1150" d="M722.991,604.069l-16.232-4.091,16.069,4.668C722.883,604.461,722.92,604.259,722.991,604.069Z" transform="translate(-704.748 -560.579)" fill="#a5a5a5"/>
            <path id="Path_1151" data-name="Path 1151" d="M722.112,614.381,706.237,620.2l16.075-5.253A3.781,3.781,0,0,1,722.112,614.381Z" transform="translate(-703.144 -549.484)" fill="#a5a5a5"/>
            <path id="Path_1152" data-name="Path 1152" d="M724.256,608.373l-16.807.873,16.827-.287A3.793,3.793,0,0,1,724.256,608.373Z" transform="translate(-707.254 -554.112)" fill="#a5a5a5"/>
            <path id="Path_1153" data-name="Path 1153" d="M658.439,611.064l16.777-3.426-1.356-7.379-16.848,2.813a30.892,30.892,0,0,1,.88,3.666,4.1,4.1,0,0,1,.112.577c.119.667.209,1.339.287,2.025C658.356,609.924,658.4,610.493,658.439,611.064Z" transform="translate(-568.904 -560.362)" fill="#a5a5a5"/>
            <path id="Path_1154" data-name="Path 1154" d="M656.844,615.968l17.11,1.678.871-7.462-17-2.28a33.067,33.067,0,0,1-.242,3.762,3.87,3.87,0,0,1-.069.6A35.886,35.886,0,0,1,656.844,615.968Z" transform="translate(-568.215 -554.473)" fill="#a5a5a5"/>
            <path id="Path_1155" data-name="Path 1155" d="M663.068,606.816l14.947-8.165-3.484-6.656-15.188,7.632a29.618,29.618,0,0,1,1.935,3.231,5.928,5.928,0,0,1,.271.529A35.07,35.07,0,0,1,663.068,606.816Z" transform="translate(-575.829 -566.729)" fill="#a5a5a5"/>
            <path id="Path_1156" data-name="Path 1156" d="M658.58,621.343l15.947,6.678,3.024-6.871-15.644-7.226a30.982,30.982,0,0,1-1.344,3.523,4.491,4.491,0,0,1-.227.554A36.81,36.81,0,0,1,658.58,621.343Z" transform="translate(-574.014 -549.836)" fill="#a5a5a5"/>
            <path id="Path_1157" data-name="Path 1157" d="M669.817,602.636l11.821-12.169-5.285-5.32-12.219,11.716a29.746,29.746,0,0,1,2.794,2.528,4.95,4.95,0,0,1,.409.409A30.784,30.784,0,0,1,669.817,602.636Z" transform="translate(-587.933 -572.004)" fill="#a5a5a5"/>
            <path id="Path_1158" data-name="Path 1158" d="M662.835,625.5l13.317,11.132,4.927-5.679-12.9-11.571a31.639,31.639,0,0,1-2.3,2.979c-.135.151-.267.317-.4.453A31.846,31.846,0,0,1,662.835,625.5Z" transform="translate(-585.075 -545.634)" fill="#a5a5a5"/>
            <path id="Path_1159" data-name="Path 1159" d="M678.08,598.906l7.685-15.062-6.626-3.535-8.19,14.74a33.665,33.665,0,0,1,3.415,1.6,5.08,5.08,0,0,1,.515.276A33.219,33.219,0,0,1,678.08,598.906Z" transform="translate(-604.126 -575.731)" fill="#a5a5a5"/>
            <path id="Path_1160" data-name="Path 1160" d="M672.543,626.3a31.755,31.755,0,0,1-3.309,1.777l9.473,14.6,6.371-3.981-8.944-14.89c-.986.777-2.009,1.5-3.068,2.174C672.9,626.092,672.715,626.2,672.543,626.3Z" transform="translate(-600.403 -542.222)" fill="#a5a5a5"/>
            <path id="Path_1161" data-name="Path 1161" d="M687.129,595.945l2.9-16.611-7.372-1.411-3.473,16.48a29.477,29.477,0,0,1,3.73.489,3.959,3.959,0,0,1,.572.117A31.747,31.747,0,0,1,687.129,595.945Z" transform="translate(-622.969 -577.569)" fill="#a5a5a5"/>
            <path id="Path_1162" data-name="Path 1162" d="M680.906,628.132a31.137,31.137,0,0,1-3.7.733l4.755,16.765,7.269-1.921-4.15-16.893a37.274,37.274,0,0,1-3.588,1.174C681.3,628.042,681.1,628.1,680.906,628.132Z" transform="translate(-618.674 -539.904)" fill="#a5a5a5"/>
            <path id="Path_1163" data-name="Path 1163" d="M688.441,595.311c1.209-.273,2.441-.471,3.709-.629l.209-.025a3.342,3.342,0,0,1,.375-.026,31.278,31.278,0,0,1,3.774-.2l-2.133-16.712-7.469.823Z" transform="translate(-643.118 -577.723)" fill="#a5a5a5"/>
            <path id="Path_1164" data-name="Path 1164" d="M685.867,627.963l-.391,17.4,7.5.292,1.014-17.383a34.163,34.163,0,0,1-3.772.076,3.956,3.956,0,0,1-.593-.025A33.2,33.2,0,0,1,685.867,627.963Z" transform="translate(-638.072 -539.021)" fill="#a5a5a5"/>
            <path id="Path_1165" data-name="Path 1165" d="M703.324,596.048a29.33,29.33,0,0,1,3.528-1.3l-6.954-15.34-6.892,2.981,6.407,15.6a35,35,0,0,1,3.362-1.708C702.962,596.195,703.134,596.115,703.324,596.048Z" transform="translate(-664.261 -576.427)" fill="#a5a5a5"/>
            <path id="Path_1166" data-name="Path 1166" d="M697.038,626.161l-5.513,16.5,7.087,2.5,6.092-16.319a29.229,29.229,0,0,1-3.622-1.016,4.665,4.665,0,0,1-.583-.207A30.364,30.364,0,0,1,697.038,626.161Z" transform="translate(-659.491 -540.409)" fill="#a5a5a5"/>
            <path id="Path_1167" data-name="Path 1167" d="M715.454,596.251l-11.187-12.64-5.711,4.89,10.78,13.049a31.539,31.539,0,0,1,2.7-2.631,5.409,5.409,0,0,1,.441-.382A33.32,33.32,0,0,1,715.454,596.251Z" transform="translate(-682.689 -573.187)" fill="#a5a5a5"/>
            <path id="Path_1168" data-name="Path 1168" d="M707.273,622.744,697.18,636.836l6.023,4.481,10.613-13.757a34.3,34.3,0,0,1-3.178-2.048c-.165-.117-.315-.237-.48-.37A31.319,31.319,0,0,1,707.273,622.744Z" transform="translate(-678.615 -543.041)" fill="#a5a5a5"/>
            <path id="Path_1169" data-name="Path 1169" d="M721.536,598.777l-14.478-8.809-4.019,6.364,14.188,9.326a33.4,33.4,0,0,1,1.806-3.3,3.471,3.471,0,0,1,.322-.5A29.357,29.357,0,0,1,721.536,598.777Z" transform="translate(-696.707 -568.29)" fill="#a5a5a5"/>
            <path id="Path_1170" data-name="Path 1170" d="M715.69,618l-13.738,10.448L706.4,634.5l14.136-9.979a36.917,36.917,0,0,1-2.44-2.887,4.345,4.345,0,0,1-.343-.49A28.058,28.058,0,0,1,715.69,618Z" transform="translate(-693.78 -546.693)" fill="#a5a5a5"/>
            <path id="Path_1171" data-name="Path 1171" d="M724.554,602.072l-16.5-4.151-1.969,7.253,16.381,4.755a35.851,35.851,0,0,1,.735-3.7c.055-.186.092-.388.163-.577A29.242,29.242,0,0,1,724.554,602.072Z" transform="translate(-705.124 -562.164)" fill="#a5a5a5"/>
            <path id="Path_1172" data-name="Path 1172" d="M721.549,612.337l-16.138,5.909,2.461,7.1L724.254,620a33.042,33.042,0,0,1-1.464-3.481,3.781,3.781,0,0,1-.2-.567A30.2,30.2,0,0,1,721.549,612.337Z" transform="translate(-703.622 -551.058)" fill="#a5a5a5"/>
            <path id="Path_1173" data-name="Path 1173" d="M724.3,606.242l-17.062.9.253,7.5,17.146-.29c-.073-.506-.145-1.013-.2-1.521-.083-.747-.138-1.5-.175-2.234a3.793,3.793,0,0,1-.02-.586A31.21,31.21,0,0,1,724.3,606.242Z" transform="translate(-707.236 -555.754)" fill="#a5a5a5"/>
          </g>
        </g>
        <path id="Path_1174" data-name="Path 1174" d="M618.517,694.527H786.071a60.518,60.518,0,1,0,0-121.036H618.517a60.518,60.518,0,0,0,0,121.036ZM786.071,580.572a53.437,53.437,0,1,1,0,106.874H618.517a53.437,53.437,0,0,1,0-106.874Z" transform="translate(-555.345 -570.836)" fill="#2d2d2d"/>
        <path id="Path_1175" data-name="Path 1175" d="M615.434,577.491h7.081v8.852h-7.081v-8.852Zm15.933,0h7.081v8.852h-7.081v-8.852Zm15.933,0h7.081v8.852H647.3v-8.852Zm15.933,0h7.081v8.852h-7.081v-8.852Zm15.933,0h7.081v8.852h-7.081v-8.852Zm15.933,0h7.081v8.852H695.1v-8.852Zm15.933,0h7.081v8.852h-7.081v-8.852Zm15.933,0h7.081v8.852h-7.081v-8.852Zm15.933,0h7.081v8.852H742.9v-8.852Zm15.933,0h7.081v8.852h-7.081v-8.852Zm15.933,0h7.081v8.852h-7.081v-8.852Zm15.908.551a52.906,52.906,0,0,1,5.3,1.043h0l.039.009,0,0,.036.009h.005l.035.011.007,0,.032.007.007,0,.034.009.011,0,.025.005.011,0,.032.007.016,0,.02.005.016.005.028.007.02.005.011,0,.073.02.007,0q.582.151,1.161.315l-2.422,8.515a44.372,44.372,0,0,0-5.766-1.232l1.268-8.76Zm15.193,4.6.007,0,.032.016.021.009.032.016.02.009.026.012.018.009.037.018.023.011.025.012.019.009.025.012.019.011.039.018.023.011.02.011.025.012.018.007.046.023.016.007.027.014.016.007.026.012.011.007.057.027.009.005.03.014.01.005.1.048.009,0,.032.016,0,0,.1.049.007,0,.14.071,0,0q1.734.874,3.394,1.866l0,0,.135.08.005,0,.1.058.005,0,.03.018.011.007.053.032.009.005.025.016.016.009.025.016.014.009.043.025.018.011.023.014.02.012.021.012.027.018.028.016.023.016.018.01.027.016.016.009.037.025.016.009.028.018.014.009.037.023,0,0,.042.025.011.007.035.021.009.007.042.027h0l.042.026.007.005.041.027h0l.092.058,0,0c.188.117.372.235.558.356l-4.826,7.421a44.894,44.894,0,0,0-5.152-2.884l3.8-7.993Zm13.164,8.869c.51.466,1.007.94,1.5,1.425h0l.085.083v0l.112.11.005.005.078.08.005.005.025.025.005.005.078.078.007.007.076.078.007.005.023.023.009.009.073.074.009.011.023.021.009.011.041.041.011.011.021.021.011.011.021.023.005.007.044.044.011.011.021.021.011.012.069.071.012.014.019.02.012.012.037.039.011.011.021.021.012.014.019.021.011.011.037.037.012.014.019.019.016.018.027.028.018.018.019.02.014.016.018.019.018.018.027.028.018.019.018.018.016.018.016.018.03.03.016.018.016.018.018.018.018.02.018.019.027.027.016.018.018.019.016.016.025.028.016.016.021.023.016.018.018.019.016.016.028.032.014.016.019.019.014.016.025.027.011.011.028.032.014.014.021.023.012.014.03.034.009.009.025.028.012.012.023.025.011.012.032.035.009.011.025.026.011.012.028.03.007.007.03.034.012.012.021.026.012.011.03.035.009.011.025.027.011.012.027.028.007.009.032.035.011.011.023.028.011.011.034.037,0,0,.03.034.011.012.027.03.005.005.034.039.007.007.027.03.009.011.03.034,0,0,.034.037.007.009.027.032.007.007.067.076.007.009.03.035,0,0,.035.039,0,0,.032.035.005.007.069.08,0,0,.034.039,0,0,.071.08,0,.005.106.122v0c.108.126.216.251.322.379l-6.78,5.692a45.015,45.015,0,0,0-4.091-4.27l5.975-6.531Zm10.006,12.327a53.5,53.5,0,0,1,3.142,6.216h0l.044.1-8.152,3.452a44.22,44.22,0,0,0-2.657-5.27l7.623-4.5Zm5.943,14.719a52.98,52.98,0,0,1,1.175,6.977l-8.807.887a44.4,44.4,0,0,0-.979-5.816l8.611-2.048Zm-7.5,15.255,8.834.565c-.057.892-.136,1.781-.237,2.661v0l-.009.081h0q-.138,1.171-.322,2.324h0l-.053.326h0l-.009.053v0l-.014.076v.007l-.005.025v0l-.007.044,0,.011-.005.023v0l-.007.048,0,.009,0,.021,0,.019-.005.028,0,.016,0,.018-.005.028,0,.018,0,.018,0,.018-.005.03,0,.016,0,.021,0,.014-.005.03,0,.014-.005.027,0,.009-.005.035,0,.009-.007.035h0l-.007.039v0l-.014.08,0,0c-.046.257-.1.512-.147.768l-8.68-1.731a44.643,44.643,0,0,0,.765-5.849Zm-2.8,12.927,8.273,3.149c-.083.22-.168.436-.253.653l0,0-.014.035v0l-.044.108,0,.007-.014.034,0,0-.025.064-.005.011-.011.028-.007.016-.011.028-.005.014-.019.048-.009.021-.009.021-.011.025-.009.021-.016.041-.007.018-.012.028-.007.02-.012.03-.005.014-.02.044-.005.014-.014.034-.005.014-.018.042,0,0-.019.046,0,.011-.016.039,0,.009-.041.1,0,.007-.019.046v0l-.042.1v0q-1.007,2.374-2.229,4.628l-7.781-4.221a44.486,44.486,0,0,0,2.461-5.361Zm-6.5,11.537,6.982,5.442c-.572.735-1.167,1.457-1.776,2.16l0,.005-.025.028h0l-.076.089,0,0-.1.119,0,0-.074.085,0,0-.025.028,0,0-.076.087-.005.005-.076.085,0,0-.025.027,0,0-.074.085-.005.005-.025.026,0,0-.049.055,0,0-.023.025-.007.009-.071.08-.007.007-.023.025-.007.009-.046.05,0,0-.021.023-.009.011-.023.025-.005.005-.043.048-.009.009-.021.023-.009.011-.069.076-.011.01-.021.023-.009.009-.044.05,0,0-.021.023-.011.011-.021.023-.007.007-.041.044-.011.012-.02.021-.012.012-.069.073-.011.012-.019.021-.012.012-.037.039-.011.012-.019.021-.012.012-.019.021-.012.012-.035.037-.012.014-.019.021-.012.012-.041.042-.007.007-.02.021-.012.014-.021.021-.012.014-.032.032-.016.016-.018.02-.014.016-.019.019-.019.021-.027.026-.016.016-.018.018-.016.018-.023.025-.023.023-.018.018-.016.016-.018.019-.018.02-.025.025-.019.021-.018.016-.018.019-.016.016-.028.03-.016.016-.019.02-.016.016-.019.021-.018.018-.027.027-.016.016-.019.019-.016.016-.028.03-.012.012-.025.025-.012.012-.025.025-.011.011-.032.034-.012.012-.023.023-.012.012-.026.026-.009.009-.034.034-.011.011-.025.025-.011.01-.035.036-.005.005-.028.028-.012.012-.028.027-.005.007-.035.035-.011.009-.026.027-.009.011-.071.069-.011.009-.027.028-.007.005-6.209-6.308a45.176,45.176,0,0,0,3.934-4.417Zm-9.606,9.149,5.091,7.241q-.608.428-1.23.839l0,0-.042.028,0,0-.089.058-.007,0-.041.027,0,0-.042.028-.011.007-.032.021-.012.007-.041.027,0,0-.037.023-.014.009-.03.02-.012.009-.039.025-.014.009-.027.018-.018.012-.025.016-.018.01-.035.023-.019.012-.021.014-.019.012-.025.016-.03.02-.023.014-.021.012-.018.012-.023.014-.018.012-.041.025-.016.011-.025.016-.014.009-.085.053-.012.009-.027.016-.011.007-.053.034-.007.005-.028.016-.012.009-.088.055-.009.005-.028.018-.011.007-.09.057-.009.005-.028.018-.009.005-.057.034-.007.005-.028.018-.009.005-.03.018v0l-.062.037-.009.005-.028.018-.011.005-.089.055-.012.007-.028.018-.009.005-.058.036,0,0-.028.018-.012.007-.028.016,0,0-.057.034-.011.007-.027.016-.014.009-.089.051-.011.007-.028.016-.012.009-.051.03-.009.005-.027.016-.014.009-.027.014-.014.009-.046.028-.014.007-.025.016-.016.009-.025.014,0,0-.057.034-.016.009-.025.014-.016.011-.039.023-.021.011-.023.014-.018.011-.023.014-.021.01-.035.021-.021.012-.023.012-.019.012-.021.012-.034.019-.025.014-.019.011-.023.012-.019.012-.03.016-.028.018-.021.012-.02.011-.023.012-.023.014-.03.018-.027.014-.019.011-.023.012-.019.012-.03.016-.028.016-.021.012-.021.012-.023.012-.019.011-.037.021-.02.011-.025.014-.019.011-.025.014-.028.016-.027.016-.021.011-.021.012-.021.012-.027.014-.032.018-.021.011-.021.012-.023.012-.02.011-.039.021-.019.011-.021.012-.021.012-.023.012-.034.018-.023.014-.023.011-.019.012-.023.011-.021.012-.039.021-.018.009-.025.014-.018.009-.087.048-.014.007-.027.014-.012.007-.058.032-.005,0-.028.016-.012.005-.1.053,0,0-.032.018-.009,0-.1.053,0,0-.216.113-4.093-7.85a44.888,44.888,0,0,0,5.046-3.072Zm-11.84,5.925,2.735,8.418q-.6.194-1.206.375l0,0-.048.014H798.2l-.023.007-.007,0-.041.012-.009,0-.019.005-.014,0-.032.011-.014,0-.018.005-.02.005-.019.005-.023.007-.016.005-.019.005-.019.007-.027.007-.012,0-.027.007-.007,0-.035.011-.007,0-.032.009-.005,0-.034.01-.009,0-.032.011h0l-.035.011-.009,0-.032.009,0,0-.037.01h0l-.037.011h0l-.039.012h0q-2.4.675-4.877,1.13l-1.588-8.708a44.277,44.277,0,0,0,5.713-1.441Zm-13.058,2.16.133,8.85-.048,0h-.094l-.018,0h-.165l-.023,0h-.23l-.027,0h-6.478v-8.852h6.265c.228,0,.457,0,.683-.005Zm-22.882.005h7.081v8.852H760.79v-8.852Zm-15.933,0h7.081v8.852h-7.081v-8.852Zm-15.933,0h7.081v8.852h-7.081v-8.852Zm-15.933,0h7.081v8.852h-7.081v-8.852Zm-15.933,0h7.081v8.852h-7.081v-8.852Zm-15.933,0h7.081v8.852h-7.081v-8.852Zm-15.933,0h7.081v8.852h-7.081v-8.852Zm-15.933,0h7.081v8.852h-7.081v-8.852Zm-15.933,0h7.081v8.852h-7.081v-8.852Zm-15.933,0h7.081v8.852h-7.081v-8.852ZM603.908,674a44.409,44.409,0,0,0,5.784,1.142l-1.133,8.779q-1.713-.22-3.388-.549h0l-.08-.016h0l-.076-.016-.007,0-.074-.014-.007,0-.035-.007-.005,0-.032-.005-.01,0-.034-.007-.009,0-.026-.005-.014,0-.032-.007-.012,0-.019,0-.02-.005-.02,0-.025-.005-.019,0-.018,0-.018,0-.03-.007-.012,0-.021-.005-.012,0-.036-.007-.012,0-.021,0-.009,0-.041-.009-.009,0-.074-.016-.005,0-.078-.016h0l-.08-.018h0q-1.269-.273-2.512-.607L603.908,674Zm-12.125-5.3a44.9,44.9,0,0,0,5.194,2.806l-3.681,8.05c-.14-.064-.28-.128-.42-.195l-.005,0-.1-.046-.012-.007-.028-.012-.016-.007-.046-.021-.018-.009-.023-.012-.023-.011-.021-.009-.041-.02-.012-.005-.032-.016-.016-.009-.034-.016-.011,0-.046-.023-.005,0-.041-.02-.009,0-.1-.046h0l-.048-.023,0,0-.1-.048h0a53.331,53.331,0,0,1-5.022-2.794l4.713-7.494Zm-10.064-8.641a45.041,45.041,0,0,0,4.157,4.208L580,670.891a53.631,53.631,0,0,1-4.973-5.035l6.692-5.793Zm-7.1-11.19a44.491,44.491,0,0,0,2.737,5.228l-7.551,4.617a53.216,53.216,0,0,1-3.284-6.269l8.1-3.576Zm-3.473-12.761a44.564,44.564,0,0,0,1.068,5.8l-8.577,2.181a52.927,52.927,0,0,1-1.1-5.536v0l-.012-.081h0l-.012-.081v0l-.011-.08v0l-.012-.08v0l-.005-.039v0l-.005-.035v-.007l-.005-.037,0-.005,0-.032,0-.009-.005-.037v0l0-.035,0-.007-.005-.037v-.007l-.005-.03v-.011l-.005-.034,0-.011,0-.028v-.01l-.005-.034,0-.012,0-.023,0-.016,0-.032,0-.014,0-.021,0-.016,0-.032,0-.014,0-.023,0-.014-.005-.032,0-.016,0-.019,0-.016,0-.03,0-.02,0-.016,0-.028,0-.02,0-.021,0-.014,0-.028,0-.02,0-.019,0-.016,0-.03,0-.018,0-.021,0-.014,0-.019,8.793-1.022Zm-8.276-14.846,8.707,1.6a44.745,44.745,0,0,0-.676,5.863l-8.841-.43a53.589,53.589,0,0,1,.706-6.446h0l.005-.039v0l.007-.039,0-.005.005-.037,0,0,.005-.037,0-.007.005-.034,0-.005.005-.036,0-.009.005-.03,0-.012.005-.028,0-.014,0-.025,0-.021,0-.019,0-.018,0-.019.005-.027,0-.018,0-.018,0-.016.005-.032,0-.014,0-.019v0Zm5.168-15.009,7.846,4.1a44.5,44.5,0,0,0-2.379,5.4l-8.321-3.022q.287-.783.593-1.556l0,0,.039-.1,0-.007.018-.046,0,0,.019-.05,0,0,.018-.044,0-.01.018-.041,0-.007.019-.048,0-.009.016-.037.005-.012.016-.041,0-.007.018-.044.007-.014.012-.034.007-.014.016-.042.005-.011.016-.037.007-.016.012-.03.005-.018.018-.042.007-.014.012-.03.009-.021.011-.025.009-.02.016-.041.009-.021.011-.023.009-.023.011-.025.011-.023.014-.035.011-.023.009-.021.011-.025.009-.021.018-.041.007-.019.012-.027.007-.018.011-.027.007-.014.021-.049.007-.016.012-.026.005-.016.041-.094.007-.014.012-.028.005-.012.026-.06,0-.005.012-.03.007-.012.012-.03,0-.009.028-.062,0-.007.014-.03.005-.011.012-.032,0,0,.026-.062.005-.012.012-.028.005-.012.043-.1.007-.012.012-.03.005-.011.042-.094.007-.016.012-.027.007-.014.025-.057,0-.007.014-.03.005-.014.012-.028.005-.011.025-.055.007-.012.012-.027.007-.016.041-.09.009-.018.011-.025.011-.019.01-.025.018-.035.01-.023.009-.023.011-.021.012-.025.012-.027.014-.032.011-.02.011-.025.009-.021.016-.03.011-.023.014-.03.009-.018.012-.03.009-.014.019-.044.005-.011.016-.034.007-.014.018-.036,0-.01.021-.044.005-.009.018-.037.005-.011.044-.092,0-.005.02-.044,0-.005.046-.1,0,0q.327-.667.669-1.326Zm9.356-12.824,6.3,6.214a45.087,45.087,0,0,0-3.868,4.474l-7.064-5.334a54.184,54.184,0,0,1,4.24-4.959h0l.074-.078,0,0,.035-.035,0,0,.074-.074.005-.005.035-.037h0l.037-.037.007-.007.028-.03.009-.009.035-.035v0l.034-.034.005,0Zm12.69-9.539,4.214,7.784a44.781,44.781,0,0,0-5,3.149l-5.2-7.161q.624-.454,1.262-.891l0,0,.089-.06,0,0,.042-.028.005,0,.085-.058.007-.005.037-.025.007,0,.042-.028.007-.005.034-.023.012-.009.032-.021.011-.007.039-.025.014-.011.027-.018.016-.011.028-.019.023-.014.027-.018.018-.012.023-.016.019-.012.035-.023.02-.012.021-.014.019-.014.021-.012.028-.02.026-.016.023-.016.016-.01.023-.016.016-.009.044-.03.014-.009.025-.016.014-.009.025-.016.011-.007.048-.032.014-.009.025-.016.012-.009.087-.055.012-.009.027-.016.009-.007.053-.034.009-.005.026-.018.012-.007.089-.057.009-.005.028-.02.01-.005.089-.057.011-.007.028-.018L587,585.7l.058-.035.005,0,.028-.018.011-.007.028-.018,0,0,.057-.035.011-.007.028-.018.011-.007.089-.055.012-.007.026-.016.009-.007.055-.034.009-.005.025-.014.016-.011.025-.016.011-.005.048-.03.014-.009.027-.016.016-.009.053-.034.005,0,.023-.014.018-.011.023-.014.018-.011.039-.023.019-.012.023-.012.018-.012.023-.012.021-.014.035-.021.02-.012.023-.012.019-.012.021-.012.035-.021.021-.012.021-.012.021-.012.023-.014.025-.016.03-.018.019-.011.023-.014.019-.012.035-.021.016-.009.028-.016.018-.011.027-.016.016-.01.041-.023.014-.007.028-.018.016-.009.03-.018.012-.007.041-.025.014-.007.03-.018.014-.009.041-.025.005,0,.039-.023.012-.007.034-.02.011-.005.042-.025.007-.005.037-.021.011-.005.039-.021.005,0,.044-.026.009,0,.035-.021.011-.005.089-.051.009-.005.039-.021.005,0,.046-.027,0,0,.041-.023.009-.005.042-.023,0,0,.046-.026,0,0,.042-.023.005,0,.092-.051.007,0,.042-.025,0,0,.048-.025h0l.046-.026.005,0,.094-.051,0,0,.042-.023.005,0,.094-.05.005,0,.042-.025h0l.094-.051.005,0,.046-.025Zm14.933-5.385,1.723,8.684a44.149,44.149,0,0,0-5.692,1.53l-2.864-8.376a53.041,53.041,0,0,1,6.833-1.838Zm10.415-1.018v8.852c-.455,0-.91.005-1.363.019l-.267-8.848c.108,0,.219-.005.326-.009h.073l.014,0h.046q.356-.008.712-.011h.05l.005,0h.405Z" transform="translate(-552.262 -567.754)" fill="#2d2d2d"/>
        <g id="Group_712" data-name="Group 712" transform="translate(177.064 9.737)">
          <path id="Path_1176" data-name="Path 1176" d="M589.589,632.5a19.6,19.6,0,0,1-2.413-4.939l-11.645,1.763a31.161,31.161,0,0,0,5.086,10.7Zm-3.436-9.59.115-.016a19.685,19.685,0,0,1,.363-5.661l-10.964-4.293a31.219,31.219,0,0,0-.949,11.98Zm-8.992-14.186,10.918,3.973.119.037a19.827,19.827,0,0,1,3.287-4.807l-7.35-9.2A31.471,31.471,0,0,0,577.162,608.725ZM599.1,628.06a9.336,9.336,0,0,0,3.537,2.31,3.679,3.679,0,0,0,.524.182,9.119,9.119,0,0,0,4.125.34,2.047,2.047,0,0,0,.274-.032,1.777,1.777,0,0,0,.273-.058,8.983,8.983,0,0,0,3.8-1.653,2.488,2.488,0,0,0,.441-.326,9.639,9.639,0,0,0,2.615-3.319c.067-.159.147-.319.2-.489a9.176,9.176,0,0,0,.682-4.327,3.427,3.427,0,0,0-.046-.528,2.509,2.509,0,0,0-.041-.328,9.487,9.487,0,0,0-1.577-3.9,4.961,4.961,0,0,0-.308-.418,9.528,9.528,0,0,0-3.673-2.891c-.158-.067-.317-.135-.485-.188a9.3,9.3,0,0,0-4.721-.551,1.582,1.582,0,0,0-.262.03,1.7,1.7,0,0,0-.258.055,9.443,9.443,0,0,0-4.3,2.018,3.177,3.177,0,0,0-.4.345,9.319,9.319,0,0,0-2.556,3.912,3.887,3.887,0,0,0-.158.508,9.438,9.438,0,0,0-.25,4.189,2.936,2.936,0,0,0,.067.324,3.334,3.334,0,0,0,.124.515,9.134,9.134,0,0,0,2.013,3.872A5.048,5.048,0,0,0,599.1,628.06ZM595.1,604.851a19.573,19.573,0,0,1,5.392-2.489l-1.765-11.62a31.29,31.29,0,0,0-11.166,5.12Zm10.068-3.256a19.674,19.674,0,0,1,5.9.636l4.272-10.927a31.284,31.284,0,0,0-12.215-1.285Zm11.183,36.7a19.776,19.776,0,0,1-4.8,2.1l1.769,11.626a31.1,31.1,0,0,0,10.59-4.722Zm-9.51,2.877a19.744,19.744,0,0,1-5.222-.457l-4.281,10.946a31.027,31.027,0,0,0,11.544,1.089ZM619.5,592.93l-4.026,11.065a19.894,19.894,0,0,1,4.649,3.511l9.174-7.331A31.5,31.5,0,0,0,619.5,592.93Zm3.532,18.334a19.636,19.636,0,0,1,2.151,5.245l11.608-1.77a31.214,31.214,0,0,0-4.729-11.051Zm3.024,9.919-.25.035a19.412,19.412,0,0,1-.7,5.442l10.923,4.275a31.2,31.2,0,0,0,1.4-11.764Zm8.308,13.922-11.082-4.033a19.675,19.675,0,0,1-3.2,4.249l7.329,9.174A31.712,31.712,0,0,0,634.361,635.1ZM593.114,650.12l3.966-10.9.062-.127a19.825,19.825,0,0,1-4.41-3l-9.209,7.354A31.6,31.6,0,0,0,593.114,650.12Z" transform="translate(-552.563 -567.943)" fill="#a5a5a5"/>
          <path id="Path_1177" data-name="Path 1177" d="M562.837,639.586A53.432,53.432,0,1,0,606.926,578.2,53.452,53.452,0,0,0,562.837,639.586Z" transform="translate(-562.122 -577.491)" fill="#a5a5a5"/>
          <path id="Path_1178" data-name="Path 1178" d="M566.681,635.426a46.464,46.464,0,1,0,38.339-53.381A46.481,46.481,0,0,0,566.681,635.426Z" transform="translate(-559.089 -574.458)" fill="#d6d6d6"/>
          <path id="Path_1179" data-name="Path 1179" d="M586.214,614.28a11.052,11.052,0,1,0,9.119-12.7A11.057,11.057,0,0,0,586.214,614.28Z" transform="translate(-543.677 -559.045)" fill="#3f3f3f"/>
          <g id="Group_711" data-name="Group 711" transform="translate(31.756 31.213)">
            <ellipse id="Ellipse_146" data-name="Ellipse 146" cx="2.648" cy="2.648" rx="2.648" ry="2.648" transform="translate(19.766)" fill="#3f3f3f"/>
            <ellipse id="Ellipse_147" data-name="Ellipse 147" cx="2.648" cy="2.648" rx="2.648" ry="2.648" transform="translate(19.766 39.532)" fill="#3f3f3f"/>
            <ellipse id="Ellipse_148" data-name="Ellipse 148" cx="2.648" cy="2.648" rx="2.648" ry="2.648" transform="translate(0 19.766)" fill="#3f3f3f"/>
            <ellipse id="Ellipse_149" data-name="Ellipse 149" cx="2.648" cy="2.648" rx="2.648" ry="2.648" transform="translate(39.532 19.766)" fill="#3f3f3f"/>
            <ellipse id="Ellipse_150" data-name="Ellipse 150" cx="2.648" cy="2.648" rx="2.648" ry="2.648" transform="translate(33.742 5.789)" fill="#3f3f3f"/>
            <ellipse id="Ellipse_151" data-name="Ellipse 151" cx="2.648" cy="2.648" rx="2.648" ry="2.648" transform="translate(5.789 33.742)" fill="#3f3f3f"/>
            <ellipse id="Ellipse_152" data-name="Ellipse 152" cx="2.648" cy="2.648" rx="2.648" ry="2.648" transform="translate(5.789 5.789)" fill="#3f3f3f"/>
            <ellipse id="Ellipse_153" data-name="Ellipse 153" cx="2.648" cy="2.648" rx="2.648" ry="2.648" transform="translate(33.742 33.742)" fill="#3f3f3f"/>
          </g>
        </g>
        <path id="Path_1180" data-name="Path 1180" d="M633.737,698.338V694.8l-14.315,0v3.541l.216,0Zm3.516,0h14.062V694.8H637.252Zm17.58,0h14.062V694.8H654.832Zm17.576,0h14.065V694.8H672.408Zm17.579,0h14.063V694.8H689.987Zm17.579,0h14.062V694.8H707.567Zm17.578,0h14.063V694.8H725.145Zm17.579,0h14.062V694.8H742.724Zm17.578,0h14.064V694.8H760.3Zm17.58,0h9.346c1.616,0,3.247-.062,4.845-.186l-.271-3.53c-1.51.117-3.048.175-4.574.175h-9.346Zm-162.08-.12.214-3.534a59.253,59.253,0,0,1-13.41-2.376l-1.018,3.392A62.922,62.922,0,0,0,615.8,698.218Zm179.865-.443a62.807,62.807,0,0,0,14-3.551l-1.26-3.309a59.238,59.238,0,0,1-13.207,3.351Zm-197.51-3.213,1.211-3.326a59.547,59.547,0,0,1-12.183-6.088l-1.933,2.965A62.937,62.937,0,0,0,598.156,694.562Zm214.852-1.726a63.2,63.2,0,0,0,12.408-7.377l-2.146-2.817a59.818,59.818,0,0,1-11.711,6.964Zm-230.725-6.78,2.1-2.852a60.056,60.056,0,0,1-9.987-9.271l-2.686,2.3A63.557,63.557,0,0,0,582.283,686.056Zm245.946-2.87a63.734,63.734,0,0,0,9.836-10.558l-2.848-2.1a60.321,60.321,0,0,1-9.287,9.974Zm-258.8-9.76,2.815-2.147a59.912,59.912,0,0,1-6.979-11.706l-3.229,1.457A63.478,63.478,0,0,0,569.431,673.426Zm270.7-3.762a63.281,63.281,0,0,0,6.467-12.9l-3.327-1.213a59.522,59.522,0,0,1-6.1,12.173Zm-279.484-11.98,3.307-1.266a59.2,59.2,0,0,1-3.372-13.2l-3.509.474A62.75,62.75,0,0,0,560.646,657.684Zm287.093-4.35a62.884,62.884,0,0,0,2.541-14.207l-3.534-.221a59.36,59.36,0,0,1-2.4,13.408ZM556.691,640.1l3.53-.276c-.12-1.53-.181-3.1-.181-4.658a60.3,60.3,0,0,1,.673-8.958l-3.5-.529a63.594,63.594,0,0,0-.712,9.486C556.5,636.817,556.564,638.476,556.691,640.1Zm293.709-4.58,0-.354a63.275,63.275,0,0,0-1.563-14l-3.452.784a59.74,59.74,0,0,1,1.475,13.214l0,.326Zm-289.083-12.67a59.15,59.15,0,0,1,4.327-12.915l-3.206-1.5a62.719,62.719,0,0,0-4.585,13.688Zm283.216-4.2,3.4-.981a62.917,62.917,0,0,0-5.573-13.32l-3.087,1.733A59.42,59.42,0,0,1,844.533,618.645ZM567.18,606.89a60.1,60.1,0,0,1,7.8-11.167l-2.652-2.344a63.64,63.64,0,0,0-8.266,11.826Zm270.336-3.742,2.985-1.9a63.785,63.785,0,0,0-9.1-11.2l-2.477,2.532A60.173,60.173,0,0,1,837.517,603.147Zm-260.2-9.916a60.132,60.132,0,0,1,10.624-8.537l-1.889-2.994a63.56,63.56,0,0,0-11.252,9.041Zm249.1-2.979,2.328-2.666a63.475,63.475,0,0,0-11.874-8.2l-1.666,3.123A60.01,60.01,0,0,1,826.417,590.252Zm-235.539-7.3a59.444,59.444,0,0,1,12.6-5.191l-.961-3.4a62.852,62.852,0,0,0-13.352,5.5Zm221.277-1.96,1.485-3.217a62.833,62.833,0,0,0-13.715-4.505l-.71,3.468A59.17,59.17,0,0,1,812.155,580.995Zm-205.368-4.061a59.7,59.7,0,0,1,12.886-1.4h.683v-3.541h-.683a63.292,63.292,0,0,0-13.651,1.485Zm189.067-.781.51-3.5a63.737,63.737,0,0,0-9.135-.66h-5.148v3.541h5.146A60.515,60.515,0,0,1,795.854,576.153Zm-171.982-.621h14.064v-3.541H623.872Zm17.579,0h14.062v-3.541H641.452Zm17.579,0h14.062v-3.541H659.031Zm17.576,0h14.065v-3.541H676.607Zm17.579,0H708.25v-3.541H694.187Zm17.579,0h14.062v-3.541H711.766Zm17.578,0h14.063v-3.541H729.344Zm17.579,0h14.063v-3.541H746.923Zm17.578,0h14.064v-3.541H764.5Z" transform="translate(-556.5 -571.991)" fill="#2d2d2d"/>
      </g>
      <g id="Group_714" data-name="Group 714" transform="translate(91.332 98.958)">
        <path id="Path_1181" data-name="Path 1181" d="M584.829,575.613l13.95,6.462,7.542,3.487,16.464,7.63.071.035.035.018,12.233,5.665.071.035a9.735,9.735,0,0,1,1.664.938H851.991a33.105,33.105,0,0,1,0,66.211H639.125a1.924,1.924,0,0,1-.319-.018,8.932,8.932,0,0,1-3.381-.832,1.223,1.223,0,0,1-.23-.089l-2.921-1.345-13.224-6.143-2.178-.991-9.294-4.32-1.682-.779-10.162-4.691v-.018h-.018l-10.888-5.045q-.558-.266-1.115-.584a13.682,13.682,0,0,1-1.735-1.186,17.8,17.8,0,0,1-2.16-2.018,23.545,23.545,0,0,1-6.161-14.959,1.34,1.34,0,0,1-.018-.266V584.235C573.64,576.6,578.65,572.763,584.829,575.613Zm257.85,39.319a5.46,5.46,0,0,0-3.859-1.611,5.562,5.562,0,0,0-3.877,1.611,5.5,5.5,0,0,0,0,7.772,5.662,5.662,0,0,0,3.877,1.558,5.382,5.382,0,0,0,5.47-5.453A5.456,5.456,0,0,0,842.679,614.933Zm16.075-2.2a5.466,5.466,0,0,0-5.453-5.453h-.035a5.466,5.466,0,0,0-5.453,5.506,5.44,5.44,0,0,0,5.453,5.453h.035a5.455,5.455,0,0,0,5.453-5.453Zm12.87,2.089a5.42,5.42,0,0,0-3.842-1.611,5.508,5.508,0,1,0,5.488,5.506A5.389,5.389,0,0,0,871.624,614.826Zm6.09,22.306a5.447,5.447,0,0,0,1.611-3.859v-.106a5.489,5.489,0,0,0-1.611-3.877,5.587,5.587,0,0,0-3.912-1.576,5.425,5.425,0,0,0-5.417,5.453v.106a5.416,5.416,0,0,0,1.576,3.859,5.513,5.513,0,0,0,7.754,0Zm-13.738,14.5a5.372,5.372,0,0,0,3.895,1.576,5.281,5.281,0,0,0,3.842-1.576,5.479,5.479,0,0,0-3.842-9.365,5.537,5.537,0,0,0-3.895,1.593A5.471,5.471,0,0,0,863.976,651.632Zm-10.622,7.612h.018a5.36,5.36,0,0,0,3.859-1.629,5.3,5.3,0,0,0,1.629-3.859,5.5,5.5,0,0,0-1.629-3.877,5.476,5.476,0,1,0-3.877,9.365Zm-.036-16.978a9.036,9.036,0,0,0,9.047-8.976v-.159a9.036,9.036,0,0,0-9.064-8.975,9.006,9.006,0,0,0-8.958,8.975v.159a8.946,8.946,0,0,0,8.975,8.976Zm-18.305,9.383a5.513,5.513,0,0,0,7.754,0,5.558,5.558,0,0,0,0-7.754,5.483,5.483,0,0,0-7.754,7.754Zm-6.019-14.481a5.235,5.235,0,0,0,3.842,1.611,5.474,5.474,0,0,0,5.488-5.453v-.035a5.355,5.355,0,0,0-1.611-3.859,5.458,5.458,0,0,0-9.33,3.895A5.375,5.375,0,0,0,828.994,637.168Zm-225.4-47.817a5.473,5.473,0,0,0-1.363-.407,5.222,5.222,0,0,0-1.045-.106,5.937,5.937,0,0,0-5.4,3.47,9.442,9.442,0,0,0-.319.921,7.745,7.745,0,0,0-.159.885c-.018.195-.035.39-.035.584a6.249,6.249,0,0,0,.142,1.275,5.868,5.868,0,0,0,3.328,4.125,5.934,5.934,0,0,0,7.807-2.956,5.756,5.756,0,0,0,.372-1.186,5.442,5.442,0,0,0,.124-1.2,6.293,6.293,0,0,0-.195-1.522A5.873,5.873,0,0,0,603.594,589.351ZM579.04,605.886a5.845,5.845,0,0,0,2.939,7.754l1.912.867.46.195,14,6.267h.018l7.559,3.381,10.64,4.762a5.871,5.871,0,0,0,7.772-2.974,5.957,5.957,0,0,0,.478-1.7,6.4,6.4,0,0,0,0-1.54,5.87,5.87,0,0,0-.832-2.231,5.963,5.963,0,0,0-2.6-2.284l-5.01-2.248-1.7-.761L604.887,611l-1.186-.531h-.018l-13.3-5.948-.832-.372-2.744-1.222a5.812,5.812,0,0,0-7.382,2.231A5.709,5.709,0,0,0,579.04,605.886Zm43.851-7.471A5.874,5.874,0,0,0,619,596.928a5.921,5.921,0,0,0-5.913,5.9,5.822,5.822,0,0,0,3.488,5.346c.212.089.407.177.62.248a7.128,7.128,0,0,0,1.027.23,5.84,5.84,0,0,0,4.975-1.735,5.568,5.568,0,0,0,1.151-1.682,6.429,6.429,0,0,0,.46-1.682,5.009,5.009,0,0,0,.053-.726,5.678,5.678,0,0,0-.8-2.939A5.483,5.483,0,0,0,622.891,598.415Zm-6.851,49.64a5.848,5.848,0,0,0,7.418-2.3,5.391,5.391,0,0,0,.336-.637,5.983,5.983,0,0,0,.549-2.443,5.777,5.777,0,0,0-1.7-4.09,5.628,5.628,0,0,0-1.77-1.257,5.918,5.918,0,0,0-6.232.885,5.923,5.923,0,0,0-1.558,2.071,1.077,1.077,0,0,0-.089.213,5.547,5.547,0,0,0-.425,2.177v.088a5.7,5.7,0,0,0,.708,2.691.984.984,0,0,0,.159.3,5.569,5.569,0,0,0,2.054,2A3.319,3.319,0,0,0,616.04,648.056ZM604.745,638.8a2.875,2.875,0,0,0,.336-.319,6.743,6.743,0,0,0,.921-1.452,5.7,5.7,0,0,0,.513-2.39,2.87,2.87,0,0,0-.018-.39,5.82,5.82,0,0,0-1.806-3.877,5.451,5.451,0,0,0-1.646-1.133,5.7,5.7,0,0,0-2.39-.513,5.916,5.916,0,0,0-4.957,2.691c-.018.018-.036.035-.018.053a4.2,4.2,0,0,0-.407.726,6.176,6.176,0,0,0-.531,2.425.49.49,0,0,0,.018.159,5.18,5.18,0,0,0,.407,2,.062.062,0,0,0,.018.035,5.93,5.93,0,0,0,3.045,3.169,5.342,5.342,0,0,0,1.346.407,5.745,5.745,0,0,0,4.107-.761A4.323,4.323,0,0,0,604.745,638.8Zm-24.537-7.17a5.777,5.777,0,0,0,1.5.974,6.348,6.348,0,0,0,1.328.407,5.991,5.991,0,0,0,1.682.071,5.841,5.841,0,0,0,4.745-3.434,5.9,5.9,0,0,0,.549-2.425,2.681,2.681,0,0,0-.035-.531,5.1,5.1,0,0,0-.389-1.629,6,6,0,0,0-5.488-3.718,5.427,5.427,0,0,0-2.054.39,5.786,5.786,0,0,0-3.293,3.08,5.7,5.7,0,0,0-.513,2.39A5.985,5.985,0,0,0,580.208,631.627Zm-1.452-44.294a5.894,5.894,0,0,0,3.47,5.382,6.05,6.05,0,0,0,2.39.513,5.938,5.938,0,0,0,5.4-3.47,5.845,5.845,0,0,0-1.257-6.586,5.622,5.622,0,0,0-1.7-1.186,5.85,5.85,0,0,0-7.772,2.921,7.422,7.422,0,0,0-.407,1.2A7.319,7.319,0,0,0,578.756,587.333Z" transform="translate(-573.64 -574.673)" fill="#53087a"/>
      </g>
      <rect id="Rectangle_501" data-name="Rectangle 501" width="15.953" height="23.024" transform="translate(297.46 54.896)" fill="#555557"/>
      <rect id="Rectangle_502" data-name="Rectangle 502" width="22.88" height="23.024" transform="translate(281.249 54.896)" fill="#6c6c6c"/>
      <rect id="Rectangle_503" data-name="Rectangle 503" width="15.953" height="23.024" transform="translate(283.316 54.896)" fill="#555557"/>
      <rect id="Rectangle_504" data-name="Rectangle 504" width="22.88" height="23.024" transform="translate(267.105 54.896)" fill="#6c6c6c"/>
      <path id="Rectangle_505" data-name="Rectangle 505" d="M0,0H93.809a3.624,3.624,0,0,1,3.624,3.624V67.166a5.707,5.707,0,0,1-5.707,5.707H0a0,0,0,0,1,0,0V0A0,0,0,0,1,0,0Z" transform="translate(240.197 117.51)" fill="#3e0559"/>
      <rect id="Rectangle_506" data-name="Rectangle 506" width="15.953" height="23.024" transform="translate(268.894 54.896)" fill="#555557"/>
      <rect id="Rectangle_507" data-name="Rectangle 507" width="33.377" height="23.024" transform="translate(242.186 54.896)" fill="#6c6c6c"/>
      <rect id="Rectangle_508" data-name="Rectangle 508" width="12.226" height="20.888" transform="translate(139.856 57.109)" fill="#7a5f44"/>
      <rect id="Rectangle_509" data-name="Rectangle 509" width="22.88" height="15.493" transform="translate(92.328 62.428)" fill="#6c6c6c"/>
      <rect id="Rectangle_510" data-name="Rectangle 510" width="12.325" height="21.213" transform="translate(107.702 57.109)" fill="#cc985e"/>
      <path id="Rectangle_511" data-name="Rectangle 511" d="M5.429,0h226.4a0,0,0,0,1,0,0V37.645a0,0,0,0,1,0,0H0a0,0,0,0,1,0,0V5.429A5.429,5.429,0,0,1,5.429,0Z" transform="translate(63.755 45.204)" fill="#3f3f3f"/>
      <g id="Group_715" data-name="Group 715" transform="translate(118.852 54.896)">
        <rect id="Rectangle_512" data-name="Rectangle 512" width="14.533" height="26.74" transform="translate(4.146 0)" fill="#e8e8e8"/>
        <rect id="Rectangle_513" data-name="Rectangle 513" width="16.087" height="26.74" transform="translate(0 0)" fill="#d6d6d6"/>
        <rect id="Rectangle_514" data-name="Rectangle 514" width="23.363" height="26.74" transform="translate(31.722 0)" fill="#e8e8e8"/>
        <rect id="Rectangle_515" data-name="Rectangle 515" width="23.363" height="26.74" transform="translate(23.938 0)" fill="#d6d6d6"/>
        <rect id="Rectangle_516" data-name="Rectangle 516" width="18.097" height="20.713" transform="translate(26.571 3.014)" fill="#6c6c6c"/>
        <rect id="Rectangle_517" data-name="Rectangle 517" width="23.363" height="26.74" transform="translate(59.977 0)" fill="#e8e8e8"/>
        <rect id="Rectangle_518" data-name="Rectangle 518" width="23.363" height="26.74" transform="translate(52.194 0)" fill="#d6d6d6"/>
        <rect id="Rectangle_519" data-name="Rectangle 519" width="18.097" height="20.713" transform="translate(54.826 3.014)" fill="#6c6c6c"/>
      </g>
      <rect id="Rectangle_520" data-name="Rectangle 520" width="12.325" height="12.356" transform="translate(107.702 86.604)" fill="#cc985e"/>
      <rect id="Rectangle_521" data-name="Rectangle 521" width="12.226" height="37.563" transform="translate(139.856 86.604)" fill="#7a5f44"/>
      <rect id="Rectangle_522" data-name="Rectangle 522" width="231.826" height="4.932" transform="translate(63.755 82.197)" fill="#3f3f3f"/>
      <path id="Path_1182" data-name="Path 1182" d="M672.071,559.532l3.732-.177c0-.142-.635-13.437,6.194-17.562,3.452-2.071,8.471-1.469,14.908,1.788,12.594,6.373,24.163,18.783,34.369,29.742,10.691,11.454,19.125,20.518,26.626,20.89.43.018.859.018,1.269.018a26.83,26.83,0,0,0,17.539-6.869,12.59,12.59,0,0,1-1.661-3.417c-3.265,3.045-9.124,7.117-16.942,6.727-5.952-.3-14.74-9.719-24.032-19.7-10.429-11.171-22.223-23.847-35.414-30.521-7.706-3.895-13.995-4.443-18.659-1.629C671.324,544.042,672.034,558.913,672.071,559.532Z" transform="translate(-548.128 -504.696)" fill="#e0270e"/>
      <path id="Path_1183" data-name="Path 1183" d="M672.07,559.532l3.521-.177c0-.142-.6-13.437,5.844-17.562,3.256-2.071,7.991-1.469,14.063,1.788,11.881,6.373,22.793,18.783,32.422,29.742,10.086,11.454,18.042,20.518,25.118,20.89.405.018.811.018,1.2.018a24.572,24.572,0,0,0,16.546-6.869,12.945,12.945,0,0,1-1.567-3.417c-3.079,3.045-8.606,7.117-15.981,6.727-5.615-.3-13.906-9.719-22.671-19.7-9.84-11.171-20.964-23.847-33.41-30.521-7.269-3.895-13.2-4.443-17.6-1.629C671.365,544.042,672.035,558.913,672.07,559.532Z" transform="translate(-542.199 -504.696)"/>
      <rect id="Rectangle_523" data-name="Rectangle 523" width="11.449" height="30.906" transform="translate(256.787 86.604)" fill="#cc985e"/>
      <rect id="Rectangle_524" data-name="Rectangle 524" width="8.226" height="26.215" transform="translate(260.011 52.107)" fill="#cc985e"/>
      <rect id="Rectangle_525" data-name="Rectangle 525" width="8.226" height="30.906" transform="translate(286.156 86.604)" fill="#7a5f44"/>
      <g id="Group_720" data-name="Group 720" transform="translate(225.411)">
        <rect id="Rectangle_526" data-name="Rectangle 526" width="49.046" height="60.137" rx="1.366" transform="translate(40.566 89.516)" fill="#2a2a2a"/>
        <rect id="Rectangle_527" data-name="Rectangle 527" width="49.046" height="60.137" rx="1.366" transform="translate(44.586 89.516)" fill="#3f3f3f"/>
        <path id="Path_1184" data-name="Path 1184" d="M593.379,557.625c0-21.449,31.88-38.85,71.216-38.85s71.217,17.4,71.217,38.85c0,5.717-2.3,11.171-6.386,16.054v.012c4.088,4.9,6.386,10.335,6.386,16.075,0,21.448-31.88,38.827-71.217,38.827s-71.216-17.38-71.216-38.827c0-5.739,2.3-11.171,6.386-16.075v-.012C595.677,568.8,593.379,563.342,593.379,557.625Z" transform="translate(-593.379 -518.775)" fill="#232323"/>
        <path id="Path_1185" data-name="Path 1185" d="M642.183,576.7a26.69,26.69,0,0,1-18.962-7.795,2.474,2.474,0,1,1,3.489-3.509,21.989,21.989,0,0,0,30.923,0,2.474,2.474,0,1,1,3.489,3.509A26.674,26.674,0,0,1,642.183,576.7Z" transform="translate(-570.955 -483.414)" fill="#fff"/>
        <path id="Path_1186" data-name="Path 1186" d="M593.379,557.625c0-21.449,31.88-38.85,71.216-38.85s71.217,17.4,71.217,38.85c0,5.72-2.3,11.174-6.391,16.059,4.091,4.906,6.391,10.339,6.391,16.082,0,21.448-31.88,38.827-71.217,38.827s-71.216-17.38-71.216-38.827c0-5.743,2.3-11.176,6.391-16.082C595.679,568.8,593.379,563.345,593.379,557.625Zm137.591,0c0-18.677-30.4-34.449-66.375-34.449-35.995,0-66.374,15.772-66.374,34.449,0,4.6,1.815,9.107,5.4,13.4l.388.464h2.59l.993-.9,26.748-24.309,3.413,3.125,23.335,21.184.991.9h5.037l.991-.9L691.44,549.4l3.413-3.125,3.413,3.125L721.6,570.582l.993.9h2.59l.388-.464C729.156,566.732,730.97,562.223,730.97,557.625ZM611.244,573.9l23.094,20.988,23.31-21.207L634.338,552.5l-23.094,20.986Zm60.3-.219,23.31,21.207,23.312-21.207L694.853,552.5Zm-73.322,16.082c0,18.675,30.379,34.428,66.374,34.428,35.971,0,66.375-15.752,66.375-34.428,0-4.6-1.815-9.108-5.4-13.419l-.388-.462h-2.59l-.993.924-23.335,21.184-3.413,3.1-3.413-3.1-23.335-21.184-.991-.924h-5.037l-.991.924-23.335,21.184-3.413,3.1-3.438-3.1-23.31-21.184-.993-.924h-2.59l-.388.462C600.036,580.657,598.221,585.168,598.221,589.766Z" transform="translate(-593.379 -518.775)" fill="#f4f4f4"/>
        <g id="Group_716" data-name="Group 716" transform="translate(82.681 36.116)">
          <ellipse id="Ellipse_154" data-name="Ellipse 154" cx="18.793" cy="18.793" rx="18.793" ry="18.793" transform="translate(0)" fill="#a5a5a5"/>
          <path id="Path_1187" data-name="Path 1187" d="M608.36,556.066a14.457,14.457,0,0,0,5.821,11.587,14.3,14.3,0,0,0,2.664,1.563,14.051,14.051,0,0,0,5.968,1.3,14.438,14.438,0,0,0,0-28.876,14.1,14.1,0,0,0-6,1.3,14.927,14.927,0,0,0-2.636,1.565A14.391,14.391,0,0,0,608.36,556.066Z" transform="translate(-604.006 -537.275)" fill="#3f3f3f"/>
          <path id="Path_1188" data-name="Path 1188" d="M611.026,554.018a9.727,9.727,0,0,0,3.92,7.8,9.567,9.567,0,0,0,1.793,1.052,9.436,9.436,0,0,0,4.015.878,9.718,9.718,0,0,0,0-19.437,9.486,9.486,0,0,0-4.035.878,9.968,9.968,0,0,0-1.774,1.053A9.686,9.686,0,0,0,611.026,554.018Z" transform="translate(-601.953 -535.221)" fill="#262626"/>
        </g>
        <g id="Group_717" data-name="Group 717" transform="translate(22.274 36.116)">
          <ellipse id="Ellipse_155" data-name="Ellipse 155" cx="18.793" cy="18.793" rx="18.793" ry="18.793" fill="#a5a5a5"/>
          <path id="Path_1189" data-name="Path 1189" d="M642.482,556.066a14.458,14.458,0,0,0,5.821,11.587,14.3,14.3,0,0,0,2.664,1.563,14.051,14.051,0,0,0,5.968,1.3,14.438,14.438,0,0,0,0-28.876,14.1,14.1,0,0,0-6,1.3,14.927,14.927,0,0,0-2.636,1.565A14.392,14.392,0,0,0,642.482,556.066Z" transform="translate(-638.128 -537.275)" fill="#3f3f3f"/>
          <path id="Path_1190" data-name="Path 1190" d="M645.148,554.018a9.727,9.727,0,0,0,3.92,7.8,9.571,9.571,0,0,0,1.793,1.052,9.436,9.436,0,0,0,4.015.878,9.718,9.718,0,0,0,0-19.437,9.486,9.486,0,0,0-4.035.878,9.972,9.972,0,0,0-1.774,1.053A9.686,9.686,0,0,0,645.148,554.018Z" transform="translate(-636.075 -535.221)" fill="#262626"/>
        </g>
        <g id="Group_718" data-name="Group 718" transform="translate(12.2 25.022)">
          <rect id="Rectangle_528" data-name="Rectangle 528" width="12.866" height="12.866" transform="translate(111.251 18.195) rotate(-135.001)" fill="#b7b7b7"/>
          <rect id="Rectangle_529" data-name="Rectangle 529" width="12.866" height="12.866" transform="translate(9.098 18.195) rotate(-135)" fill="#b7b7b7"/>
        </g>
        <g id="Group_719" data-name="Group 719" transform="translate(13.398 23.807)">
          <rect id="Rectangle_530" data-name="Rectangle 530" width="12.866" height="12.866" transform="translate(111.251 18.195) rotate(-135.001)" fill="#efefef"/>
          <rect id="Rectangle_531" data-name="Rectangle 531" width="12.866" height="12.866" transform="translate(9.098 18.195) rotate(-135)" fill="#efefef"/>
        </g>
        <ellipse id="Ellipse_156" data-name="Ellipse 156" cx="7.442" cy="7.537" rx="7.442" ry="7.537" transform="translate(72.092 129.907)" fill="#2a2a2a"/>
        <ellipse id="Ellipse_157" data-name="Ellipse 157" cx="7.442" cy="7.537" rx="7.442" ry="7.537" transform="translate(48.323 129.907)" fill="#2a2a2a"/>
      </g>
      <g id="Group_721" data-name="Group 721" transform="translate(2.973 98.952)">
        <path id="Rectangle_532" data-name="Rectangle 532" d="M4.482,0H89.356A1.345,1.345,0,0,1,90.7,1.345V20.611a4.482,4.482,0,0,1-4.482,4.482H4.482A4.482,4.482,0,0,1,0,20.611V4.482A4.482,4.482,0,0,1,4.482,0Z" transform="translate(118.674 46.002)" fill="#6c6c6c"/>
        <path id="Path_1191" data-name="Path 1191" d="M634.739,575.6l38,17.624H860.773V599.9h41.113a33.094,33.094,0,1,1,0,66.188H689.02a9.457,9.457,0,0,1-3.921-.928l-50.359-23.338a18.573,18.573,0,0,1-7.63-7.242,23,23,0,0,1-3.56-11.759V584.252C623.549,576.621,628.547,572.76,634.739,575.6Zm257.84,39.348a5.361,5.361,0,0,0-3.859-1.616,5.491,5.491,0,0,0-3.861,9.365,5.667,5.667,0,0,0,3.861,1.556,5.413,5.413,0,0,0,5.476-5.446A5.411,5.411,0,0,0,892.579,614.951Zm16.1-2.215a5.472,5.472,0,0,0-5.476-5.446h-.03a5.459,5.459,0,0,0-5.446,5.506,5.527,5.527,0,0,0,1.616,3.859,5.379,5.379,0,0,0,3.829,1.586h.03a5.472,5.472,0,0,0,5.476-5.446Zm12.867,2.094a5.418,5.418,0,0,0-3.859-1.616,5.569,5.569,0,0,0-3.889,1.646,5.508,5.508,0,0,0,.03,7.751,5.476,5.476,0,0,0,9.365-3.89A5.442,5.442,0,0,0,921.544,614.831Zm6.074,22.322a5.547,5.547,0,0,0,1.616-3.889v-.09a5.467,5.467,0,0,0-5.506-5.476,5.453,5.453,0,0,0-5.446,5.476v.09a5.479,5.479,0,0,0,9.335,3.889Zm-13.734,14.483a5.532,5.532,0,0,0,7.751,0,5.491,5.491,0,0,0-7.751-7.781A5.491,5.491,0,0,0,913.883,651.636Zm-10.622,7.6h.03a5.356,5.356,0,0,0,3.831-1.616,5.283,5.283,0,0,0,1.645-3.859,5.641,5.641,0,0,0-1.645-3.891,5.39,5.39,0,0,0-3.831-1.586,5.477,5.477,0,0,0-.03,10.953Zm-.03-16.967a9.042,9.042,0,0,0,9.038-8.976v-.151a9.007,9.007,0,0,0-18.013,0v.151a8.879,8.879,0,0,0,2.632,6.373A8.986,8.986,0,0,0,903.231,642.269Zm-18.312,9.4a5.531,5.531,0,0,0,7.751,0,5.564,5.564,0,0,0,0-7.781,5.474,5.474,0,0,0-3.861-1.616,5.507,5.507,0,0,0-3.89,9.4ZM878.9,637.183a5.228,5.228,0,0,0,3.859,1.586,5.453,5.453,0,0,0,5.476-5.446v-.03a5.379,5.379,0,0,0-1.615-3.861,5.47,5.47,0,1,0-7.72,7.75Zm-64.074-7.241h24.6v14.871a5.506,5.506,0,0,0,11.011,0V625.932a7.017,7.017,0,0,0-7.032-7H814.831a5.506,5.506,0,1,0,0,11.011ZM636.954,581.977a6.326,6.326,0,0,0-2.424-.538,5.9,5.9,0,1,0,5.385,8.317,5.64,5.64,0,0,0,.51-2.393A5.909,5.909,0,0,0,636.954,581.977Zm16.547,7.361a6.144,6.144,0,0,0-2.394-.508,6,6,0,0,0-5.417,3.47,6.177,6.177,0,0,0-.508,2.393,5.9,5.9,0,0,0,11.281,2.454,6.135,6.135,0,0,0,.51-2.394A5.982,5.982,0,0,0,653.5,589.338Zm17.774,8.108a5.613,5.613,0,0,0-2.365-.508,5.911,5.911,0,0,0-5.385,3.47,5.873,5.873,0,0,0,10.712,4.819,5.649,5.649,0,0,0,.508-2.393A5.88,5.88,0,0,0,671.276,597.446Zm0,20.945-34.561-15.469a5.887,5.887,0,0,0-4.817,10.742l34.589,15.441a5.868,5.868,0,0,0,4.789-10.714Zm-5.327,29.653a5.827,5.827,0,0,0,7.75-2.932,5.715,5.715,0,0,0,.538-2.424,5.864,5.864,0,0,0-3.472-5.355,5.737,5.737,0,0,0-2.394-.51,5.91,5.91,0,0,0-5.385,3.472,5.643,5.643,0,0,0-.508,2.393A5.83,5.83,0,0,0,665.949,648.044ZM648.144,640a5.909,5.909,0,0,0,7.781-2.964,6.139,6.139,0,0,0,.508-2.393,5.908,5.908,0,0,0-3.47-5.385,5.654,5.654,0,0,0-2.4-.51,5.9,5.9,0,0,0-5.385,3.442,6.331,6.331,0,0,0-.538,2.424A5.89,5.89,0,0,0,648.144,640Zm-16.516-7.391a5.88,5.88,0,1,0,4.787-10.742,6.308,6.308,0,0,0-2.394-.538,5.918,5.918,0,0,0-5.357,3.472,5.638,5.638,0,0,0-.508,2.394A5.921,5.921,0,0,0,631.629,632.605Z" transform="translate(-623.549 -574.669)" fill="#7c09b2"/>
      </g>
      <rect id="Rectangle_533" data-name="Rectangle 533" width="29.967" height="16.417" transform="translate(292.153 190.383)" fill="#2a2a2a"/>
      <rect id="Rectangle_534" data-name="Rectangle 534" width="29.967" height="16.417" transform="translate(284.451 190.383)" fill="#383838"/>
      <rect id="Rectangle_535" data-name="Rectangle 535" width="4.655" height="8.776" transform="translate(323.196 190.383)" fill="#383838"/>
      <rect id="Rectangle_536" data-name="Rectangle 536" width="4.655" height="8.776" transform="translate(329.234 190.383)" fill="#383838"/>
      <rect id="Rectangle_537" data-name="Rectangle 537" width="41.723" height="2.849" transform="translate(295.604 190.383)" fill="#2a2a2a"/>
      <rect id="Rectangle_538" data-name="Rectangle 538" width="45.02" height="2.849" transform="translate(278.175 190.383)" fill="#383838"/>
      <rect id="Rectangle_539" data-name="Rectangle 539" width="37.669" height="2.987" transform="translate(284.451 206.799)" fill="#f4f4f4"/>
      <rect id="Rectangle_540" data-name="Rectangle 540" width="100.028" height="52.327" rx="8" transform="translate(296.278 131.624)" fill="#d6d6d6"/>
      <rect id="Rectangle_541" data-name="Rectangle 541" width="54.191" height="52.327" rx="8" transform="translate(304.042 131.624)" fill="#a5a5a5"/>
      <g id="Group_726" data-name="Group 726" transform="translate(48.708 94.018)">
        <g id="Group_723" data-name="Group 723" transform="translate(9.648 10.149)">
          <ellipse id="Ellipse_158" data-name="Ellipse 158" cx="32.09" cy="32.09" rx="32.09" ry="32.09" transform="translate(21.232 20.936)" fill="#3f3f3f"/>
          <path id="Path_1192" data-name="Path 1192" d="M758.115,581.56a46.047,46.047,0,1,1-46.048,46.047A46.06,46.06,0,0,1,758.115,581.56ZM740.5,635.74a19.2,19.2,0,0,1-1.547-5.152l-11.528-.142a30.536,30.536,0,0,0,3.22,11.141Zm-1.8-9.806.113,0a19.317,19.317,0,0,1,1.248-5.41l-9.909-5.885a30.563,30.563,0,0,0-2.817,11.422Zm-6.437-15.128,9.916,5.568.11.055a19.415,19.415,0,0,1,3.936-4.123l-5.642-10.048A30.771,30.771,0,0,0,732.26,610.806Zm18.127,22.152a9.161,9.161,0,0,0,3.05,2.792,3.285,3.285,0,0,0,.478.258,8.894,8.894,0,0,0,3.93.983,1.722,1.722,0,0,0,.271.014,1.743,1.743,0,0,0,.273-.014,8.768,8.768,0,0,0,3.928-.995,2.263,2.263,0,0,0,.478-.246,9.4,9.4,0,0,0,3.052-2.792,4.941,4.941,0,0,0,.271-.439,8.994,8.994,0,0,0,1.344-4.072,3.267,3.267,0,0,0,.039-.517,2.83,2.83,0,0,0,.012-.324,9.29,9.29,0,0,0-.9-4.019,4.728,4.728,0,0,0-.232-.453,9.32,9.32,0,0,0-3.089-3.373,4.348,4.348,0,0,0-.439-.259,9.092,9.092,0,0,0-4.474-1.28,2.365,2.365,0,0,0-.517,0,9.225,9.225,0,0,0-4.472,1.266,2.979,2.979,0,0,0-.439.273,9.108,9.108,0,0,0-3.089,3.373,4.058,4.058,0,0,0-.234.466,9.259,9.259,0,0,0-.9,4.006,2.467,2.467,0,0,0,.014.324,3.281,3.281,0,0,0,.039.517,8.912,8.912,0,0,0,1.331,4.059C750.193,632.661,750.283,632.817,750.386,632.958Zm-.191-23.052a19.124,19.124,0,0,1,5.6-1.549l.135-11.5a30.589,30.589,0,0,0-11.594,3.176Zm10.24-1.549a19.2,19.2,0,0,1,5.6,1.549l5.858-9.877a30.59,30.59,0,0,0-11.594-3.176Zm4.987,37.223a19.426,19.426,0,0,1-4.971,1.269l-.136,11.509a30.427,30.427,0,0,0,10.98-2.882Zm-9.641,1.271a19.283,19.283,0,0,1-4.971-1.269l-5.87,9.894a30.417,30.417,0,0,0,10.98,2.882Zm19.872-44.595-5.64,10.05a19.512,19.512,0,0,1,3.934,4.127l10.024-5.626A30.9,30.9,0,0,0,775.652,602.257Zm.506,18.268a19.189,19.189,0,0,1,1.248,5.407l11.491.131a30.568,30.568,0,0,0-2.815-11.424Zm1.351,10.059-.248,0a19,19,0,0,1-1.54,5.145l9.871,5.86a30.492,30.492,0,0,0,3.219-11.139Zm5.817,14.765L773.263,639.7a19.246,19.246,0,0,1-3.767,3.6l5.628,10.024A31.03,31.03,0,0,0,783.327,645.349Zm-42.217,7.968,5.557-9.9.08-.115a19.375,19.375,0,0,1-3.783-3.6L732.9,645.351A30.932,30.932,0,0,0,741.109,653.317Z" transform="translate(-704.794 -574.576)" fill="#a5a5a5"/>
          <g id="Group_722" data-name="Group 722">
            <path id="Path_1193" data-name="Path 1193" d="M708.676,605.6l16.469-3.36-16.579,2.783A3.83,3.83,0,0,1,708.676,605.6Z" transform="translate(-619.578 -558.645)" fill="#a5a5a5"/>
            <path id="Path_1194" data-name="Path 1194" d="M708.262,610.518l16.8,1.654-16.735-2.25A4.271,4.271,0,0,1,708.262,610.518Z" transform="translate(-618.961 -552.728)" fill="#a5a5a5"/>
            <path id="Path_1195" data-name="Path 1195" d="M711.768,601.815l14.658-8.027-14.929,7.5C711.591,601.457,711.687,601.627,711.768,601.815Z" transform="translate(-626.048 -565.156)" fill="#a5a5a5"/>
            <path id="Path_1196" data-name="Path 1196" d="M710.6,616.36l15.646,6.561-15.421-7.115A4.484,4.484,0,0,1,710.6,616.36Z" transform="translate(-624.277 -548.195)" fill="#a5a5a5"/>
            <path id="Path_1197" data-name="Path 1197" d="M717.192,598.516l11.619-11.95-12.028,11.541A4.441,4.441,0,0,1,717.192,598.516Z" transform="translate(-637.79 -570.72)" fill="#a5a5a5"/>
            <path id="Path_1198" data-name="Path 1198" d="M715.792,620.953c-.135.151-.267.317-.4.453l13.083,10.932Z" transform="translate(-634.981 -544.23)" fill="#a5a5a5"/>
            <path id="Path_1199" data-name="Path 1199" d="M724.48,596.021l7.551-14.789-8.064,14.513A4.861,4.861,0,0,1,724.48,596.021Z" transform="translate(-653.729 -574.829)" fill="#a5a5a5"/>
            <path id="Path_1200" data-name="Path 1200" d="M722.716,624.929c-.17.11-.354.219-.524.315l9.3,14.334Z" transform="translate(-650.052 -541.167)" fill="#a5a5a5"/>
            <path id="Path_1201" data-name="Path 1201" d="M735.823,578.249l-3.415,16.2a3.934,3.934,0,0,1,.573.117Z" transform="translate(-672.464 -577.127)" fill="#a5a5a5"/>
            <path id="Path_1202" data-name="Path 1202" d="M730.993,627.372c-.191.051-.4.1-.59.142l4.677,16.471Z" transform="translate(-668.172 -539.285)" fill="#a5a5a5"/>
            <path id="Path_1203" data-name="Path 1203" d="M740.171,577.886l1.5,16.48.209-.023a3.316,3.316,0,0,1,.375-.028Z" transform="translate(-692.641 -577.406)" fill="#a5a5a5"/>
            <path id="Path_1204" data-name="Path 1204" d="M739.133,628.06l-.393,17.117.986-17.093A3.913,3.913,0,0,1,739.133,628.06Z" transform="translate(-687.577 -538.755)" fill="#a5a5a5"/>
            <path id="Path_1205" data-name="Path 1205" d="M746.132,580.172l6.3,15.322c.188-.082.359-.161.549-.229Z" transform="translate(-713.921 -575.645)" fill="#a5a5a5"/>
            <path id="Path_1206" data-name="Path 1206" d="M750.112,626.876,744.7,643.1l5.991-16.022A4.586,4.586,0,0,1,750.112,626.876Z" transform="translate(-709.104 -539.667)" fill="#a5a5a5"/>
            <path id="Path_1207" data-name="Path 1207" d="M761.945,597.727a5.432,5.432,0,0,1,.441-.382l-11.013-12.433Z" transform="translate(-732.599 -571.995)" fill="#a5a5a5"/>
            <path id="Path_1208" data-name="Path 1208" d="M760.044,623.991l-9.935,13.878,10.415-13.51C760.361,624.242,760.211,624.124,760.044,623.991Z" transform="translate(-728.502 -541.89)" fill="#a5a5a5"/>
            <path id="Path_1209" data-name="Path 1209" d="M769.655,600.344,755.4,591.676l13.929,9.172A3.469,3.469,0,0,1,769.655,600.344Z" transform="translate(-747.007 -566.783)" fill="#a5a5a5"/>
            <path id="Path_1210" data-name="Path 1210" d="M767.993,619.67l-13.529,10.289,13.871-9.8A4.471,4.471,0,0,1,767.993,619.67Z" transform="translate(-744.022 -545.218)" fill="#a5a5a5"/>
            <path id="Path_1211" data-name="Path 1211" d="M774.123,603.961l-16.23-4.091,16.069,4.67C774.017,604.352,774.055,604.151,774.123,603.961Z" transform="translate(-755.882 -560.471)" fill="#a5a5a5"/>
            <path id="Path_1212" data-name="Path 1212" d="M773.246,614.273l-15.875,5.819,16.075-5.251A4.355,4.355,0,0,1,773.246,614.273Z" transform="translate(-754.28 -549.376)" fill="#a5a5a5"/>
            <path id="Path_1213" data-name="Path 1213" d="M775.39,608.265l-16.808.873,16.829-.285A4.069,4.069,0,0,1,775.39,608.265Z" transform="translate(-758.389 -554.004)" fill="#a5a5a5"/>
            <path id="Path_1214" data-name="Path 1214" d="M709.57,610.956l16.779-3.426-1.358-7.379-16.847,2.813a31.2,31.2,0,0,1,.88,3.666,3.83,3.83,0,0,1,.11.577c.12.667.211,1.338.289,2.025C709.489,609.816,709.536,610.385,709.57,610.956Z" transform="translate(-620.037 -560.254)" fill="#a5a5a5"/>
            <path id="Path_1215" data-name="Path 1215" d="M707.978,615.86l17.109,1.678.871-7.462-17-2.28a33.935,33.935,0,0,1-.243,3.762,4.271,4.271,0,0,1-.069.6A35.767,35.767,0,0,1,707.978,615.86Z" transform="translate(-619.349 -554.365)" fill="#a5a5a5"/>
            <path id="Path_1216" data-name="Path 1216" d="M714.2,606.708l14.945-8.165-3.484-6.656-15.186,7.632a29.627,29.627,0,0,1,1.935,3.231c.094.172.189.342.271.529A35.5,35.5,0,0,1,714.2,606.708Z" transform="translate(-626.963 -566.621)" fill="#a5a5a5"/>
            <path id="Path_1217" data-name="Path 1217" d="M709.713,621.235l15.945,6.678,3.026-6.871-15.646-7.227a30.536,30.536,0,0,1-1.344,3.523,4.484,4.484,0,0,1-.225.554A37.014,37.014,0,0,1,709.713,621.235Z" transform="translate(-625.147 -549.728)" fill="#a5a5a5"/>
            <path id="Path_1218" data-name="Path 1218" d="M720.953,602.527l11.819-12.169-5.284-5.318-12.219,11.714a29.526,29.526,0,0,1,2.794,2.528,4.441,4.441,0,0,1,.409.409A30.771,30.771,0,0,1,720.953,602.527Z" transform="translate(-639.069 -571.895)" fill="#a5a5a5"/>
            <path id="Path_1219" data-name="Path 1219" d="M713.968,625.388l13.317,11.132,4.927-5.679-12.9-11.571a31.945,31.945,0,0,1-2.3,2.979c-.135.151-.267.317-.4.453A31.573,31.573,0,0,1,713.968,625.388Z" transform="translate(-636.208 -545.526)" fill="#a5a5a5"/>
            <path id="Path_1220" data-name="Path 1220" d="M729.215,598.8l7.685-15.062-6.628-3.535-8.19,14.74a33.71,33.71,0,0,1,3.417,1.6,4.861,4.861,0,0,1,.513.276A33.461,33.461,0,0,1,729.215,598.8Z" transform="translate(-655.26 -575.623)" fill="#a5a5a5"/>
            <path id="Path_1221" data-name="Path 1221" d="M723.676,626.19a31.9,31.9,0,0,1-3.309,1.777l9.471,14.6,6.373-3.981L727.268,623.7c-.988.775-2.011,1.494-3.068,2.174C724.03,625.985,723.846,626.094,723.676,626.19Z" transform="translate(-651.536 -542.113)" fill="#a5a5a5"/>
            <path id="Path_1222" data-name="Path 1222" d="M738.262,595.837l2.9-16.611-7.372-1.411-3.473,16.48a29.45,29.45,0,0,1,3.728.489,3.934,3.934,0,0,1,.573.117A31.88,31.88,0,0,1,738.262,595.837Z" transform="translate(-674.102 -577.461)" fill="#a5a5a5"/>
            <path id="Path_1223" data-name="Path 1223" d="M732.039,628.024a31.031,31.031,0,0,1-3.7.733l4.755,16.765,7.271-1.919-4.15-16.894a37.32,37.32,0,0,1-3.588,1.174C732.438,627.934,732.232,627.987,732.039,628.024Z" transform="translate(-669.808 -539.796)" fill="#a5a5a5"/>
            <path id="Path_1224" data-name="Path 1224" d="M739.573,595.2c1.211-.273,2.443-.471,3.711-.628l.209-.023a3.316,3.316,0,0,1,.375-.028,31.6,31.6,0,0,1,3.773-.2l-2.131-16.712-7.469.823Z" transform="translate(-694.252 -577.615)" fill="#a5a5a5"/>
            <path id="Path_1225" data-name="Path 1225" d="M737,627.855l-.391,17.4,7.5.292,1.013-17.383a33.662,33.662,0,0,1-3.771.076,3.913,3.913,0,0,1-.593-.025A32.688,32.688,0,0,1,737,627.855Z" transform="translate(-689.205 -538.913)" fill="#a5a5a5"/>
            <path id="Path_1226" data-name="Path 1226" d="M754.458,595.94a29.351,29.351,0,0,1,3.528-1.3l-6.954-15.34-6.894,2.981,6.409,15.6a35.016,35.016,0,0,1,3.362-1.708C754.1,596.087,754.269,596.007,754.458,595.94Z" transform="translate(-715.396 -576.319)" fill="#a5a5a5"/>
            <path id="Path_1227" data-name="Path 1227" d="M748.171,626.053l-5.513,16.5,7.085,2.5,6.094-16.319a29.161,29.161,0,0,1-3.622-1.016,4.586,4.586,0,0,1-.583-.205A30.556,30.556,0,0,1,748.171,626.053Z" transform="translate(-710.624 -540.301)" fill="#a5a5a5"/>
            <path id="Path_1228" data-name="Path 1228" d="M766.589,596.143,755.4,583.5l-5.713,4.89,10.78,13.051a31.556,31.556,0,0,1,2.7-2.632,5.432,5.432,0,0,1,.441-.382A32.819,32.819,0,0,1,766.589,596.143Z" transform="translate(-733.823 -573.079)" fill="#a5a5a5"/>
            <path id="Path_1229" data-name="Path 1229" d="M758.4,622.636l-10.091,14.092,6.021,4.481,10.615-13.757a34.328,34.328,0,0,1-3.18-2.048c-.163-.117-.313-.235-.48-.368A32.1,32.1,0,0,1,758.4,622.636Z" transform="translate(-729.747 -542.933)" fill="#a5a5a5"/>
            <path id="Path_1230" data-name="Path 1230" d="M772.67,598.67l-14.476-8.809-4.02,6.363,14.188,9.326a33.417,33.417,0,0,1,1.807-3.3,3.469,3.469,0,0,1,.322-.5A29.1,29.1,0,0,1,772.67,598.67Z" transform="translate(-747.842 -568.181)" fill="#a5a5a5"/>
            <path id="Path_1231" data-name="Path 1231" d="M766.823,617.9l-13.738,10.449,4.444,6.049,14.138-9.979a37.247,37.247,0,0,1-2.441-2.886,4.471,4.471,0,0,1-.342-.492A27.87,27.87,0,0,1,766.823,617.9Z" transform="translate(-744.913 -546.585)" fill="#a5a5a5"/>
            <path id="Path_1232" data-name="Path 1232" d="M775.686,601.966l-16.494-4.153-1.969,7.253,16.381,4.755a35.683,35.683,0,0,1,.735-3.7c.055-.188.092-.389.161-.579A29.754,29.754,0,0,1,775.686,601.966Z" transform="translate(-756.258 -562.056)" fill="#a5a5a5"/>
            <path id="Path_1233" data-name="Path 1233" d="M772.681,612.229l-16.137,5.909,2.461,7.1,16.381-5.346a33.516,33.516,0,0,1-1.464-3.479,4.355,4.355,0,0,1-.2-.568A30.552,30.552,0,0,1,772.681,612.229Z" transform="translate(-754.756 -550.95)" fill="#a5a5a5"/>
            <path id="Path_1234" data-name="Path 1234" d="M775.432,606.134l-17.062.9.251,7.5,17.146-.29c-.071-.506-.143-1.013-.2-1.521-.083-.747-.138-1.5-.175-2.232a4.069,4.069,0,0,1-.021-.588A30.823,30.823,0,0,1,775.432,606.134Z" transform="translate(-758.37 -555.646)" fill="#a5a5a5"/>
          </g>
        </g>
        <path id="Path_1235" data-name="Path 1235" d="M669.652,694.419H837.206a60.518,60.518,0,1,0,0-121.036H669.652a60.518,60.518,0,1,0,0,121.036ZM837.206,580.464a53.437,53.437,0,1,1,0,106.874H669.652a53.437,53.437,0,1,1,0-106.874Z" transform="translate(-606.479 -570.726)" fill="#2d2d2d"/>
        <path id="Path_1236" data-name="Path 1236" d="M666.567,577.383h7.081v8.852h-7.081v-8.852Zm15.933,0h7.081v8.852H682.5v-8.852Zm15.933,0h7.081v8.852h-7.081v-8.852Zm15.933,0h7.081v8.852h-7.081v-8.852Zm15.933,0h7.081v8.852H730.3v-8.852Zm15.933,0h7.081v8.852h-7.081v-8.852Zm15.933,0h7.081v8.852h-7.081v-8.852Zm15.933,0h7.081v8.852H778.1v-8.852Zm15.933,0h7.081v8.852h-7.081v-8.852Zm15.933,0h7.081v8.852h-7.081v-8.852Zm15.933,0h7.081v8.852H825.9v-8.852Zm15.908.551a53.33,53.33,0,0,1,5.293,1.043h0l.039.011h0l.036.009,0,0,.037.009.005,0,.032.007.007,0,.034.009.012,0,.025.005.011,0,.032.007.014.005.019,0,.016.005.028.007.021.005.011,0,.071.019.007,0q.584.151,1.163.317l-2.424,8.514a44.321,44.321,0,0,0-5.764-1.232l1.268-8.76Zm15.191,4.6.009,0,.032.016.02.009.034.016.02.009.025.012.019.009.037.018.021.011.025.012.021.011.025.01.019.011.039.018.023.012.02.009.025.012.018.009.046.021.014.007.026.014.016.007.026.012.012.007.055.026.01.005.03.014.011.005.1.048.007,0,.032.016.005,0,.1.05.007,0,.14.071,0,0q1.737.874,3.4,1.866l0,0,.135.081.005,0,.1.058.007,0,.03.018.009.007.055.032.009.005.025.016.014.009.025.016.016.009.042.025.018.012.023.012.018.012.021.012.028.018.026.016.025.016.018.011.025.016.016.009.039.025.016.009.026.018.016.009.035.023.005,0,.042.025.011.007.034.021.011.007.042.026h0l.041.027.009.005.041.027h0l.092.058,0,0c.186.117.372.237.556.356l-4.824,7.421a44.894,44.894,0,0,0-5.152-2.884l3.8-7.993Zm13.166,8.869c.51.466,1.007.94,1.5,1.425h0l.083.085h0l.112.11.005.007.078.078.005.005.025.025.005.005.078.078.005.007.078.078.005.005.023.025.009.009.074.074.009.009.021.023.011.009.039.041.011.011.021.023.011.011.023.023.005.005.042.044.011.011.021.021.012.012.067.071.014.014.02.019.012.012.035.039.012.012.019.019.014.014.019.021.011.011.035.037.014.014.018.02.016.018.028.028.018.02.018.019.016.016.018.018.018.02.026.028.018.018.016.018.018.018.016.018.028.03.018.018.016.018.018.018.018.019.018.02.027.028.016.016.018.02.014.016.027.028.016.016.021.025.014.016.02.02.014.016.03.032.014.016.019.021.014.014.023.027.011.011.03.032.012.014.021.025.012.012.032.034.009.011.025.026.012.012.023.027.011.01.032.036.009.011.025.026.011.012.028.032.007.007.03.032.011.012.023.026.011.012.032.034.009.011.025.027.011.012.025.028.009.009.032.036.009.011.025.028.011.011.032.037,0,0,.032.035.009.011.028.03.005.007.034.037.005.007.028.03.009.011.03.034,0,0,.034.039.007.007.028.032.007.007.067.078.007.007.03.035,0,0,.034.039,0,0,.032.037,0,.005.071.08,0,0,.034.037,0,0,.071.081,0,0,.1.122,0,0c.108.126.214.253.322.379l-6.78,5.692a45.475,45.475,0,0,0-4.091-4.27l5.975-6.531Zm10,12.327a53.383,53.383,0,0,1,3.144,6.216h0l.042.1L875.2,613.5a44.743,44.743,0,0,0-2.657-5.269l7.621-4.5Zm5.945,14.719a52.978,52.978,0,0,1,1.176,6.977l-8.807.889a44.381,44.381,0,0,0-.979-5.817l8.611-2.048Zm-7.5,15.255,8.834.565q-.088,1.339-.237,2.663v0l-.011.081h0q-.135,1.171-.32,2.324v0c-.018.108-.035.216-.055.324v0l-.009.051v0l-.012.078,0,.005,0,.025v0l-.009.044,0,.01,0,.023v0l-.009.048,0,.009,0,.021,0,.02,0,.028,0,.016,0,.018-.005.03,0,.016,0,.018,0,.018-.005.03,0,.016-.005.021,0,.014-.005.032,0,.012,0,.026,0,.009-.007.035,0,.009-.005.035h0l-.007.039,0,.005-.014.078v0c-.048.257-.1.513-.147.768l-8.682-1.73a44.7,44.7,0,0,0,.766-5.851Zm-2.8,12.927,8.273,3.149c-.085.22-.168.436-.255.653v0l-.014.036,0,0-.042.108,0,.007-.012.034,0,0-.027.064,0,.011-.011.028-.007.016-.011.028-.007.016-.018.046-.009.021-.011.023-.009.023-.009.021-.016.041-.007.018-.012.028-.007.019-.014.032-.005.012-.018.044-.005.014-.014.034-.005.014-.018.042,0,0-.02.046,0,.011-.018.039,0,.009-.039.1,0,.007-.02.046,0,0-.042.1h0q-1,2.374-2.227,4.628l-7.782-4.22a44.555,44.555,0,0,0,2.463-5.361Zm-6.5,11.537,6.982,5.442c-.574.735-1.167,1.457-1.777,2.16l0,.005-.025.028h0l-.076.089,0,.005-.1.117,0,0-.076.085,0,.005-.025.026v0l-.076.087-.005.005-.076.085,0,0-.025.028,0,0-.074.083-.007.005-.023.026,0,0-.05.055,0,0-.023.025-.007.009-.073.08-.007.007-.021.025-.009.009-.044.049,0,0-.021.023-.011.012-.021.023-.005.005-.042.048-.009.009-.021.023-.011.011-.069.076-.009.011-.021.023-.009.009-.044.05-.005,0-.021.023-.011.012-.021.021-.005.007-.041.044-.012.012-.02.021-.012.014-.067.071-.011.012-.021.021-.011.012-.037.041-.011.011-.019.021-.012.014-.019.02-.012.014-.035.037-.012.012-.02.021-.014.012-.039.042-.007.007-.021.021-.012.014-.019.021-.014.014-.03.032-.016.016-.02.02-.014.016-.018.02-.021.021-.025.026-.016.016-.018.02-.016.016-.023.025-.023.023-.018.018-.016.018-.018.018-.018.019-.027.027-.019.019-.016.018-.018.018-.016.016-.03.03-.014.016-.021.02-.014.016-.021.021-.016.018-.028.027-.014.016-.019.02-.016.016-.028.03-.012.012-.025.025-.014.014-.023.023-.011.01-.034.034-.011.012-.023.023-.012.012-.028.028-.009.009-.032.032-.012.011-.023.025-.012.011-.034.035-.007.005-.028.03-.01.011-.028.028-.007.005-.034.035-.011.009-.026.027-.011.011-.071.069-.009.011-.028.026-.005.005-6.209-6.308a45.4,45.4,0,0,0,3.934-4.417Zm-9.608,9.149,5.093,7.241q-.608.428-1.23.839l0,0-.044.028,0,0-.087.058-.007.005-.041.027,0,0-.042.027-.011.007-.032.021-.011.007-.041.027-.005,0-.037.023-.014.011-.028.018-.014.009-.039.026-.012.007-.028.018-.016.012-.025.016-.018.011-.035.023-.021.012-.021.014-.018.012-.025.016-.03.019-.023.014-.021.014-.02.011-.021.014-.019.012-.039.025-.016.011-.025.016-.016.009-.083.053-.014.009-.025.016-.011.007-.053.034-.009.005-.027.016-.012.009-.089.055-.011.007-.026.016-.011.007-.092.057-.007.005-.03.018-.007.005-.057.035-.007,0-.028.018-.011.005-.028.018,0,0-.06.037-.011.005-.027.018-.01.005-.089.055-.014.007-.026.018-.011.005-.058.035,0,0-.028.018-.012.007-.028.016-.005,0-.057.034-.011.007-.027.016-.014.009-.087.053-.012.005-.026.016-.012.009-.051.03-.011.005-.025.016-.016.009-.025.014-.014.009-.046.028-.014.007-.026.016-.014.009-.026.014,0,0-.055.032-.016.009-.025.014-.018.011-.037.023-.021.012-.023.012-.018.011-.025.014-.02.012-.035.019-.021.012-.023.012-.019.012-.021.012-.035.02-.023.014-.021.012-.021.012-.021.011-.028.018-.028.016-.023.012-.02.011-.023.014-.021.012-.032.018-.025.014-.021.012-.021.012-.021.011-.028.018-.028.016-.023.012-.021.011-.021.012-.019.012-.039.021-.018.011-.025.012-.019.012-.027.014-.026.014-.027.016-.021.011-.023.012-.021.012-.026.014-.03.018-.021.012-.021.01-.023.012-.021.012-.037.02-.019.012-.023.011-.021.012-.023.012-.032.018-.025.014-.021.01-.021.012-.021.011-.023.012-.039.021-.018.011-.025.012-.016.009-.087.048-.014.007-.028.014-.012.007-.057.032-.005,0-.028.016-.012.005-.1.053,0,0-.032.018-.007,0-.1.053,0,0-.216.113-4.093-7.85a44.728,44.728,0,0,0,5.044-3.071Zm-11.838,5.925,2.735,8.418c-.4.131-.8.255-1.206.375l0,0-.048.014-.005,0-.023.007-.007,0-.041.012-.009,0-.021.005-.012.005-.034.009-.012,0-.02.005-.018.005-.019.007-.025.007-.016,0-.02.007-.019.005-.025.007-.012,0-.027.007-.009,0-.034.009-.009,0-.03.009h-.005l-.035.011-.009,0-.032.009h0l-.035.011-.007,0-.032.009,0,0-.037.011,0,0-.039.01h0l-.037.011h0q-2.4.677-4.875,1.13l-1.59-8.707a44.251,44.251,0,0,0,5.715-1.443ZM834.8,675.4l.133,8.85-.048,0h-.062l-.034,0h-.124l-.034,0h-.212l-.044,0h-6.524v-8.852h6.265c.228,0,.457,0,.683-.005Zm-22.882.005H819v8.852h-7.081v-8.852Zm-15.933,0h7.081v8.852H795.99v-8.852Zm-15.933,0h7.081v8.852h-7.081v-8.852Zm-15.933,0h7.081v8.852h-7.081v-8.852Zm-15.933,0h7.081v8.852h-7.081v-8.852Zm-15.933,0h7.081v8.852h-7.081v-8.852Zm-15.933,0h7.081v8.852h-7.081v-8.852Zm-15.933,0h7.081v8.852h-7.081v-8.852Zm-15.933,0h7.081v8.852h-7.081v-8.852Zm-15.933,0h7.081v8.852h-7.081v-8.852Zm-13.485-1.51a44.429,44.429,0,0,0,5.784,1.142l-1.133,8.779q-1.713-.22-3.39-.549h0l-.08-.016h0l-.076-.016-.007,0-.074-.014-.009,0-.035-.007-.005,0-.03-.005-.011,0-.034-.007-.009,0-.026-.005-.014,0-.032-.005-.012,0-.021,0-.018,0-.019-.005-.025-.005-.019,0-.018,0-.018,0-.03-.007-.014,0-.02,0-.014,0-.036-.007-.011,0-.023,0-.009,0-.041-.009-.007,0-.074-.016-.007,0-.076-.016h0l-.08-.018h0q-1.267-.274-2.51-.607l2.291-8.551Zm-12.125-5.3a44.617,44.617,0,0,0,5.192,2.8l-3.679,8.05c-.141-.064-.28-.128-.421-.195l-.005,0-.1-.046-.012-.007-.028-.012-.014-.007-.046-.021-.019-.009-.023-.011-.021-.01-.021-.011-.041-.02-.012-.005-.032-.016-.018-.007-.032-.016-.011-.005-.046-.023-.007,0-.041-.02L643.47,679l-.094-.046h0l-.048-.023,0,0-.1-.048h0a53.316,53.316,0,0,1-5.021-2.794l4.713-7.492Zm-10.064-8.643a45.247,45.247,0,0,0,4.155,4.208l-5.876,6.621a54.259,54.259,0,0,1-4.973-5.035l6.694-5.794Zm-7.1-11.19a44.771,44.771,0,0,0,2.739,5.228l-7.552,4.617a53.19,53.19,0,0,1-3.282-6.267l8.1-3.578ZM622.281,636a44.563,44.563,0,0,0,1.069,5.8l-8.579,2.181a53.41,53.41,0,0,1-1.1-5.536h0l-.011-.083h0l-.01-.082v0l-.012-.08v0l-.011-.08v0l-.005-.039,0,0,0-.035,0-.007-.005-.037v-.005l-.005-.032v-.009l-.005-.037v0l-.005-.034v-.009l-.005-.035,0-.009,0-.03,0-.011,0-.034,0-.011,0-.026,0-.012,0-.034,0-.012,0-.023,0-.016,0-.032,0-.014,0-.021,0-.014,0-.034,0-.014,0-.021,0-.016,0-.032,0-.016,0-.02,0-.016,0-.03,0-.019,0-.016,0-.028,0-.019,0-.02,0-.014,0-.03,0-.019,0-.019,0-.016,0-.03,0-.018,0-.02,0-.016,0-.019L622.281,636Zm-8.275-14.846,8.707,1.6a44.451,44.451,0,0,0-.676,5.863l-8.841-.43a53.214,53.214,0,0,1,.706-6.444v0l.007-.039v0l.007-.039v-.005l.007-.035v0l.007-.037,0-.007.005-.034v-.005l.007-.034,0-.011.005-.03,0-.012.005-.028,0-.014.005-.023,0-.021,0-.021,0-.016,0-.021,0-.025,0-.02,0-.018,0-.016.005-.032,0-.014,0-.019v0Zm5.168-15.009,7.844,4.1a44.2,44.2,0,0,0-2.378,5.4l-8.321-3.022q.284-.783.593-1.556l0,0,.039-.1,0-.007.019-.044,0,0,.02-.051v0l.019-.044,0-.011.016-.041,0-.007.019-.048,0-.007.016-.039,0-.012.018-.041,0-.007.02-.044.005-.014.014-.034.005-.014.018-.042,0-.011.016-.037.007-.016.012-.03.007-.018.018-.042.007-.014.012-.03.009-.02.011-.026.007-.02.018-.041.009-.021.011-.023.009-.023.011-.025.009-.023.016-.035.009-.023.011-.021.009-.025.009-.021.018-.041.009-.019.011-.027.009-.018.011-.027.007-.014.021-.05.007-.016.011-.027.007-.016.041-.094.005-.012.012-.03.007-.012.025-.06,0-.005.012-.03.005-.012.014-.03,0-.009.027-.06,0-.009.014-.03,0-.011.014-.032,0,0,.028-.062.005-.011.012-.03.005-.012.042-.094.007-.014.012-.028.005-.012.042-.094.007-.016.012-.027.005-.014.027-.057,0-.007.012-.03.007-.014.012-.028.005-.01.025-.055.005-.012.012-.026.009-.016.041-.09.007-.018.012-.023.009-.021.012-.025.016-.035.011-.023.011-.023.011-.021.011-.025.014-.027.014-.032.009-.02.012-.025.009-.019.014-.032.011-.021.016-.032.007-.018.014-.03.007-.014.021-.042.005-.012.016-.034.007-.014.016-.035.005-.009.021-.046,0-.007.02-.039.005-.011.044-.092,0-.005.021-.043,0-.007.048-.1,0,0q.324-.669.669-1.328Zm9.354-12.824,6.3,6.214a45.121,45.121,0,0,0-3.866,4.475l-7.064-5.336a53.95,53.95,0,0,1,4.24-4.957l0,0,.074-.078,0,0,.035-.035,0,0,.074-.076.005-.005.035-.037h0l.037-.037.005-.007.03-.03.007-.009.037-.035h0l.034-.035,0,0Zm12.692-9.539,4.212,7.786a44.854,44.854,0,0,0-5,3.148l-5.2-7.161q.624-.454,1.262-.891l0,0,.09-.06,0,0,.041-.028.005,0,.087-.058.007-.005.037-.025.007,0,.041-.028.007-.005.036-.023.012-.009.032-.021.009-.005.041-.026.012-.011.028-.018.016-.011.028-.019.023-.014.027-.018.018-.012.023-.014.019-.012.035-.025.018-.012.021-.014.021-.012.021-.014.028-.019.025-.016.023-.016.018-.011.023-.016.014-.009.046-.03.012-.009.025-.016.014-.009.025-.016.012-.007.048-.032.012-.009.026-.016.012-.009.087-.055.011-.007.028-.018.009-.007.053-.034.009-.005.027-.018.012-.007.089-.057.009-.005.028-.018.011-.007.089-.057.011-.007.028-.018.007,0,.057-.037.007,0,.027-.018.012-.007.026-.018,0,0,.057-.036.012-.007.026-.018.011-.005.089-.055.012-.009.027-.016.01-.007.055-.032.007-.005.026-.016.014-.011.027-.014.011-.007.048-.03.014-.009.025-.016.016-.009.055-.034,0,0,.025-.014.018-.012.023-.012.018-.012.039-.023.019-.012.021-.012.02-.012.021-.012.023-.014.034-.021.021-.01.021-.014.021-.012.02-.012.037-.021.019-.012.023-.012.019-.012.023-.014.027-.016.03-.018.019-.011.023-.014.018-.01.037-.023.014-.007.03-.018.018-.01.027-.016.016-.009.039-.023.014-.009.028-.018.018-.009.028-.018.014-.007.041-.025.012-.007.03-.018.014-.009.043-.023.005,0,.037-.021.014-.009.032-.02.011-.005.044-.025.007,0,.037-.023.011-.005.037-.021.007,0,.042-.025.009-.005.037-.021.011-.005.087-.051.01-.005.039-.021.005,0,.046-.026,0,0,.041-.023.009-.005.041-.023,0,0,.046-.027.005,0,.042-.023.005,0,.092-.051.005,0,.042-.023,0,0,.048-.027h0l.046-.027.005,0,.094-.051,0,0,.044-.025.005,0,.092-.05.005,0,.044-.023,0,0,.092-.051.007,0,.044-.025Zm14.933-5.385,1.721,8.683a44.261,44.261,0,0,0-5.692,1.53l-2.864-8.375a53.046,53.046,0,0,1,6.835-1.838Zm10.415-1.018v8.852q-.685,0-1.365.02l-.266-8.846c.106,0,.218-.007.326-.009l.021,0h.065l.042,0h0q.356-.008.712-.011h.055l.044,0h.361Z" transform="translate(-603.395 -567.644)" fill="#2d2d2d"/>
        <g id="Group_725" data-name="Group 725" transform="translate(177.064 9.738)">
          <path id="Path_1237" data-name="Path 1237" d="M640.723,632.392a19.734,19.734,0,0,1-2.413-4.937l-11.645,1.761a31.221,31.221,0,0,0,5.088,10.7Zm-3.436-9.59.117-.016a19.63,19.63,0,0,1,.363-5.662L626.8,612.831a31.223,31.223,0,0,0-.951,11.98Zm-8.99-14.186,10.918,3.973.119.037a19.826,19.826,0,0,1,3.286-4.807l-7.349-9.2A31.413,31.413,0,0,0,628.3,608.616Zm21.938,19.336a9.33,9.33,0,0,0,3.537,2.31,3.511,3.511,0,0,0,.526.182,9.116,9.116,0,0,0,4.123.34,1.784,1.784,0,0,0,.276-.032,1.757,1.757,0,0,0,.271-.058,8.993,8.993,0,0,0,3.8-1.652,2.523,2.523,0,0,0,.443-.328,9.613,9.613,0,0,0,2.613-3.319,5.223,5.223,0,0,0,.2-.489,9.2,9.2,0,0,0,.682-4.327,3.425,3.425,0,0,0-.046-.528,2.918,2.918,0,0,0-.041-.328,9.507,9.507,0,0,0-1.577-3.9c-.1-.143-.195-.289-.31-.418a9.522,9.522,0,0,0-3.672-2.891c-.159-.067-.317-.135-.487-.188a9.287,9.287,0,0,0-4.72-.551,1.849,1.849,0,0,0-.264.03,1.563,1.563,0,0,0-.259.057,9.416,9.416,0,0,0-4.3,2.016,3.034,3.034,0,0,0-.4.345,9.312,9.312,0,0,0-2.556,3.912,3.956,3.956,0,0,0-.158.508,9.436,9.436,0,0,0-.25,4.189,2.5,2.5,0,0,0,.066.324,3.33,3.33,0,0,0,.126.515,9.122,9.122,0,0,0,2.013,3.872A5.381,5.381,0,0,0,650.235,627.952Zm-4-23.209a19.562,19.562,0,0,1,5.392-2.489l-1.767-11.621a31.258,31.258,0,0,0-11.164,5.122Zm10.066-3.256a19.663,19.663,0,0,1,5.9.635l4.272-10.927a31.234,31.234,0,0,0-12.214-1.283Zm11.183,36.7a19.768,19.768,0,0,1-4.8,2.1l1.767,11.624a31.089,31.089,0,0,0,10.592-4.722Zm-9.509,2.877a19.73,19.73,0,0,1-5.222-.457l-4.282,10.946a31.08,31.08,0,0,0,11.546,1.091Zm12.66-48.245-4.026,11.065a19.9,19.9,0,0,1,4.651,3.51l9.174-7.331A31.529,31.529,0,0,0,670.631,592.821Zm3.532,18.334a19.626,19.626,0,0,1,2.153,5.245l11.608-1.769A31.242,31.242,0,0,0,683.2,603.58Zm3.026,9.919-.251.035a19.344,19.344,0,0,1-.7,5.442l10.923,4.275a31.166,31.166,0,0,0,1.4-11.764ZM685.495,635l-11.08-4.033a19.747,19.747,0,0,1-3.2,4.249l7.331,9.174A31.653,31.653,0,0,0,685.495,635Zm-41.245,15.016,3.966-10.9.062-.129a19.771,19.771,0,0,1-4.41-3l-9.209,7.354A31.584,31.584,0,0,0,644.249,650.012Z" transform="translate(-603.698 -567.835)" fill="#a5a5a5"/>
          <path id="Path_1238" data-name="Path 1238" d="M613.971,639.478a53.431,53.431,0,1,0,44.087-61.385A53.451,53.451,0,0,0,613.971,639.478Z" transform="translate(-613.256 -577.383)" fill="#a5a5a5"/>
          <path id="Path_1239" data-name="Path 1239" d="M617.832,635.3a46.431,46.431,0,1,0,38.312-53.342A46.447,46.447,0,0,0,617.832,635.3Z" transform="translate(-610.209 -574.336)" fill="#d6d6d6"/>
          <path id="Path_1240" data-name="Path 1240" d="M637.346,614.172a11.053,11.053,0,1,0,9.121-12.7A11.057,11.057,0,0,0,637.346,614.172Z" transform="translate(-594.812 -558.937)" fill="#3f3f3f"/>
          <g id="Group_724" data-name="Group 724" transform="translate(31.756 31.213)">
            <ellipse id="Ellipse_159" data-name="Ellipse 159" cx="2.648" cy="2.648" rx="2.648" ry="2.648" transform="translate(19.766)" fill="#3f3f3f"/>
            <ellipse id="Ellipse_160" data-name="Ellipse 160" cx="2.648" cy="2.648" rx="2.648" ry="2.648" transform="translate(19.766 39.532)" fill="#3f3f3f"/>
            <ellipse id="Ellipse_161" data-name="Ellipse 161" cx="2.648" cy="2.648" rx="2.648" ry="2.648" transform="translate(0 19.766)" fill="#3f3f3f"/>
            <ellipse id="Ellipse_162" data-name="Ellipse 162" cx="2.648" cy="2.648" rx="2.648" ry="2.648" transform="translate(39.532 19.766)" fill="#3f3f3f"/>
            <ellipse id="Ellipse_163" data-name="Ellipse 163" cx="2.648" cy="2.648" rx="2.648" ry="2.648" transform="translate(33.742 5.789)" fill="#3f3f3f"/>
            <ellipse id="Ellipse_164" data-name="Ellipse 164" cx="2.648" cy="2.648" rx="2.648" ry="2.648" transform="translate(5.789 33.742)" fill="#3f3f3f"/>
            <ellipse id="Ellipse_165" data-name="Ellipse 165" cx="2.648" cy="2.648" rx="2.648" ry="2.648" transform="translate(5.789 5.789)" fill="#3f3f3f"/>
            <ellipse id="Ellipse_166" data-name="Ellipse 166" cx="2.648" cy="2.648" rx="2.648" ry="2.648" transform="translate(33.742 33.742)" fill="#3f3f3f"/>
          </g>
        </g>
        <path id="Path_1241" data-name="Path 1241" d="M670.558,698.229H684.87v-3.541H670.558Zm17.827,0h14.064v-3.541H688.385Zm17.579,0h14.062v-3.541H705.965Zm17.578,0h14.064v-3.541H723.543Zm17.578,0h14.063v-3.541H741.12Zm17.579,0h14.062v-3.541H758.7Zm17.579,0h14.062v-3.541H776.279Zm17.578,0h14.063v-3.541H793.857Zm17.578,0H825.5v-3.541H811.435Zm17.579,0h9.346c1.615,0,3.247-.062,4.845-.184l-.271-3.53c-1.51.115-3.05.173-4.574.173h-9.346Zm-162.078-.117.214-3.533a59.168,59.168,0,0,1-13.41-2.378l-1.016,3.392A62.8,62.8,0,0,0,666.936,698.113Zm179.863-.444a62.712,62.712,0,0,0,14-3.553l-1.26-3.309a59.227,59.227,0,0,1-13.207,3.353Zm-197.508-3.211,1.211-3.326a59.508,59.508,0,0,1-12.183-6.09l-1.933,2.967A63.03,63.03,0,0,0,649.291,694.457Zm214.85-1.73a63.286,63.286,0,0,0,12.409-7.377l-2.146-2.818a59.725,59.725,0,0,1-11.711,6.966ZM633.416,685.95l2.1-2.852a60.206,60.206,0,0,1-9.987-9.273l-2.686,2.307A63.639,63.639,0,0,0,633.416,685.95Zm245.948-2.873a63.878,63.878,0,0,0,9.834-10.558l-2.849-2.1a60.16,60.16,0,0,1-9.287,9.972Zm-258.8-9.76,2.813-2.147a59.806,59.806,0,0,1-6.98-11.7l-3.229,1.455A63.28,63.28,0,0,0,620.569,673.317Zm270.694-3.764a63.222,63.222,0,0,0,6.467-12.9l-3.327-1.213a59.563,59.563,0,0,1-6.1,12.173Zm-279.48-11.976,3.305-1.266a59.127,59.127,0,0,1-3.371-13.2l-3.51.473A62.683,62.683,0,0,0,611.783,657.577Zm287.089-4.352a63.071,63.071,0,0,0,2.54-14.209l-3.534-.221a59.452,59.452,0,0,1-2.4,13.409ZM607.824,639.992l3.53-.276c-.12-1.531-.181-3.1-.181-4.659a60.314,60.314,0,0,1,.673-8.956l-3.5-.529a63.818,63.818,0,0,0-.712,9.484C607.633,636.71,607.7,638.371,607.824,639.992Zm293.71-4.583v-.366a63.246,63.246,0,0,0-1.563-13.984l-3.452.784a59.829,59.829,0,0,1,1.475,13.214v.326ZM612.452,622.744a59.012,59.012,0,0,1,4.325-12.915l-3.206-1.5a62.673,62.673,0,0,0-4.583,13.69Zm283.214-4.206,3.4-.983a62.969,62.969,0,0,0-5.575-13.318l-3.088,1.731A59.444,59.444,0,0,1,895.666,618.538ZM618.312,606.784a60.019,60.019,0,0,1,7.8-11.167l-2.652-2.346A63.6,63.6,0,0,0,615.2,605.1ZM888.65,603.04l2.983-1.9a63.842,63.842,0,0,0-9.1-11.2l-2.477,2.53A60.268,60.268,0,0,1,888.65,603.04Zm-260.2-9.917a60.04,60.04,0,0,1,10.624-8.535l-1.889-2.994a63.635,63.635,0,0,0-11.252,9.039Zm249.1-2.978,2.33-2.666A63.464,63.464,0,0,0,868,579.28l-1.666,3.123A60.043,60.043,0,0,1,877.55,590.145Zm-235.539-7.3a59.367,59.367,0,0,1,12.6-5.193l-.965-3.406a62.812,62.812,0,0,0-13.349,5.5Zm221.275-1.963,1.485-3.215a62.754,62.754,0,0,0-13.715-4.505l-.71,3.468A59.135,59.135,0,0,1,863.286,580.886Zm-205.37-4.061a59.835,59.835,0,0,1,12.89-1.4h.682v-3.541h-.682a63.39,63.39,0,0,0-13.653,1.485Zm189.071-.779.51-3.5a63.771,63.771,0,0,0-9.137-.66h-5.148v3.541h5.148A60.279,60.279,0,0,1,846.987,576.046Zm-171.982-.623h14.062v-3.541H675.005Zm17.578,0h14.063v-3.541H692.583Zm17.579,0h14.062v-3.541H710.162Zm17.578,0H741.8v-3.541H727.74Zm17.578,0h14.064v-3.541H745.318Zm17.58,0h14.062v-3.541H762.9Zm17.579,0h14.062v-3.541H780.477Zm17.578,0h14.064v-3.541H798.055Zm17.578,0H829.7v-3.541H815.632Z" transform="translate(-607.633 -571.882)" fill="#2d2d2d"/>
      </g>
      <rect id="Rectangle_542" data-name="Rectangle 542" width="433.132" height="11.647" rx="3.29" transform="translate(0 214.527)" fill="#a5a5a5" opacity="0.26" style="mix-blend-mode: multiply;isolation: isolate"/>
    </g>
  </g>
</svg>
