<svg xmlns="http://www.w3.org/2000/svg" width="315.662" height="316.554" viewBox="0 0 315.662 316.554">
  <g id="Group_885" data-name="Group 885" transform="translate(135.504 -12.571) rotate(41)">
    <g id="Group_815" data-name="Group 815" transform="translate(19.161 0)">
      <rect id="Rectangle_719" data-name="Rectangle 719" width="63.826" height="219.551" rx="5.21" transform="translate(0 63.826) rotate(-90)" fill="#2d2d2d"/>
      <g id="Group_814" data-name="Group 814" transform="translate(7.518 3.266)">
        <rect id="Rectangle_720" data-name="Rectangle 720" width="3.816" height="17.474" fill="#232323"/>
        <rect id="Rectangle_721" data-name="Rectangle 721" width="3.816" height="17.474" transform="translate(0 19.91)" fill="#232323"/>
        <rect id="Rectangle_722" data-name="Rectangle 722" width="3.816" height="17.474" transform="translate(0 39.819)" fill="#232323"/>
        <rect id="Rectangle_723" data-name="Rectangle 723" width="5.515" height="17.474" transform="translate(10.262 0)" fill="#232323"/>
        <rect id="Rectangle_724" data-name="Rectangle 724" width="5.515" height="17.474" transform="translate(10.262 19.91)" fill="#232323"/>
        <rect id="Rectangle_725" data-name="Rectangle 725" width="5.515" height="17.474" transform="translate(10.262 39.82)" fill="#232323"/>
        <rect id="Rectangle_726" data-name="Rectangle 726" width="5.515" height="17.474" transform="translate(22.224 0)" fill="#232323"/>
        <rect id="Rectangle_727" data-name="Rectangle 727" width="5.515" height="17.474" transform="translate(22.224 19.91)" fill="#232323"/>
        <rect id="Rectangle_728" data-name="Rectangle 728" width="5.515" height="17.474" transform="translate(22.224 39.82)" fill="#232323"/>
        <rect id="Rectangle_729" data-name="Rectangle 729" width="5.515" height="17.474" transform="translate(34.185 0)" fill="#232323"/>
        <rect id="Rectangle_730" data-name="Rectangle 730" width="5.515" height="17.474" transform="translate(34.185 19.91)" fill="#232323"/>
        <rect id="Rectangle_731" data-name="Rectangle 731" width="5.515" height="17.474" transform="translate(34.185 39.82)" fill="#232323"/>
        <rect id="Rectangle_732" data-name="Rectangle 732" width="5.515" height="17.474" transform="translate(46.147 0)" fill="#232323"/>
        <rect id="Rectangle_733" data-name="Rectangle 733" width="5.515" height="17.474" transform="translate(46.147 19.91)" fill="#232323"/>
        <rect id="Rectangle_734" data-name="Rectangle 734" width="5.515" height="17.474" transform="translate(46.147 39.82)" fill="#232323"/>
        <rect id="Rectangle_735" data-name="Rectangle 735" width="5.515" height="17.474" transform="translate(58.108 0)" fill="#232323"/>
        <rect id="Rectangle_736" data-name="Rectangle 736" width="5.515" height="17.474" transform="translate(58.108 19.91)" fill="#232323"/>
        <rect id="Rectangle_737" data-name="Rectangle 737" width="5.515" height="17.474" transform="translate(58.108 39.82)" fill="#232323"/>
        <rect id="Rectangle_738" data-name="Rectangle 738" width="5.515" height="17.474" transform="translate(70.07 0)" fill="#232323"/>
        <rect id="Rectangle_739" data-name="Rectangle 739" width="5.515" height="17.474" transform="translate(70.07 19.91)" fill="#232323"/>
        <rect id="Rectangle_740" data-name="Rectangle 740" width="5.515" height="17.474" transform="translate(70.07 39.82)" fill="#232323"/>
        <rect id="Rectangle_741" data-name="Rectangle 741" width="5.515" height="17.474" transform="translate(82.031 0)" fill="#232323"/>
        <rect id="Rectangle_742" data-name="Rectangle 742" width="5.515" height="17.474" transform="translate(82.031 19.91)" fill="#232323"/>
        <rect id="Rectangle_743" data-name="Rectangle 743" width="5.515" height="17.474" transform="translate(82.031 39.82)" fill="#232323"/>
        <rect id="Rectangle_744" data-name="Rectangle 744" width="5.515" height="17.474" transform="translate(93.993 0)" fill="#232323"/>
        <rect id="Rectangle_745" data-name="Rectangle 745" width="5.515" height="17.474" transform="translate(93.993 19.91)" fill="#232323"/>
        <rect id="Rectangle_746" data-name="Rectangle 746" width="5.515" height="17.474" transform="translate(93.993 39.82)" fill="#232323"/>
        <rect id="Rectangle_747" data-name="Rectangle 747" width="5.515" height="17.474" transform="translate(105.954 0)" fill="#232323"/>
        <rect id="Rectangle_748" data-name="Rectangle 748" width="5.515" height="17.474" transform="translate(105.954 19.91)" fill="#232323"/>
        <rect id="Rectangle_749" data-name="Rectangle 749" width="5.515" height="17.474" transform="translate(105.954 39.82)" fill="#232323"/>
        <rect id="Rectangle_750" data-name="Rectangle 750" width="5.515" height="17.474" transform="translate(117.916 0)" fill="#232323"/>
        <rect id="Rectangle_751" data-name="Rectangle 751" width="5.515" height="17.474" transform="translate(117.916 19.91)" fill="#232323"/>
        <rect id="Rectangle_752" data-name="Rectangle 752" width="5.515" height="17.474" transform="translate(117.916 39.82)" fill="#232323"/>
        <rect id="Rectangle_753" data-name="Rectangle 753" width="5.515" height="17.474" transform="translate(129.877 0)" fill="#232323"/>
        <rect id="Rectangle_754" data-name="Rectangle 754" width="5.515" height="17.474" transform="translate(129.877 19.91)" fill="#232323"/>
        <rect id="Rectangle_755" data-name="Rectangle 755" width="5.515" height="17.474" transform="translate(129.877 39.82)" fill="#232323"/>
        <rect id="Rectangle_756" data-name="Rectangle 756" width="5.515" height="17.474" transform="translate(141.839 0)" fill="#232323"/>
        <rect id="Rectangle_757" data-name="Rectangle 757" width="5.515" height="17.474" transform="translate(141.839 19.91)" fill="#232323"/>
        <rect id="Rectangle_758" data-name="Rectangle 758" width="5.515" height="17.474" transform="translate(141.839 39.82)" fill="#232323"/>
        <rect id="Rectangle_759" data-name="Rectangle 759" width="5.515" height="17.474" transform="translate(153.8 0)" fill="#232323"/>
        <rect id="Rectangle_760" data-name="Rectangle 760" width="5.515" height="17.474" transform="translate(153.8 19.91)" fill="#232323"/>
        <rect id="Rectangle_761" data-name="Rectangle 761" width="5.515" height="17.474" transform="translate(153.8 39.82)" fill="#232323"/>
        <rect id="Rectangle_762" data-name="Rectangle 762" width="5.515" height="17.474" transform="translate(165.762 0)" fill="#232323"/>
        <rect id="Rectangle_763" data-name="Rectangle 763" width="5.515" height="17.474" transform="translate(165.762 19.91)" fill="#232323"/>
        <rect id="Rectangle_764" data-name="Rectangle 764" width="5.515" height="17.474" transform="translate(165.762 39.82)" fill="#232323"/>
        <rect id="Rectangle_765" data-name="Rectangle 765" width="5.515" height="17.474" transform="translate(177.723 0)" fill="#232323"/>
        <rect id="Rectangle_766" data-name="Rectangle 766" width="5.515" height="17.474" transform="translate(177.723 19.91)" fill="#232323"/>
        <rect id="Rectangle_767" data-name="Rectangle 767" width="5.515" height="17.474" transform="translate(177.723 39.82)" fill="#232323"/>
        <rect id="Rectangle_768" data-name="Rectangle 768" width="5.515" height="17.474" transform="translate(189.685 0)" fill="#232323"/>
        <rect id="Rectangle_769" data-name="Rectangle 769" width="5.515" height="17.474" transform="translate(189.685 19.91)" fill="#232323"/>
        <rect id="Rectangle_770" data-name="Rectangle 770" width="5.515" height="17.474" transform="translate(189.685 39.82)" fill="#232323"/>
        <rect id="Rectangle_771" data-name="Rectangle 771" width="3.466" height="17.474" transform="translate(201.05 0)" fill="#232323"/>
        <rect id="Rectangle_772" data-name="Rectangle 772" width="3.466" height="17.474" transform="translate(201.05 19.91)" fill="#232323"/>
        <rect id="Rectangle_773" data-name="Rectangle 773" width="3.466" height="17.474" transform="translate(201.05 39.82)" fill="#232323"/>
      </g>
    </g>
    <g id="Group_817" data-name="Group 817" transform="translate(19.161 164.759)">
      <rect id="Rectangle_774" data-name="Rectangle 774" width="63.826" height="219.551" rx="5.21" transform="translate(0 63.826) rotate(-90)" fill="#2d2d2d"/>
      <g id="Group_816" data-name="Group 816" transform="translate(7.518 3.266)">
        <rect id="Rectangle_775" data-name="Rectangle 775" width="3.816" height="17.474" fill="#232323"/>
        <rect id="Rectangle_776" data-name="Rectangle 776" width="3.816" height="17.474" transform="translate(0 19.91)" fill="#232323"/>
        <rect id="Rectangle_777" data-name="Rectangle 777" width="3.816" height="17.474" transform="translate(0 39.819)" fill="#232323"/>
        <rect id="Rectangle_778" data-name="Rectangle 778" width="5.515" height="17.474" transform="translate(10.262 0)" fill="#232323"/>
        <rect id="Rectangle_779" data-name="Rectangle 779" width="5.515" height="17.474" transform="translate(10.262 19.91)" fill="#232323"/>
        <rect id="Rectangle_780" data-name="Rectangle 780" width="5.515" height="17.474" transform="translate(10.262 39.819)" fill="#232323"/>
        <rect id="Rectangle_781" data-name="Rectangle 781" width="5.515" height="17.474" transform="translate(22.224 0)" fill="#232323"/>
        <rect id="Rectangle_782" data-name="Rectangle 782" width="5.515" height="17.474" transform="translate(22.224 19.91)" fill="#232323"/>
        <rect id="Rectangle_783" data-name="Rectangle 783" width="5.515" height="17.474" transform="translate(22.224 39.819)" fill="#232323"/>
        <rect id="Rectangle_784" data-name="Rectangle 784" width="5.515" height="17.474" transform="translate(34.185 0)" fill="#232323"/>
        <rect id="Rectangle_785" data-name="Rectangle 785" width="5.515" height="17.474" transform="translate(34.185 19.91)" fill="#232323"/>
        <rect id="Rectangle_786" data-name="Rectangle 786" width="5.515" height="17.474" transform="translate(34.185 39.819)" fill="#232323"/>
        <rect id="Rectangle_787" data-name="Rectangle 787" width="5.515" height="17.474" transform="translate(46.147 0)" fill="#232323"/>
        <rect id="Rectangle_788" data-name="Rectangle 788" width="5.515" height="17.474" transform="translate(46.147 19.91)" fill="#232323"/>
        <rect id="Rectangle_789" data-name="Rectangle 789" width="5.515" height="17.474" transform="translate(46.147 39.819)" fill="#232323"/>
        <rect id="Rectangle_790" data-name="Rectangle 790" width="5.515" height="17.474" transform="translate(58.108 0)" fill="#232323"/>
        <rect id="Rectangle_791" data-name="Rectangle 791" width="5.515" height="17.474" transform="translate(58.108 19.91)" fill="#232323"/>
        <rect id="Rectangle_792" data-name="Rectangle 792" width="5.515" height="17.474" transform="translate(58.108 39.819)" fill="#232323"/>
        <rect id="Rectangle_793" data-name="Rectangle 793" width="5.515" height="17.474" transform="translate(70.07 0)" fill="#232323"/>
        <rect id="Rectangle_794" data-name="Rectangle 794" width="5.515" height="17.474" transform="translate(70.07 19.91)" fill="#232323"/>
        <rect id="Rectangle_795" data-name="Rectangle 795" width="5.515" height="17.474" transform="translate(70.07 39.819)" fill="#232323"/>
        <rect id="Rectangle_796" data-name="Rectangle 796" width="5.515" height="17.474" transform="translate(82.031 0)" fill="#232323"/>
        <rect id="Rectangle_797" data-name="Rectangle 797" width="5.515" height="17.474" transform="translate(82.031 19.91)" fill="#232323"/>
        <rect id="Rectangle_798" data-name="Rectangle 798" width="5.515" height="17.474" transform="translate(82.031 39.819)" fill="#232323"/>
        <rect id="Rectangle_799" data-name="Rectangle 799" width="5.515" height="17.474" transform="translate(93.993 0)" fill="#232323"/>
        <rect id="Rectangle_800" data-name="Rectangle 800" width="5.515" height="17.474" transform="translate(93.993 19.91)" fill="#232323"/>
        <rect id="Rectangle_801" data-name="Rectangle 801" width="5.515" height="17.474" transform="translate(93.993 39.819)" fill="#232323"/>
        <rect id="Rectangle_802" data-name="Rectangle 802" width="5.515" height="17.474" transform="translate(105.954 0)" fill="#232323"/>
        <rect id="Rectangle_803" data-name="Rectangle 803" width="5.515" height="17.474" transform="translate(105.954 19.91)" fill="#232323"/>
        <rect id="Rectangle_804" data-name="Rectangle 804" width="5.515" height="17.474" transform="translate(105.954 39.819)" fill="#232323"/>
        <rect id="Rectangle_805" data-name="Rectangle 805" width="5.515" height="17.474" transform="translate(117.916 0)" fill="#232323"/>
        <rect id="Rectangle_806" data-name="Rectangle 806" width="5.515" height="17.474" transform="translate(117.916 19.91)" fill="#232323"/>
        <rect id="Rectangle_807" data-name="Rectangle 807" width="5.515" height="17.474" transform="translate(117.916 39.819)" fill="#232323"/>
        <rect id="Rectangle_808" data-name="Rectangle 808" width="5.515" height="17.474" transform="translate(129.877 0)" fill="#232323"/>
        <rect id="Rectangle_809" data-name="Rectangle 809" width="5.515" height="17.474" transform="translate(129.877 19.91)" fill="#232323"/>
        <rect id="Rectangle_810" data-name="Rectangle 810" width="5.515" height="17.474" transform="translate(129.877 39.819)" fill="#232323"/>
        <rect id="Rectangle_811" data-name="Rectangle 811" width="5.515" height="17.474" transform="translate(141.839 0)" fill="#232323"/>
        <rect id="Rectangle_812" data-name="Rectangle 812" width="5.515" height="17.474" transform="translate(141.839 19.91)" fill="#232323"/>
        <rect id="Rectangle_813" data-name="Rectangle 813" width="5.515" height="17.474" transform="translate(141.839 39.819)" fill="#232323"/>
        <rect id="Rectangle_814" data-name="Rectangle 814" width="5.515" height="17.474" transform="translate(153.8 0)" fill="#232323"/>
        <rect id="Rectangle_815" data-name="Rectangle 815" width="5.515" height="17.474" transform="translate(153.8 19.91)" fill="#232323"/>
        <rect id="Rectangle_816" data-name="Rectangle 816" width="5.515" height="17.474" transform="translate(153.8 39.82)" fill="#232323"/>
        <rect id="Rectangle_817" data-name="Rectangle 817" width="5.515" height="17.474" transform="translate(165.762 0)" fill="#232323"/>
        <rect id="Rectangle_818" data-name="Rectangle 818" width="5.515" height="17.474" transform="translate(165.762 19.91)" fill="#232323"/>
        <rect id="Rectangle_819" data-name="Rectangle 819" width="5.515" height="17.474" transform="translate(165.762 39.82)" fill="#232323"/>
        <rect id="Rectangle_820" data-name="Rectangle 820" width="5.515" height="17.474" transform="translate(177.723 0)" fill="#232323"/>
        <rect id="Rectangle_821" data-name="Rectangle 821" width="5.515" height="17.474" transform="translate(177.723 19.91)" fill="#232323"/>
        <rect id="Rectangle_822" data-name="Rectangle 822" width="5.515" height="17.474" transform="translate(177.723 39.82)" fill="#232323"/>
        <rect id="Rectangle_823" data-name="Rectangle 823" width="5.515" height="17.474" transform="translate(189.685 0)" fill="#232323"/>
        <rect id="Rectangle_824" data-name="Rectangle 824" width="5.515" height="17.474" transform="translate(189.685 19.91)" fill="#232323"/>
        <rect id="Rectangle_825" data-name="Rectangle 825" width="5.515" height="17.474" transform="translate(189.685 39.82)" fill="#232323"/>
        <rect id="Rectangle_826" data-name="Rectangle 826" width="3.466" height="17.474" transform="translate(201.05 0)" fill="#232323"/>
        <rect id="Rectangle_827" data-name="Rectangle 827" width="3.466" height="17.474" transform="translate(201.05 19.91)" fill="#232323"/>
        <rect id="Rectangle_828" data-name="Rectangle 828" width="3.466" height="17.474" transform="translate(201.05 39.82)" fill="#232323"/>
      </g>
    </g>
    <rect id="Rectangle_829" data-name="Rectangle 829" width="100.933" height="146.495" transform="translate(55.767 164.759) rotate(-90)" fill="#7c09b2"/>
    <rect id="Rectangle_830" data-name="Rectangle 830" width="9.97" height="251.152" transform="translate(28.307 73.796) rotate(-90)" fill="#7c09b2"/>
    <rect id="Rectangle_831" data-name="Rectangle 831" width="9.97" height="50.29" transform="translate(229.169 73.796) rotate(-90)" fill="#53087a"/>
    <rect id="Rectangle_832" data-name="Rectangle 832" width="9.97" height="251.152" transform="translate(28.307 164.759) rotate(-90)" fill="#7c09b2"/>
    <rect id="Rectangle_833" data-name="Rectangle 833" width="9.97" height="50.29" transform="translate(229.169 164.76) rotate(-90)" fill="#53087a"/>
    <rect id="Rectangle_834" data-name="Rectangle 834" width="90.963" height="124.108" transform="translate(66.961 159.774) rotate(-90)" fill="#2d2d2d"/>
    <rect id="Rectangle_835" data-name="Rectangle 835" width="90.963" height="6.481" transform="translate(184.551 159.774) rotate(-90)" fill="#232323"/>
    <g id="Group_818" data-name="Group 818" transform="translate(0 58.3)">
      <path id="Rectangle_836" data-name="Rectangle 836" d="M2.558,0H24.8a2.558,2.558,0,0,1,2.558,2.558V24.979a0,0,0,0,1,0,0H0a0,0,0,0,1,0,0V2.558A2.558,2.558,0,0,1,2.558,0Z" transform="translate(0.001 97.001) rotate(-90)" fill="#a5a5a5"/>
      <rect id="Rectangle_837" data-name="Rectangle 837" width="27.358" height="24.979" rx="2.558" transform="translate(0.001 42.342) rotate(-90)" fill="#a5a5a5"/>
      <path id="Path_1389" data-name="Path 1389" d="M24.979,13.678V0H3.563A3.563,3.563,0,0,0,0,3.563V13.678Z" transform="translate(0 14.984)" fill="#eaeaef"/>
      <path id="Path_1390" data-name="Path 1390" d="M24.979,13.68V0H3.563A3.563,3.563,0,0,0,0,3.563V13.68Z" transform="translate(0 69.643)" fill="#eaeaef"/>
      <rect id="Rectangle_838" data-name="Rectangle 838" width="111.986" height="7.271" transform="translate(21.765 111.986) rotate(-90)" fill="#232323"/>
      <rect id="Rectangle_839" data-name="Rectangle 839" width="42.256" height="27.577" transform="translate(29.036 77.121) rotate(-90)" fill="#3f3f3f"/>
    </g>
    <rect id="Rectangle_840" data-name="Rectangle 840" width="23.009" height="16.72" transform="translate(114.447 159.774) rotate(180)" fill="#d6d6d6"/>
    <rect id="Rectangle_841" data-name="Rectangle 841" width="23.009" height="16.72" transform="translate(140.519 159.774) rotate(180)" fill="#d6d6d6"/>
    <rect id="Rectangle_842" data-name="Rectangle 842" width="10.3" height="16.72" transform="translate(153.883 159.774) rotate(180)" fill="#d6d6d6"/>
    <rect id="Rectangle_843" data-name="Rectangle 843" width="23.009" height="16.72" transform="translate(114.447 85.532) rotate(180)" fill="#d6d6d6"/>
    <rect id="Rectangle_844" data-name="Rectangle 844" width="23.009" height="16.72" transform="translate(140.519 85.532) rotate(180)" fill="#d6d6d6"/>
    <rect id="Rectangle_845" data-name="Rectangle 845" width="10.3" height="16.72" transform="translate(153.883 85.532) rotate(180)" fill="#d6d6d6"/>
    <g id="Group_819" data-name="Group 819" transform="translate(154.258 80.699)">
      <path id="Path_1391" data-name="Path 1391" d="M0,0V1.495H11.073L25.446,15.867,26.5,14.811,11.692,0Z" transform="translate(0 56.634)" fill="#232323"/>
      <path id="Path_1392" data-name="Path 1392" d="M0,0V1.495H11.073L25.446,15.867,26.5,14.811,11.692,0Z" transform="translate(0 52.755)" fill="#232323"/>
      <path id="Path_1393" data-name="Path 1393" d="M0,0V1.495H11.073L25.446,15.867,26.5,14.81,11.692,0Z" transform="translate(0 48.878)" fill="#232323"/>
      <path id="Path_1394" data-name="Path 1394" d="M26.5,1.057,25.446,0,11.073,14.372H0v1.495H11.692Z" fill="#232323"/>
      <path id="Path_1395" data-name="Path 1395" d="M11.073,14.373H0v1.495H11.692L26.5,1.057,25.446,0Z" transform="translate(0 3.879)" fill="#232323"/>
      <path id="Path_1396" data-name="Path 1396" d="M11.073,14.373H0v1.495H11.692L26.5,1.057,25.446,0Z" transform="translate(0 7.756)" fill="#232323"/>
    </g>
    <g id="Group_820" data-name="Group 820" transform="translate(94.804 99.467)">
      <path id="Path_1397" data-name="Path 1397" d="M2.221,11.536A17.724,17.724,0,0,1,0,20.167a11.778,11.778,0,0,0,5.171,2.9A23.646,23.646,0,0,0,8.152,11.536,23.662,23.662,0,0,0,5.171,0,11.854,11.854,0,0,0,0,2.905,17.732,17.732,0,0,1,2.221,11.536Z" transform="translate(30.649 5.259)" fill="#232323"/>
      <path id="Path_1398" data-name="Path 1398" d="M8.971,0A14.921,14.921,0,0,1,23.891,14.919,11.952,11.952,0,0,1,11.946,26.865h-.008a11.784,11.784,0,0,1-4.477-.875A11.944,11.944,0,0,1,7.444,3.855l.016,0h.01l.014,0a11.942,11.942,0,0,1,5.9,5.185l0,.007,0,.018a.046.046,0,0,1-.047.046h-.013A5.968,5.968,0,1,0,13.437,20.7a5.863,5.863,0,0,0,4.038-3.464,11.124,11.124,0,0,0-.235-7.391,14.754,14.754,0,0,0-5.3-6.87A14.889,14.889,0,0,0,6.545.425L6.362.386C6.279.369,6.245.365,6.242.319s.02-.063.1-.081l.2-.045A15.239,15.239,0,0,1,8.971,0Z" transform="translate(3.142 1.896)" fill="#232323"/>
      <path id="Path_1399" data-name="Path 1399" d="M6.834,0A.046.046,0,0,1,6.88.049a.042.042,0,0,1-.024.039h0A2.627,2.627,0,0,0,5.525,1.746a2.563,2.563,0,0,0-.082.525,1.015,1.015,0,0,0-.008.159,2.513,2.513,0,0,0,.184.957A2.6,2.6,0,0,0,6.746,4.709c.035.021.068.039.1.061l.011.006a.046.046,0,0,1,.021.039.049.049,0,0,1-.049.048h0S6.2,4.767,5.89,4.709h0a17.469,17.469,0,0,1-1.7-.409Q3.5,4.1,2.834,3.837A15.606,15.606,0,0,1,1.373,3.2q-.69-.334-1.347-.73l-.006,0A.052.052,0,0,1,0,2.43a.048.048,0,0,1,.021-.039l.006,0h0A17.873,17.873,0,0,1,6.818,0l.014,0Z" fill="#232323"/>
    </g>
  </g>
</svg>
