<svg xmlns="http://www.w3.org/2000/svg" xmlns:xlink="http://www.w3.org/1999/xlink" width="601.403" height="548.64" viewBox="0 0 601.403 548.64">
  <defs>
    <clipPath id="clip-path">
      <path id="Path_1098" data-name="Path 1098" d="M137.455,814.32H-414.268V315.36l49.68-49.68H187.135V764.64Z" fill="#8d00e8" stroke="rgba(0,0,0,0)" stroke-width="1"/>
    </clipPath>
  </defs>
  <g id="Group_680" data-name="Group 680" transform="translate(414.268 -265.68)" clip-path="url(#clip-path)">
    <path id="Path_1245" data-name="Path 1245" d="M0-20H621.156V111.6H0Z" transform="translate(-424.145 710.796)" fill="#8d00e8" stroke="#0000dc" stroke-width="5"/>
    <text id="Mingo" transform="translate(-127.748 773.596)" fill="#fff" font-size="60" font-family="Baloo2-Regular, 'Baloo \32 '"><tspan x="-79.83" y="0">Mingo</tspan></text>
    <g id="Group_737" data-name="Group 737" transform="translate(-292.256 402.691)">
      <rect id="Rectangle_500" data-name="Rectangle 500" width="6.787" height="21.145" transform="translate(236.109 43.148)" fill="#7a5f44"/>
      <g id="Group_713" data-name="Group 713" transform="translate(114.88 77.734)">
        <g id="Group_710" data-name="Group 710" transform="translate(7.961 8.373)">
          <ellipse id="Ellipse_145" data-name="Ellipse 145" cx="26.477" cy="26.477" rx="26.477" ry="26.477" transform="translate(17.519 17.274)" fill="#3f3f3f"/>
          <path id="Path_1131" data-name="Path 1131" d="M698.928,581.667a37.995,37.995,0,1,1-37.995,37.995A38.007,38.007,0,0,1,698.928,581.667Zm-14.539,44.705a15.844,15.844,0,0,1-1.278-4.251L673.6,622a25.2,25.2,0,0,0,2.656,9.192ZM682.9,618.28l.095,0a15.834,15.834,0,0,1,1.03-4.464l-8.177-4.855a25.214,25.214,0,0,0-2.323,9.425Zm-5.31-12.48,8.181,4.592.089.047a15.977,15.977,0,0,1,3.247-3.4l-4.654-8.291A25.369,25.369,0,0,0,677.594,605.8Zm14.956,18.278a7.531,7.531,0,0,0,2.517,2.3,2.7,2.7,0,0,0,.394.213,7.352,7.352,0,0,0,3.241.811,1.654,1.654,0,0,0,.225.01,1.62,1.62,0,0,0,.223-.01,7.264,7.264,0,0,0,3.243-.821,1.979,1.979,0,0,0,.394-.2,7.769,7.769,0,0,0,2.517-2.3c.075-.117.159-.235.224-.362a7.422,7.422,0,0,0,1.11-3.36,2.885,2.885,0,0,0,.032-.426,2.332,2.332,0,0,0,.01-.267,7.684,7.684,0,0,0-.746-3.316,4.076,4.076,0,0,0-.193-.374,7.694,7.694,0,0,0-2.549-2.784,4.019,4.019,0,0,0-.362-.213,7.5,7.5,0,0,0-3.69-1.055,1.958,1.958,0,0,0-.427,0,7.6,7.6,0,0,0-3.691,1.044,2.669,2.669,0,0,0-.362.223,7.533,7.533,0,0,0-2.549,2.784,3.125,3.125,0,0,0-.191.384,7.62,7.62,0,0,0-.746,3.306,2.36,2.36,0,0,0,.01.267,2.707,2.707,0,0,0,.032.426,7.371,7.371,0,0,0,1.1,3.349A4.239,4.239,0,0,0,692.55,624.077Zm-.158-19.021a15.8,15.8,0,0,1,4.622-1.277l.112-9.492a25.245,25.245,0,0,0-9.568,2.621Zm8.447-1.277a15.849,15.849,0,0,1,4.623,1.278l4.832-8.149a25.237,25.237,0,0,0-9.566-2.621Zm4.115,30.712a15.965,15.965,0,0,1-4.1,1.049l-.111,9.5a25.12,25.12,0,0,0,9.058-2.378ZM697,635.541a15.955,15.955,0,0,1-4.1-1.047l-4.844,8.164a25.108,25.108,0,0,0,9.059,2.378Zm16.4-36.8-4.655,8.293a16.107,16.107,0,0,1,3.247,3.4l8.269-4.642A25.489,25.489,0,0,0,713.4,598.746Zm.418,15.073a15.921,15.921,0,0,1,1.03,4.461l9.481.108A25.219,25.219,0,0,0,722,608.962Zm1.113,8.3-.2,0a15.689,15.689,0,0,1-1.272,4.245L721.6,631.2A25.184,25.184,0,0,0,724.255,622Zm4.8,12.182-8.306-4.663a15.865,15.865,0,0,1-3.107,2.967l4.642,8.271A25.606,25.606,0,0,0,719.73,634.3Zm-34.835,6.575,4.587-8.167.066-.095a15.964,15.964,0,0,1-3.123-2.968l-8.3,4.657A25.519,25.519,0,0,0,684.895,640.876Z" transform="translate(-654.931 -575.906)" fill="#a5a5a5"/>
          <g id="Group_709" data-name="Group 709">
            <path id="Path_1132" data-name="Path 1132" d="M657.525,605.12l13.588-2.772-13.68,2.3A3.385,3.385,0,0,1,657.525,605.12Z" transform="translate(-584.008 -566.378)" fill="#a5a5a5"/>
            <path id="Path_1133" data-name="Path 1133" d="M657.129,610.521l13.865,1.364-13.808-1.857A3.188,3.188,0,0,1,657.129,610.521Z" transform="translate(-583.446 -562.839)" fill="#a5a5a5"/>
            <path id="Path_1134" data-name="Path 1134" d="M660.586,600.519l12.1-6.623-12.32,6.186A4.9,4.9,0,0,1,660.586,600.519Z" transform="translate(-589.858 -570.272)" fill="#a5a5a5"/>
            <path id="Path_1135" data-name="Path 1135" d="M659.466,616.371l12.91,5.413-12.723-5.871A3.715,3.715,0,0,1,659.466,616.371Z" transform="translate(-588.241 -560.128)" fill="#a5a5a5"/>
            <path id="Path_1136" data-name="Path 1136" d="M665.988,596.534l9.585-9.86L665.65,596.2A4.1,4.1,0,0,1,665.988,596.534Z" transform="translate(-600.471 -573.599)" fill="#a5a5a5"/>
            <path id="Path_1137" data-name="Path 1137" d="M664.587,621.061c-.111.124-.221.261-.332.374l10.793,9.02Z" transform="translate(-597.909 -557.756)" fill="#a5a5a5"/>
            <path id="Path_1138" data-name="Path 1138" d="M673.259,593.542l6.229-12.2-6.654,11.975A4.2,4.2,0,0,1,673.259,593.542Z" transform="translate(-614.88 -576.057)" fill="#a5a5a5"/>
            <path id="Path_1139" data-name="Path 1139" d="M671.49,625.036c-.139.091-.291.183-.432.262l7.679,11.827Z" transform="translate(-611.535 -555.925)" fill="#a5a5a5"/>
            <path id="Path_1140" data-name="Path 1140" d="M684.091,578.357l-2.816,13.367a3.266,3.266,0,0,1,.472.1Z" transform="translate(-631.814 -577.431)" fill="#a5a5a5"/>
            <path id="Path_1141" data-name="Path 1141" d="M679.755,627.48c-.156.042-.327.086-.485.117l3.858,13.591Z" transform="translate(-627.921 -554.799)" fill="#a5a5a5"/>
            <path id="Path_1142" data-name="Path 1142" d="M689.038,577.994l1.239,13.6.172-.02a2.749,2.749,0,0,1,.31-.022Z" transform="translate(-649.821 -577.598)" fill="#a5a5a5"/>
            <path id="Path_1143" data-name="Path 1143" d="M687.93,628.168l-.323,14.124.812-14.1A3.258,3.258,0,0,1,687.93,628.168Z" transform="translate(-645.391 -554.482)" fill="#a5a5a5"/>
            <path id="Path_1144" data-name="Path 1144" d="M695,580.28l5.2,12.643c.155-.067.3-.133.453-.188Z" transform="translate(-668.42 -576.545)" fill="#a5a5a5"/>
            <path id="Path_1145" data-name="Path 1145" d="M698.032,626.983l-4.461,13.391,4.942-13.22A3.852,3.852,0,0,1,698.032,626.983Z" transform="translate(-664.196 -555.028)" fill="#a5a5a5"/>
            <path id="Path_1146" data-name="Path 1146" d="M708.963,595.594a4.444,4.444,0,0,1,.364-.316l-9.087-10.26Z" transform="translate(-684.75 -574.362)" fill="#a5a5a5"/>
            <path id="Path_1147" data-name="Path 1147" d="M707.173,624.1l-8.2,11.451,8.593-11.145C707.433,624.307,707.308,624.208,707.173,624.1Z" transform="translate(-681.145 -556.357)" fill="#a5a5a5"/>
            <path id="Path_1148" data-name="Path 1148" d="M716.028,598.936l-11.757-7.153,11.491,7.569A2.868,2.868,0,0,1,716.028,598.936Z" transform="translate(-697.341 -571.245)" fill="#a5a5a5"/>
            <path id="Path_1149" data-name="Path 1149" d="M714.491,619.778l-11.161,8.49,11.445-8.085A3.593,3.593,0,0,1,714.491,619.778Z" transform="translate(-694.713 -558.348)" fill="#a5a5a5"/>
            <path id="Path_1150" data-name="Path 1150" d="M720.152,603.354l-13.393-3.376,13.259,3.852C720.063,603.677,720.094,603.51,720.152,603.354Z" transform="translate(-705.1 -567.47)" fill="#a5a5a5"/>
            <path id="Path_1151" data-name="Path 1151" d="M719.335,614.381l-13.1,4.8,13.263-4.334A3.125,3.125,0,0,1,719.335,614.381Z" transform="translate(-703.685 -560.834)" fill="#a5a5a5"/>
            <path id="Path_1152" data-name="Path 1152" d="M721.317,608.373l-13.868.72,13.884-.237A3.126,3.126,0,0,1,721.317,608.373Z" transform="translate(-707.288 -563.602)" fill="#a5a5a5"/>
            <path id="Path_1153" data-name="Path 1153" d="M658.19,609.175l13.843-2.826-1.119-6.088-13.9,2.321a25.492,25.492,0,0,1,.726,3.025,3.385,3.385,0,0,1,.092.476c.1.551.172,1.1.237,1.671C658.121,608.234,658.16,608.7,658.19,609.175Z" transform="translate(-584.314 -567.34)" fill="#a5a5a5"/>
            <path id="Path_1154" data-name="Path 1154" d="M656.844,614.557l14.118,1.385.719-6.157L657.656,607.9a27.3,27.3,0,0,1-.2,3.1,3.2,3.2,0,0,1-.057.492A29.594,29.594,0,0,1,656.844,614.557Z" transform="translate(-583.716 -563.818)" fill="#a5a5a5"/>
            <path id="Path_1155" data-name="Path 1155" d="M662.417,604.224l12.333-6.737-2.875-5.492-12.532,6.3a24.427,24.427,0,0,1,1.6,2.666,4.868,4.868,0,0,1,.224.437A28.936,28.936,0,0,1,662.417,604.224Z" transform="translate(-590.435 -571.148)" fill="#a5a5a5"/>
            <path id="Path_1156" data-name="Path 1156" d="M658.58,620.046l13.158,5.51,2.495-5.669-12.908-5.963a25.565,25.565,0,0,1-1.109,2.907,3.7,3.7,0,0,1-.187.457A30.363,30.363,0,0,1,658.58,620.046Z" transform="translate(-588.805 -561.045)" fill="#a5a5a5"/>
            <path id="Path_1157" data-name="Path 1157" d="M668.823,599.577l9.753-10.041-4.36-4.39-10.082,9.667a24.533,24.533,0,0,1,2.305,2.086,4.081,4.081,0,0,1,.337.337A25.407,25.407,0,0,1,668.823,599.577Z" transform="translate(-601.26 -574.303)" fill="#a5a5a5"/>
            <path id="Path_1158" data-name="Path 1158" d="M662.835,624.426l10.988,9.185,4.065-4.686-10.641-9.547a26.092,26.092,0,0,1-1.895,2.458c-.111.124-.221.261-.332.374A26.284,26.284,0,0,1,662.835,624.426Z" transform="translate(-598.674 -558.532)" fill="#a5a5a5"/>
            <path id="Path_1159" data-name="Path 1159" d="M676.833,595.654l6.341-12.428-5.468-2.917-6.757,12.162a27.77,27.77,0,0,1,2.818,1.318,4.2,4.2,0,0,1,.425.228A27.422,27.422,0,0,1,676.833,595.654Z" transform="translate(-615.813 -576.531)" fill="#a5a5a5"/>
            <path id="Path_1160" data-name="Path 1160" d="M671.964,625.863a26.19,26.19,0,0,1-2.73,1.466l7.816,12.049,5.257-3.285-7.38-12.286c-.814.641-1.658,1.234-2.531,1.794C672.258,625.692,672.106,625.784,671.964,625.863Z" transform="translate(-612.441 -556.491)" fill="#a5a5a5"/>
            <path id="Path_1161" data-name="Path 1161" d="M685.74,592.793l2.393-13.706-6.082-1.164-2.866,13.6a24.319,24.319,0,0,1,3.078.4,3.266,3.266,0,0,1,.472.1A26.2,26.2,0,0,1,685.74,592.793Z" transform="translate(-632.8 -577.631)" fill="#a5a5a5"/>
            <path id="Path_1162" data-name="Path 1162" d="M680.26,627.9a25.705,25.705,0,0,1-3.051.6l3.923,13.833,6-1.585-3.424-13.938a30.8,30.8,0,0,1-2.961.968C680.588,627.828,680.417,627.872,680.26,627.9Z" transform="translate(-628.911 -555.105)" fill="#a5a5a5"/>
            <path id="Path_1163" data-name="Path 1163" d="M688.172,592.235c1-.225,2.014-.389,3.06-.519l.172-.02a2.777,2.777,0,0,1,.31-.022,25.8,25.8,0,0,1,3.114-.162l-1.76-13.789-6.163.679Z" transform="translate(-650.777 -577.723)" fill="#a5a5a5"/>
            <path id="Path_1164" data-name="Path 1164" d="M685.8,627.963l-.323,14.359,6.19.241.837-14.343a28.186,28.186,0,0,1-3.113.063,3.267,3.267,0,0,1-.489-.02A27.412,27.412,0,0,1,685.8,627.963Z" transform="translate(-646.362 -554.577)" fill="#a5a5a5"/>
            <path id="Path_1165" data-name="Path 1165" d="M701.519,593.137a24.2,24.2,0,0,1,2.911-1.075l-5.738-12.657-5.687,2.46,5.286,12.87a28.894,28.894,0,0,1,2.774-1.41C701.221,593.258,701.363,593.193,701.519,593.137Z" transform="translate(-669.288 -576.948)" fill="#a5a5a5"/>
            <path id="Path_1166" data-name="Path 1166" d="M696.074,626.161l-4.549,13.611,5.847,2.064,5.026-13.465a24.107,24.107,0,0,1-2.989-.839,3.852,3.852,0,0,1-.481-.171A25.041,25.041,0,0,1,696.074,626.161Z" transform="translate(-665.093 -555.407)" fill="#a5a5a5"/>
            <path id="Path_1167" data-name="Path 1167" d="M712.5,594.04l-9.23-10.429-4.712,4.034,8.894,10.767a26.027,26.027,0,0,1,2.226-2.171,4.467,4.467,0,0,1,.364-.316A27.5,27.5,0,0,1,712.5,594.04Z" transform="translate(-685.464 -575.01)" fill="#a5a5a5"/>
            <path id="Path_1168" data-name="Path 1168" d="M705.508,622.744l-8.328,11.627,4.969,3.7,8.757-11.351a28.3,28.3,0,0,1-2.622-1.69c-.136-.1-.26-.2-.4-.305A25.849,25.849,0,0,1,705.508,622.744Z" transform="translate(-681.862 -556.981)" fill="#a5a5a5"/>
            <path id="Path_1169" data-name="Path 1169" d="M718.3,597.237l-11.946-7.269-3.316,5.251,11.706,7.7a27.558,27.558,0,0,1,1.49-2.726,2.865,2.865,0,0,1,.266-.416A24.225,24.225,0,0,1,718.3,597.237Z" transform="translate(-697.814 -572.082)" fill="#a5a5a5"/>
            <path id="Path_1170" data-name="Path 1170" d="M713.287,618l-11.335,8.621,3.668,4.991,11.664-8.234A30.46,30.46,0,0,1,715.271,621a3.572,3.572,0,0,1-.283-.4A23.153,23.153,0,0,1,713.287,618Z" transform="translate(-695.209 -559.165)" fill="#a5a5a5"/>
            <path id="Path_1171" data-name="Path 1171" d="M721.324,601.346l-13.611-3.425-1.624,5.985,13.516,3.923a29.592,29.592,0,0,1,.606-3.051c.045-.153.076-.32.134-.476A24.118,24.118,0,0,1,721.324,601.346Z" transform="translate(-705.293 -568.417)" fill="#a5a5a5"/>
            <path id="Path_1172" data-name="Path 1172" d="M718.726,612.337l-13.316,4.876,2.03,5.86,13.517-4.411a27.26,27.26,0,0,1-1.208-2.872,3.118,3.118,0,0,1-.165-.467A24.906,24.906,0,0,1,718.726,612.337Z" transform="translate(-703.935 -561.776)" fill="#a5a5a5"/>
            <path id="Path_1173" data-name="Path 1173" d="M721.314,606.242l-14.078.743.209,6.191,14.147-.24c-.06-.418-.12-.836-.166-1.255-.069-.616-.114-1.234-.145-1.844a3.126,3.126,0,0,1-.016-.483A25.758,25.758,0,0,1,721.314,606.242Z" transform="translate(-707.236 -564.584)" fill="#a5a5a5"/>
          </g>
        </g>
        <path id="Path_1174" data-name="Path 1174" d="M607.933,673.359h138.25a49.934,49.934,0,1,0,0-99.868H607.933a49.934,49.934,0,0,0,0,99.868Zm138.25-94.025a44.091,44.091,0,1,1,0,88.182H607.933a44.091,44.091,0,0,1,0-88.182Z" transform="translate(-555.809 -571.3)" fill="#2d2d2d"/>
        <path id="Path_1175" data-name="Path 1175" d="M606.1,577.491h5.843v7.3H606.1v-7.3Zm13.146,0h5.843v7.3h-5.843v-7.3Zm13.146,0h5.843v7.3h-5.843v-7.3Zm13.146,0h5.843v7.3h-5.843v-7.3Zm13.147,0h5.843v7.3h-5.843v-7.3Zm13.146,0h5.843v7.3h-5.843v-7.3Zm13.146,0h5.843v7.3h-5.843v-7.3Zm13.147,0h5.843v7.3h-5.843v-7.3Zm13.146,0h5.843v7.3h-5.843v-7.3Zm13.147,0h5.843v7.3h-5.843v-7.3Zm13.146,0h5.843v7.3h-5.843v-7.3Zm13.126.454a43.649,43.649,0,0,1,4.369.86h0l.032.007h0l.029.007h0l.029.009h.006l.026.006h.006l.028.007.009,0,.02,0,.009,0,.026.006.013,0,.016,0,.013,0,.023.006.016,0h.009l.06.016.006,0q.48.125.958.26l-2,7.026a36.62,36.62,0,0,0-4.758-1.017l1.046-7.228Zm12.536,3.793.006,0,.026.013.017.007.026.013.016.007.022.01.015.007.031.015.019.009.021.01.016.007.02.01.016.009.032.015.019.009.016.009.02.01.015.006.038.019.013.006.022.012.013.006.022.01.009.006.047.022.007,0,.025.012.009,0,.08.039.007,0,.026.013,0,0,.085.041.006,0,.115.058,0,0q1.431.721,2.8,1.54h0l.111.066,0,0,.08.048,0,0,.025.015.009.006.044.026.007,0,.02.013.013.007.02.013.012.007.035.021.015.009.019.012.016.01.017.01.022.015.023.013.019.013.015.009.022.013.013.007.031.021.013.007.023.015.012.007.031.019,0,0,.035.02.009.006.029.018.007.006.035.022h0l.035.022.006,0,.034.022h0l.076.048h0c.155.1.307.194.46.294l-3.982,6.123a37.033,37.033,0,0,0-4.251-2.38l3.138-6.6Zm10.862,7.318c.421.384.831.776,1.237,1.176h0l.07.069v0l.092.091,0,0,.064.066,0,0,.02.02,0,0,.064.064.006.006.063.064.006,0,.019.019.007.007.06.061.007.009.019.018.007.009.034.034.009.009.017.018.009.009.018.019,0,.006.037.036.009.009.018.018.009.01.057.058.01.012.016.016.01.01.031.032.009.009.018.018.01.012.016.018.009.009.031.031.01.012.016.016.013.015.022.023.015.015.016.016.012.013.015.016.015.015.022.023.015.016.015.015.013.015.013.015.025.025.013.015.013.015.015.015.015.016.015.016.022.022.013.015.015.016.013.013.02.023.013.013.018.019.013.015.015.016.013.013.023.026.012.013.016.016.012.013.021.022.009.009.023.026.012.012.018.019.01.012.025.028.007.007.02.023.01.01.019.02.009.01.026.029.007.009.021.022.009.01.023.025.006.006.025.028.01.01.017.022.01.009.025.029.007.009.021.022.009.01.022.023.006.007.026.029.009.009.019.023.009.009.028.031h0l.025.028.009.01.022.025,0,0,.028.032.006.006.022.025.007.009.025.028,0,0,.028.031.006.007.022.026.006.006.055.063.006.007.025.029,0,0,.029.032,0,0,.026.029,0,.006.057.066h0l.028.032v0l.058.066,0,0,.088.1h0c.089.1.178.208.266.313l-5.595,4.7a37.148,37.148,0,0,0-3.376-3.523l4.93-5.389Zm8.256,10.171a44.148,44.148,0,0,1,2.593,5.129h0l.036.085-6.727,2.848a36.492,36.492,0,0,0-2.192-4.349l6.29-3.713Zm4.9,12.144a43.714,43.714,0,0,1,.97,5.757l-7.267.732a36.629,36.629,0,0,0-.808-4.8l7.1-1.69Zm-6.186,12.587,7.289.466c-.047.736-.112,1.469-.2,2.2v0l-.007.067h0q-.114.966-.266,1.918h0l-.044.269h0l-.007.044h0l-.012.063v.006l0,.02v0l-.006.036v.009l0,.019h0l-.006.039,0,.007,0,.017,0,.016,0,.023,0,.013,0,.015,0,.023,0,.015,0,.015,0,.015,0,.025,0,.013,0,.018,0,.012,0,.025,0,.012,0,.022v.007l0,.029,0,.007-.006.029h0l-.006.032v0l-.012.066h0c-.038.212-.079.422-.121.634l-7.162-1.429a36.834,36.834,0,0,0,.631-4.826Zm-2.312,10.666,6.826,2.6c-.069.181-.139.359-.209.539h0l-.012.029v0l-.036.089,0,.006-.012.028v0l-.02.053,0,.009-.009.023-.006.013-.009.023,0,.012-.016.039-.007.017-.007.018-.009.02-.007.018-.013.034-.006.015-.01.023-.006.016-.01.025,0,.012-.016.037,0,.012-.012.028,0,.012-.015.035v0l-.016.038,0,.009-.013.032,0,.007-.034.079,0,.006-.016.038h0l-.035.083h0q-.83,1.959-1.839,3.818l-6.42-3.482a36.714,36.714,0,0,0,2.03-4.423Zm-5.367,9.52,5.761,4.49c-.472.606-.963,1.2-1.465,1.782l0,0-.02.023h0l-.063.073,0,0-.085.1,0,0-.061.07,0,0-.02.023h0l-.063.072,0,0-.063.07v0l-.021.022,0,0-.061.07,0,0-.02.022,0,0-.041.045,0,0-.019.02-.006.007-.058.066-.006.006-.019.021-.006.007-.038.041,0,0-.017.019-.007.009-.019.02,0,0-.035.04-.007.007-.018.019-.007.009-.057.063-.009.009-.018.019-.007.007-.036.041,0,0-.018.019-.009.009-.018.019-.006.006-.034.036-.009.01-.016.018-.01.01-.057.06-.009.01-.016.018-.01.01-.031.032-.009.01-.016.017-.01.01-.016.017-.01.01-.029.031-.01.012-.016.018-.01.01-.034.035-.006.006-.016.018-.01.012-.018.018-.01.012-.026.026-.013.013-.015.016-.012.013-.016.016-.016.018-.022.022-.013.013-.015.015-.013.015-.019.021-.019.019-.015.015-.013.013-.015.016-.015.016-.02.02-.016.018-.015.013-.015.016-.013.013-.023.025-.013.013-.016.016-.013.013-.016.018-.015.015-.022.022-.013.013-.016.016-.013.013-.023.025-.01.01-.02.021-.01.01-.02.02-.009.009-.026.028-.01.01-.019.019-.01.01-.022.022-.007.007-.028.028-.009.009-.02.021-.009.009-.029.029,0,0-.023.023-.01.01-.023.022,0,.006-.029.029-.009.007-.022.022-.007.009-.058.057-.009.007-.022.023-.006,0-5.123-5.2a37.284,37.284,0,0,0,3.246-3.645Zm-7.926,7.549,4.2,5.974q-.5.353-1.015.692h0l-.035.023,0,0-.073.048-.006,0-.034.022h0l-.035.023-.009.006-.026.018-.01.006-.034.022,0,0-.031.019-.012.007-.025.016-.01.007-.032.02-.012.007-.022.015-.015.01-.02.013-.015.009-.029.019-.016.01-.018.012-.016.01-.02.013-.025.016-.019.012-.018.01-.015.01-.019.012-.015.01-.034.021-.013.009-.021.013-.012.007-.07.044-.01.007-.022.013-.009.006-.044.028-.006,0-.023.013-.01.007-.073.045-.007,0-.023.015-.009.006-.075.047-.007,0-.023.015-.007,0-.047.028-.006,0-.023.015-.007,0-.025.015v0l-.051.031-.007,0-.023.015-.009,0-.073.045-.01.006-.023.015-.007,0-.048.029h0l-.023.015-.01.006-.023.013,0,0L767,659.4,767,659.4l-.022.013-.012.007-.073.042-.009.006-.023.013-.01.007-.042.025-.007,0-.022.013-.012.007-.022.012-.012.007-.038.023-.012.006-.02.013-.013.007-.02.012h0l-.047.028-.013.007-.02.012-.013.009-.032.019-.017.009-.019.012-.015.009-.019.012-.018.009-.029.018-.017.01-.019.01-.016.01-.018.01-.028.016-.021.012-.016.009-.019.01-.016.01-.025.013-.023.015-.017.01-.016.009-.019.01-.019.012-.025.015-.022.012-.016.009-.019.01-.016.01-.025.013-.023.013-.018.01-.017.01-.019.01-.016.009-.031.018-.016.009-.02.012-.016.009-.021.012-.023.013-.022.013-.017.009-.018.01-.018.01-.022.012-.026.015-.018.009-.018.01-.019.01-.016.009-.032.017-.016.009-.018.01-.018.01-.019.01-.028.015-.019.012-.019.009-.016.01-.019.009-.018.01-.032.018-.015.007-.02.012-.015.007-.072.039-.012.006-.022.012-.01.006-.048.026h0l-.023.013-.01,0-.08.044,0,0-.026.015-.007,0-.083.044v0l-.178.093-3.377-6.477a37.034,37.034,0,0,0,4.163-2.534Zm-9.769,4.889,2.257,6.946q-.5.16-.995.31h0l-.039.012h0l-.019.006h-.006l-.034.01-.007,0-.016,0-.012,0-.026.009-.012,0-.015,0-.016,0-.016,0-.019.006-.013,0-.016,0-.016.006-.022.006-.01,0-.022.006H756.6l-.029.009h-.006l-.026.007h0l-.028.009H756.5l-.026.009h0l-.029.009h-.007l-.026.007h0l-.031.009h0l-.031.009h0l-.032.01h0q-1.976.557-4.024.932l-1.31-7.185a36.536,36.536,0,0,0,4.714-1.189Zm-10.774,1.782.11,7.3h-.267l-.019,0H739.18v-7.3h5.169c.188,0,.377,0,.564,0Zm-18.88,0h5.843v7.3h-5.843v-7.3Zm-13.146,0h5.843v7.3h-5.843v-7.3Zm-13.146,0h5.843v7.3h-5.843v-7.3Zm-13.146,0h5.843v7.3h-5.843v-7.3Zm-13.146,0h5.843v7.3h-5.843v-7.3Zm-13.146,0h5.843v7.3H660.3v-7.3Zm-13.146,0H653v7.3h-5.843v-7.3Zm-13.146,0h5.843v7.3h-5.843v-7.3Zm-13.146,0H626.7v7.3h-5.843v-7.3Zm-13.146,0h5.843v7.3h-5.843v-7.3Zm-11.126-1.246a36.654,36.654,0,0,0,4.772.942l-.935,7.244q-1.413-.182-2.8-.453h0l-.066-.013h0l-.063-.013-.006,0-.061-.012h-.006l-.029-.006h0l-.026,0h-.009l-.028-.006-.007,0-.022,0-.012,0-.026-.006h-.01l-.016,0-.016,0-.016,0-.02,0-.016,0-.015,0-.015,0-.025-.006h-.01l-.018,0h-.01l-.029-.006-.01,0-.018,0h-.007l-.034-.007-.007,0-.061-.013h0l-.064-.013h0l-.066-.015h0q-1.047-.226-2.073-.5l1.89-7.055Zm-10-4.372a37.056,37.056,0,0,0,4.286,2.315l-3.037,6.642c-.115-.053-.231-.105-.346-.161h0l-.082-.038-.01-.006-.023-.01-.013-.006-.038-.018-.015-.007-.019-.01-.019-.009-.018-.007-.034-.016-.01,0-.026-.013-.013-.007-.028-.013-.009,0-.038-.019,0,0-.033-.016-.007,0-.079-.038h0l-.039-.019h0l-.082-.039h0a43.993,43.993,0,0,1-4.144-2.305l3.888-6.183Zm-8.3-7.13a37.176,37.176,0,0,0,3.43,3.472l-4.848,5.462a44.239,44.239,0,0,1-4.1-4.154l5.521-4.779Zm-5.854-9.233a36.711,36.711,0,0,0,2.258,4.314l-6.23,3.809a43.91,43.91,0,0,1-2.71-5.172l6.681-2.951ZM569.56,625.86a36.773,36.773,0,0,0,.881,4.785l-7.077,1.8a43.672,43.672,0,0,1-.906-4.568h0l-.01-.067h0l-.01-.067v0l-.009-.066v0l-.01-.066v0l0-.032v0l0-.029v-.006l0-.031,0,0,0-.026,0-.007,0-.031v0l0-.029v-.006l0-.031v-.006l0-.025v-.009l0-.028v-.009l0-.023v-.009l0-.028v-.01l0-.019,0-.013,0-.026,0-.012v-.017l0-.013,0-.026v-.012l0-.019,0-.012,0-.026v-.013l0-.016v-.013l0-.025,0-.016v-.013l0-.023v-.016l0-.017,0-.012,0-.023,0-.016,0-.016v-.013l0-.025v-.015l0-.017v-.012l0-.016,7.255-.843Zm-6.829-12.25,7.184,1.318a36.919,36.919,0,0,0-.558,4.838l-7.295-.355a44.221,44.221,0,0,1,.583-5.318h0l0-.032h0l.006-.032,0,0,0-.031h0l0-.031,0-.006,0-.028v0l0-.029,0-.007,0-.025,0-.01,0-.023,0-.012,0-.02,0-.018,0-.016,0-.015,0-.016,0-.022,0-.015,0-.015,0-.013,0-.026,0-.012,0-.016v0Zm4.264-12.384,6.474,3.383a36.715,36.715,0,0,0-1.963,4.454l-6.865-2.493c.158-.431.32-.859.489-1.284h0l.032-.082,0-.006.015-.038,0,0,.016-.041h0l.015-.037,0-.009.015-.034v-.006l.016-.039,0-.007.013-.031,0-.01.013-.034,0-.006.015-.036.006-.012.01-.028.006-.012.013-.035,0-.009.013-.031.006-.013.01-.025,0-.015.015-.035.006-.012.01-.025.007-.018.009-.02.007-.016.013-.034.007-.018.009-.019.007-.019.009-.02.009-.019.012-.029.009-.019.007-.017.009-.021.007-.017.015-.034.006-.016.01-.022.006-.015.009-.022.006-.012.018-.041.006-.013.01-.022,0-.013.034-.077.006-.012.01-.023,0-.01.022-.05,0,0,.01-.025.006-.01.01-.025,0-.007.023-.051v-.006l.012-.025,0-.009.01-.026,0,0,.022-.051,0-.01.01-.023,0-.01.035-.079.006-.01.01-.025,0-.009.035-.077.006-.013.01-.022.006-.012.02-.047,0-.006.012-.025,0-.012.01-.023,0-.009.02-.045.006-.01.01-.022.006-.013.034-.075.007-.015.009-.02.009-.016.009-.021.015-.029.009-.019.007-.019.009-.018.01-.02.01-.022.012-.026.009-.016.009-.02.007-.018.013-.025.009-.019.012-.025.007-.015.01-.025.007-.012.016-.036,0-.009.013-.028.006-.012.015-.029,0-.009.017-.036,0-.007.015-.031,0-.009.037-.076,0,0,.016-.036,0,0,.038-.079v0q.269-.55.552-1.094Zm7.72-10.582,5.2,5.127a37.193,37.193,0,0,0-3.192,3.691l-5.828-4.4a44.706,44.706,0,0,1,3.5-4.091h0l.061-.064,0,0,.029-.029,0,0,.061-.061,0,0,.029-.031h0l.031-.031.006-.006.023-.025.007-.007.029-.029h0l.028-.028,0,0Zm10.47-7.87,3.477,6.423a36.945,36.945,0,0,0-4.124,2.6l-4.293-5.909q.515-.375,1.042-.735h0l.073-.05h0l.035-.023,0,0,.07-.048.006,0,.031-.02.006,0,.035-.023.006,0,.028-.019.01-.007.026-.018.009-.006.032-.02.012-.009.022-.015.013-.009.023-.016.019-.012.022-.015.015-.01.019-.013.016-.01.029-.019.016-.01.018-.012.016-.012.018-.01.023-.016.022-.013.019-.013.013-.009.019-.013.013-.007.037-.025.012-.007.02-.013.012-.007.021-.013.009-.006.039-.026.012-.007.02-.013.01-.007.071-.045.01-.007.022-.013.007-.006.044-.028.007,0,.022-.015.01-.006.073-.047.007,0,.023-.016.009,0,.073-.047.009-.006.023-.015.006,0,.048-.029,0,0,.023-.015.009-.006.023-.015,0,0,.047-.029.009-.006.023-.015.009-.006.073-.045.01-.006.022-.013.007-.006.045-.028.007,0,.02-.012.013-.009.02-.013.009,0,.039-.025.012-.007.022-.013.013-.007.044-.028,0,0,.019-.012.015-.009.019-.012.015-.009.032-.019.016-.01.019-.01.015-.01.019-.01.018-.012.029-.017.016-.01.019-.01.016-.01.018-.01.029-.018.018-.01.017-.01.018-.01.019-.012.02-.013.025-.015.016-.009.019-.012.016-.01.029-.018.013-.007.023-.013.015-.009.022-.013.013-.009.034-.019.012-.006.023-.015.013-.007.025-.014.01-.006.034-.02.012-.006.025-.015.012-.007.034-.02h0l.032-.019.01-.006.028-.016.009,0,.035-.021.006,0,.031-.018.009,0,.032-.017,0,0,.037-.022.007,0,.029-.018.009,0,.073-.042.007,0,.032-.018,0,0,.038-.022h0l.034-.019.007,0,.035-.019,0,0,.038-.022,0,0,.035-.019,0,0,.076-.042.006,0,.035-.021h0l.039-.021h0l.038-.022,0,0,.077-.042h0l.035-.019,0,0,.077-.041,0,0,.035-.021h0l.077-.042,0,0,.038-.021Zm12.321-4.444,1.421,7.165a36.439,36.439,0,0,0-4.7,1.262l-2.363-6.911a43.777,43.777,0,0,1,5.638-1.516Zm8.593-.84v7.3c-.375,0-.751,0-1.125.016l-.221-7.3.269-.007h.11q.294-.007.587-.009h.38Z" transform="translate(-553.976 -569.457)" fill="#2d2d2d"/>
        <g id="Group_712" data-name="Group 712" transform="translate(146.097 8.034)">
          <path id="Path_1176" data-name="Path 1176" d="M586.953,625.047a16.169,16.169,0,0,1-1.991-4.075l-9.609,1.455a25.712,25.712,0,0,0,4.2,8.828Zm-2.835-7.913.095-.013a16.243,16.243,0,0,1,.3-4.671l-9.046-3.542a25.76,25.76,0,0,0-.783,9.885Zm-7.419-11.7,9.008,3.278.1.031a16.359,16.359,0,0,1,2.713-3.966l-6.065-7.59A25.968,25.968,0,0,0,576.7,605.43Zm18.1,15.954a7.7,7.7,0,0,0,2.919,1.906,3.028,3.028,0,0,0,.433.15,7.524,7.524,0,0,0,3.4.28,1.7,1.7,0,0,0,.226-.026,1.468,1.468,0,0,0,.225-.048,7.412,7.412,0,0,0,3.133-1.364,2.055,2.055,0,0,0,.364-.269,7.954,7.954,0,0,0,2.157-2.739c.055-.131.121-.263.165-.4a7.572,7.572,0,0,0,.562-3.57,2.83,2.83,0,0,0-.038-.435,2.064,2.064,0,0,0-.034-.27,7.829,7.829,0,0,0-1.3-3.221,4.1,4.1,0,0,0-.254-.345,7.862,7.862,0,0,0-3.031-2.385c-.13-.056-.262-.111-.4-.155a7.674,7.674,0,0,0-3.9-.454,1.308,1.308,0,0,0-.216.025,1.4,1.4,0,0,0-.213.045,7.791,7.791,0,0,0-3.548,1.665,2.617,2.617,0,0,0-.329.285,7.689,7.689,0,0,0-2.109,3.228,3.208,3.208,0,0,0-.13.419,7.788,7.788,0,0,0-.206,3.456,2.434,2.434,0,0,0,.056.267,2.747,2.747,0,0,0,.1.425,7.537,7.537,0,0,0,1.661,3.195A4.19,4.19,0,0,0,594.8,621.384Zm-3.306-19.15a16.152,16.152,0,0,1,4.449-2.054l-1.456-9.588a25.818,25.818,0,0,0-9.213,4.224Zm8.307-2.686a16.234,16.234,0,0,1,4.871.524l3.525-9.016A25.812,25.812,0,0,0,598.12,590Zm9.227,30.284a16.316,16.316,0,0,1-3.963,1.735l1.459,9.593a25.66,25.66,0,0,0,8.738-3.9Zm-7.847,2.374a16.291,16.291,0,0,1-4.309-.377l-3.532,9.032a25.6,25.6,0,0,0,9.525.9ZM611.63,592.4l-3.322,9.13a16.412,16.412,0,0,1,3.836,2.9l7.57-6.049A25.988,25.988,0,0,0,611.63,592.4Zm2.914,15.127a16.2,16.2,0,0,1,1.775,4.328l9.578-1.461a25.755,25.755,0,0,0-3.9-9.118Zm2.495,8.184-.206.029a16.018,16.018,0,0,1-.58,4.49l9.013,3.528a25.744,25.744,0,0,0,1.157-9.706Zm6.855,11.487-9.144-3.328a16.234,16.234,0,0,1-2.643,3.506l6.047,7.57A26.166,26.166,0,0,0,623.895,627.2Zm-34.033,12.39,3.272-8.994.051-.105a16.362,16.362,0,0,1-3.639-2.476l-7.6,6.068A26.076,26.076,0,0,0,589.861,639.586Z" transform="translate(-556.402 -571.781)" fill="#a5a5a5"/>
          <path id="Path_1177" data-name="Path 1177" d="M562.712,628.726a44.087,44.087,0,1,0,36.378-50.649A44.1,44.1,0,0,0,562.712,628.726Z" transform="translate(-562.122 -577.491)" fill="#a5a5a5"/>
          <path id="Path_1178" data-name="Path 1178" d="M566.572,625.982a38.338,38.338,0,1,0,31.633-44.045A38.352,38.352,0,0,0,566.572,625.982Z" transform="translate(-560.308 -575.677)" fill="#d6d6d6"/>
          <path id="Path_1179" data-name="Path 1179" d="M586.188,612.033a9.119,9.119,0,1,0,7.524-10.476A9.123,9.123,0,0,0,586.188,612.033Z" transform="translate(-551.091 -566.459)" fill="#3f3f3f"/>
          <g id="Group_711" data-name="Group 711" transform="translate(26.202 25.754)">
            <ellipse id="Ellipse_146" data-name="Ellipse 146" cx="2.185" cy="2.185" rx="2.185" ry="2.185" transform="translate(16.309)" fill="#3f3f3f"/>
            <ellipse id="Ellipse_147" data-name="Ellipse 147" cx="2.185" cy="2.185" rx="2.185" ry="2.185" transform="translate(16.309 32.618)" fill="#3f3f3f"/>
            <ellipse id="Ellipse_148" data-name="Ellipse 148" cx="2.185" cy="2.185" rx="2.185" ry="2.185" transform="translate(0 16.309)" fill="#3f3f3f"/>
            <ellipse id="Ellipse_149" data-name="Ellipse 149" cx="2.185" cy="2.185" rx="2.185" ry="2.185" transform="translate(32.618 16.309)" fill="#3f3f3f"/>
            <ellipse id="Ellipse_150" data-name="Ellipse 150" cx="2.185" cy="2.185" rx="2.185" ry="2.185" transform="translate(27.841 4.777)" fill="#3f3f3f"/>
            <ellipse id="Ellipse_151" data-name="Ellipse 151" cx="2.185" cy="2.185" rx="2.185" ry="2.185" transform="translate(4.777 27.841)" fill="#3f3f3f"/>
            <ellipse id="Ellipse_152" data-name="Ellipse 152" cx="2.185" cy="2.185" rx="2.185" ry="2.185" transform="translate(4.777 4.777)" fill="#3f3f3f"/>
            <ellipse id="Ellipse_153" data-name="Ellipse 153" cx="2.185" cy="2.185" rx="2.185" ry="2.185" transform="translate(27.841 27.841)" fill="#3f3f3f"/>
          </g>
        </g>
        <path id="Path_1180" data-name="Path 1180" d="M620.228,676.241V673.32H608.417v2.921h11.811Zm2.9,0h11.6V673.32h-11.6Zm14.505,0h11.6V673.32h-11.6Zm14.5,0h11.605V673.32H652.136Zm14.505,0h11.6V673.32h-11.6Zm14.5,0h11.6V673.32h-11.6Zm14.5,0h11.6V673.32h-11.6Zm14.5,0h11.6V673.32h-11.6Zm14.5,0h11.6V673.32h-11.6Zm14.505,0h7.711c1.334,0,2.679-.051,4-.153l-.224-2.913c-1.246.1-2.515.145-3.774.145h-7.711Zm-133.733-.1.177-2.916a48.891,48.891,0,0,1-11.065-1.96l-.84,2.8A51.916,51.916,0,0,0,605.43,676.142Zm148.408-.365a51.819,51.819,0,0,0,11.548-2.93l-1.04-2.73a48.875,48.875,0,0,1-10.9,2.765Zm-162.966-2.651,1-2.745a49.133,49.133,0,0,1-10.053-5.023l-1.6,2.447A51.933,51.933,0,0,0,590.871,673.125ZM768.146,671.7a52.139,52.139,0,0,0,10.238-6.087l-1.771-2.324a49.355,49.355,0,0,1-9.663,5.746Zm-190.373-5.595,1.733-2.353a49.552,49.552,0,0,1-8.24-7.65l-2.216,1.9A52.441,52.441,0,0,0,577.774,666.107Zm202.932-2.368a52.592,52.592,0,0,0,8.116-8.712l-2.35-1.737a49.773,49.773,0,0,1-7.663,8.23Zm-213.537-8.053,2.323-1.772a49.437,49.437,0,0,1-5.758-9.658l-2.664,1.2A52.375,52.375,0,0,0,567.169,655.686Zm223.356-3.1a52.21,52.21,0,0,0,5.336-10.644l-2.745-1a49.109,49.109,0,0,1-5.036,10.044Zm-230.6-9.885,2.729-1.044a48.847,48.847,0,0,1-2.783-10.891l-2.9.391A51.776,51.776,0,0,0,559.921,642.7ZM796.8,639.108a51.889,51.889,0,0,0,2.1-11.722l-2.916-.182a48.98,48.98,0,0,1-1.978,11.063ZM556.658,628.186l2.913-.228c-.1-1.262-.149-2.556-.149-3.843a49.749,49.749,0,0,1,.555-7.391l-2.889-.437a52.468,52.468,0,0,0-.587,7.827C556.5,625.48,556.553,626.848,556.658,628.186ZM799,624.407v-.292a52.206,52.206,0,0,0-1.29-11.55l-2.848.647a49.288,49.288,0,0,1,1.217,10.9v.269ZM560.475,613.953a48.8,48.8,0,0,1,3.57-10.656l-2.645-1.24a51.751,51.751,0,0,0-3.783,11.294Zm233.683-3.468,2.807-.809a51.92,51.92,0,0,0-4.6-10.99l-2.547,1.43A49.03,49.03,0,0,1,794.158,610.485Zm-228.845-9.7a49.6,49.6,0,0,1,6.438-9.214l-2.188-1.934a52.508,52.508,0,0,0-6.82,9.758ZM788.369,597.7l2.463-1.572a52.627,52.627,0,0,0-7.511-9.243l-2.044,2.089A49.647,49.647,0,0,1,788.369,597.7Zm-214.694-8.181a49.618,49.618,0,0,1,8.766-7.044L580.882,580a52.445,52.445,0,0,0-9.284,7.46Zm205.535-2.458,1.921-2.2a52.38,52.38,0,0,0-9.8-6.765l-1.375,2.577A49.51,49.51,0,0,1,779.21,587.058Zm-194.344-6.021a49.05,49.05,0,0,1,10.394-4.283l-.793-2.809a51.86,51.86,0,0,0-11.017,4.536Zm182.577-1.617,1.226-2.654a51.846,51.846,0,0,0-11.316-3.718l-.586,2.862A48.822,48.822,0,0,1,767.443,579.42Zm-169.451-3.351a49.261,49.261,0,0,1,10.633-1.157h.564v-2.921h-.564a52.221,52.221,0,0,0-11.264,1.226Zm156-.644.421-2.889a52.588,52.588,0,0,0-7.537-.545h-4.248v2.921h4.246A49.933,49.933,0,0,1,753.992,575.425Zm-141.9-.513h11.6v-2.921h-11.6Zm14.505,0h11.6v-2.921h-11.6Zm14.5,0h11.6v-2.921H641.1Zm14.5,0h11.605v-2.921H655.6Zm14.5,0h11.6v-2.921h-11.6Zm14.505,0h11.6v-2.921h-11.6Zm14.5,0h11.6v-2.921h-11.6Zm14.5,0h11.6v-2.921h-11.6Zm14.5,0h11.6v-2.921h-11.6Z" transform="translate(-556.5 -571.991)" fill="#2d2d2d"/>
      </g>
      <g id="Group_714" data-name="Group 714" transform="translate(75.359 81.651)">
        <path id="Path_1181" data-name="Path 1181" d="M582.872,575.449l11.51,5.332,6.223,2.878,13.585,6.3.058.029.029.015,10.094,4.674.059.029a8.032,8.032,0,0,1,1.373.774H803.309a27.315,27.315,0,0,1,0,54.631H627.672a1.589,1.589,0,0,1-.263-.015,7.369,7.369,0,0,1-2.79-.687,1.011,1.011,0,0,1-.19-.073l-2.41-1.11-10.912-5.069-1.8-.818-7.669-3.564-1.388-.643-8.385-3.871v-.015h-.014l-8.984-4.163q-.46-.219-.92-.482a11.29,11.29,0,0,1-1.432-.979,14.682,14.682,0,0,1-1.782-1.665,19.427,19.427,0,0,1-5.083-12.343,1.107,1.107,0,0,1-.015-.219V582.562C573.64,576.267,577.774,573.1,582.872,575.449Zm212.754,32.443a4.505,4.505,0,0,0-3.184-1.329,4.589,4.589,0,0,0-3.2,1.329,4.54,4.54,0,0,0,0,6.413,4.672,4.672,0,0,0,3.2,1.286,4.44,4.44,0,0,0,4.514-4.5A4.5,4.5,0,0,0,795.626,607.891Zm13.263-1.811a4.51,4.51,0,0,0-4.5-4.5h-.029a4.51,4.51,0,0,0-4.5,4.543,4.488,4.488,0,0,0,4.5,4.5h.029a4.5,4.5,0,0,0,4.5-4.5Zm10.619,1.724a4.472,4.472,0,0,0-3.17-1.329,4.545,4.545,0,1,0,4.528,4.543A4.447,4.447,0,0,0,819.508,607.8Zm5.025,18.405a4.494,4.494,0,0,0,1.329-3.184v-.088a4.529,4.529,0,0,0-1.329-3.2,4.61,4.61,0,0,0-3.228-1.3,4.476,4.476,0,0,0-4.47,4.5v.088a4.469,4.469,0,0,0,1.3,3.184,4.549,4.549,0,0,0,6.4,0ZM813.2,638.172a4.433,4.433,0,0,0,3.214,1.3,4.358,4.358,0,0,0,3.17-1.3,4.521,4.521,0,0,0-3.17-7.727,4.569,4.569,0,0,0-3.214,1.315A4.514,4.514,0,0,0,813.2,638.172Zm-8.764,6.281h.015a4.423,4.423,0,0,0,3.184-1.344,4.373,4.373,0,0,0,1.344-3.184,4.542,4.542,0,0,0-1.344-3.2,4.518,4.518,0,1,0-3.2,7.727Zm-.029-14.008a7.456,7.456,0,0,0,7.464-7.406v-.132a7.456,7.456,0,0,0-7.479-7.406A7.431,7.431,0,0,0,797,622.907v.132a7.381,7.381,0,0,0,7.406,7.406Zm-15.1,7.742a4.549,4.549,0,0,0,6.4,0,4.586,4.586,0,0,0,0-6.4,4.524,4.524,0,0,0-6.4,6.4Zm-4.967-11.949a4.32,4.32,0,0,0,3.17,1.329,4.517,4.517,0,0,0,4.528-4.5v-.029a4.418,4.418,0,0,0-1.329-3.184,4.5,4.5,0,0,0-7.7,3.214A4.435,4.435,0,0,0,784.334,626.238ZM598.355,586.784a4.516,4.516,0,0,0-1.125-.336,4.307,4.307,0,0,0-.862-.088,4.9,4.9,0,0,0-4.455,2.863,7.775,7.775,0,0,0-.263.76,6.381,6.381,0,0,0-.131.73c-.015.161-.029.321-.029.482a5.159,5.159,0,0,0,.117,1.052,4.842,4.842,0,0,0,2.746,3.4,4.9,4.9,0,0,0,6.442-2.439,4.75,4.75,0,0,0,.307-.979,4.49,4.49,0,0,0,.1-.993,5.194,5.194,0,0,0-.161-1.256A4.846,4.846,0,0,0,598.355,586.784ZM578.1,600.427a4.823,4.823,0,0,0,2.425,6.4l1.578.716.38.161,11.554,5.171h.015l6.237,2.79,8.779,3.929a4.844,4.844,0,0,0,6.413-2.454,4.915,4.915,0,0,0,.394-1.4,5.284,5.284,0,0,0,0-1.271,4.843,4.843,0,0,0-.687-1.84,4.92,4.92,0,0,0-2.147-1.884l-4.134-1.855-1.4-.628-8.078-3.608-.979-.438h-.014l-10.97-4.908-.687-.307-2.264-1.008a4.8,4.8,0,0,0-6.091,1.841A4.714,4.714,0,0,0,578.1,600.427Zm36.182-6.164a4.846,4.846,0,0,0-3.214-1.227,4.885,4.885,0,0,0-4.879,4.864,4.8,4.8,0,0,0,2.878,4.411c.175.073.336.146.511.2a5.879,5.879,0,0,0,.847.19,4.818,4.818,0,0,0,4.1-1.432,4.593,4.593,0,0,0,.95-1.388,5.306,5.306,0,0,0,.38-1.388,4.13,4.13,0,0,0,.044-.6,4.684,4.684,0,0,0-.657-2.425A4.524,4.524,0,0,0,614.277,594.263Zm-5.653,40.959a4.825,4.825,0,0,0,6.12-1.9,4.446,4.446,0,0,0,.278-.526,4.936,4.936,0,0,0,.453-2.016,4.766,4.766,0,0,0-1.4-3.374,4.644,4.644,0,0,0-1.461-1.037,4.883,4.883,0,0,0-5.142.73,4.887,4.887,0,0,0-1.285,1.709.888.888,0,0,0-.073.175,4.577,4.577,0,0,0-.351,1.8v.073a4.706,4.706,0,0,0,.584,2.22.813.813,0,0,0,.131.248,4.6,4.6,0,0,0,1.694,1.651A2.739,2.739,0,0,0,608.624,635.221Zm-9.319-7.64a2.367,2.367,0,0,0,.278-.263,5.56,5.56,0,0,0,.76-1.2,4.7,4.7,0,0,0,.424-1.972,2.371,2.371,0,0,0-.015-.321,4.8,4.8,0,0,0-1.49-3.2,4.5,4.5,0,0,0-1.359-.935,4.7,4.7,0,0,0-1.972-.424,4.882,4.882,0,0,0-4.09,2.22c-.015.015-.029.029-.015.044a3.467,3.467,0,0,0-.336.6,5.1,5.1,0,0,0-.438,2,.4.4,0,0,0,.015.131,4.274,4.274,0,0,0,.336,1.651.051.051,0,0,0,.015.029,4.893,4.893,0,0,0,2.512,2.615,4.41,4.41,0,0,0,1.11.336,4.74,4.74,0,0,0,3.389-.628A3.569,3.569,0,0,0,599.3,627.582Zm-20.245-5.916a4.765,4.765,0,0,0,1.242.8,5.237,5.237,0,0,0,1.1.336,4.942,4.942,0,0,0,1.388.058,4.82,4.82,0,0,0,3.915-2.834,4.869,4.869,0,0,0,.453-2,2.215,2.215,0,0,0-.029-.438,4.211,4.211,0,0,0-.321-1.344,4.951,4.951,0,0,0-4.528-3.067,4.478,4.478,0,0,0-1.695.321,4.774,4.774,0,0,0-2.717,2.542,4.7,4.7,0,0,0-.424,1.972A4.938,4.938,0,0,0,579.059,621.666Zm-1.2-36.547a4.863,4.863,0,0,0,2.863,4.441,4.991,4.991,0,0,0,1.972.424,4.9,4.9,0,0,0,4.455-2.863,4.822,4.822,0,0,0-1.037-5.434,4.639,4.639,0,0,0-1.4-.979,4.827,4.827,0,0,0-6.413,2.41,6.125,6.125,0,0,0-.336.993A6.044,6.044,0,0,0,577.862,585.119Z" transform="translate(-573.64 -574.673)" fill="#53087a"/>
      </g>
      <rect id="Rectangle_501" data-name="Rectangle 501" width="13.163" height="18.997" transform="translate(245.436 45.295)" fill="#555557"/>
      <rect id="Rectangle_502" data-name="Rectangle 502" width="18.879" height="18.997" transform="translate(232.06 45.295)" fill="#6c6c6c"/>
      <rect id="Rectangle_503" data-name="Rectangle 503" width="13.163" height="18.997" transform="translate(233.766 45.295)" fill="#555557"/>
      <rect id="Rectangle_504" data-name="Rectangle 504" width="18.879" height="18.997" transform="translate(220.39 45.295)" fill="#6c6c6c"/>
      <path id="Rectangle_505" data-name="Rectangle 505" d="M0,0H76.768a3.624,3.624,0,0,1,3.624,3.624v50.8a5.707,5.707,0,0,1-5.707,5.707H0a0,0,0,0,1,0,0V0A0,0,0,0,1,0,0Z" transform="translate(198.188 96.958)" fill="#3e0559"/>
      <rect id="Rectangle_506" data-name="Rectangle 506" width="13.163" height="18.997" transform="translate(221.866 45.295)" fill="#555557"/>
      <rect id="Rectangle_507" data-name="Rectangle 507" width="27.54" height="18.997" transform="translate(199.829 45.295)" fill="#6c6c6c"/>
      <rect id="Rectangle_508" data-name="Rectangle 508" width="10.088" height="17.235" transform="translate(115.396 47.121)" fill="#7a5f44"/>
      <rect id="Rectangle_509" data-name="Rectangle 509" width="18.879" height="12.783" transform="translate(76.18 51.509)" fill="#6c6c6c"/>
      <rect id="Rectangle_510" data-name="Rectangle 510" width="10.169" height="17.503" transform="translate(88.866 47.121)" fill="#cc985e"/>
      <path id="Rectangle_511" data-name="Rectangle 511" d="M5.429,0H191.281a0,0,0,0,1,0,0V31.061a0,0,0,0,1,0,0H0a0,0,0,0,1,0,0V5.429A5.429,5.429,0,0,1,5.429,0Z" transform="translate(52.605 37.298)" fill="#3f3f3f"/>
      <g id="Group_715" data-name="Group 715" transform="translate(98.065 45.295)">
        <rect id="Rectangle_512" data-name="Rectangle 512" width="11.992" height="22.063" transform="translate(3.421 0)" fill="#e8e8e8"/>
        <rect id="Rectangle_513" data-name="Rectangle 513" width="13.273" height="22.063" transform="translate(0 0)" fill="#d6d6d6"/>
        <rect id="Rectangle_514" data-name="Rectangle 514" width="19.277" height="22.063" transform="translate(26.174 0)" fill="#e8e8e8"/>
        <rect id="Rectangle_515" data-name="Rectangle 515" width="19.277" height="22.063" transform="translate(19.752 0)" fill="#d6d6d6"/>
        <rect id="Rectangle_516" data-name="Rectangle 516" width="14.932" height="17.09" transform="translate(21.924 2.486)" fill="#6c6c6c"/>
        <rect id="Rectangle_517" data-name="Rectangle 517" width="19.277" height="22.063" transform="translate(49.488 0)" fill="#e8e8e8"/>
        <rect id="Rectangle_518" data-name="Rectangle 518" width="19.277" height="22.063" transform="translate(43.065 0)" fill="#d6d6d6"/>
        <rect id="Rectangle_519" data-name="Rectangle 519" width="14.932" height="17.09" transform="translate(45.238 2.486)" fill="#6c6c6c"/>
      </g>
      <rect id="Rectangle_520" data-name="Rectangle 520" width="10.169" height="10.195" transform="translate(88.866 71.458)" fill="#cc985e"/>
      <rect id="Rectangle_521" data-name="Rectangle 521" width="10.088" height="30.994" transform="translate(115.396 71.458)" fill="#7a5f44"/>
      <rect id="Rectangle_522" data-name="Rectangle 522" width="191.281" height="4.069" transform="translate(52.605 67.822)" fill="#3f3f3f"/>
      <path id="Path_1182" data-name="Path 1182" d="M672.066,555.6l3.079-.146c0-.117-.524-11.087,5.111-14.49,2.849-1.709,6.99-1.212,12.3,1.475,10.391,5.259,19.937,15.5,28.358,24.54,8.821,9.451,15.78,16.93,21.969,17.237.355.015.708.015,1.047.015a22.138,22.138,0,0,0,14.471-5.668,10.386,10.386,0,0,1-1.37-2.819c-2.694,2.513-7.529,5.872-13.979,5.551-4.911-.248-12.162-8.019-19.829-16.258-8.605-9.217-18.336-19.676-29.22-25.183-6.359-3.214-11.547-3.666-15.4-1.344C671.45,542.819,672.036,555.089,672.066,555.6Z" transform="translate(-569.8 -510.355)" fill="#e0270e"/>
      <path id="Path_1183" data-name="Path 1183" d="M672.065,555.6l2.905-.146c0-.117-.494-11.087,4.822-14.49,2.686-1.709,6.594-1.212,11.6,1.475,9.8,5.259,18.807,15.5,26.752,24.54,8.322,9.451,14.886,16.93,20.725,17.237.334.015.669.015.987.015a20.274,20.274,0,0,0,13.652-5.668,10.681,10.681,0,0,1-1.293-2.819c-2.54,2.513-7.1,5.872-13.186,5.551-4.633-.248-11.474-8.019-18.706-16.258-8.119-9.217-17.3-19.676-27.567-25.183-6-3.214-10.893-3.666-14.522-1.344C671.484,542.819,672.036,555.089,672.065,555.6Z" transform="translate(-564.908 -510.355)"/>
      <rect id="Rectangle_523" data-name="Rectangle 523" width="9.446" height="25.501" transform="translate(211.877 71.458)" fill="#cc985e"/>
      <rect id="Rectangle_524" data-name="Rectangle 524" width="6.787" height="21.63" transform="translate(214.536 42.994)" fill="#cc985e"/>
      <rect id="Rectangle_525" data-name="Rectangle 525" width="6.787" height="25.501" transform="translate(236.109 71.458)" fill="#7a5f44"/>
      <g id="Group_720" data-name="Group 720" transform="translate(185.988)">
        <rect id="Rectangle_526" data-name="Rectangle 526" width="40.468" height="49.62" rx="1.366" transform="translate(33.471 73.861)" fill="#2a2a2a"/>
        <rect id="Rectangle_527" data-name="Rectangle 527" width="40.468" height="49.62" rx="1.366" transform="translate(36.788 73.861)" fill="#3f3f3f"/>
        <path id="Path_1184" data-name="Path 1184" d="M593.379,550.83c0-17.7,26.3-32.055,58.76-32.055S710.9,533.132,710.9,550.83a20.608,20.608,0,0,1-5.269,13.246v.01c3.373,4.046,5.269,8.528,5.269,13.263,0,17.7-26.3,32.036-58.762,32.036s-58.76-14.34-58.76-32.036c0-4.736,1.9-9.217,5.269-13.263v-.01A20.608,20.608,0,0,1,593.379,550.83Z" transform="translate(-593.379 -518.775)" fill="#232323"/>
        <path id="Path_1185" data-name="Path 1185" d="M638.738,574.6a22.022,22.022,0,0,1-15.646-6.432,2.041,2.041,0,1,1,2.879-2.9,18.143,18.143,0,0,0,25.514,0,2.041,2.041,0,1,1,2.879,2.9A22.009,22.009,0,0,1,638.738,574.6Z" transform="translate(-579.968 -497.627)" fill="#fff"/>
        <path id="Path_1186" data-name="Path 1186" d="M593.379,550.83c0-17.7,26.3-32.055,58.76-32.055S710.9,533.132,710.9,550.83a20.606,20.606,0,0,1-5.273,13.25c3.376,4.048,5.273,8.53,5.273,13.269,0,17.7-26.3,32.036-58.762,32.036s-58.76-14.34-58.76-32.036c0-4.739,1.9-9.221,5.273-13.269A20.607,20.607,0,0,1,593.379,550.83Zm113.527,0c0-15.411-25.086-28.424-54.767-28.424-29.7,0-54.765,13.014-54.765,28.424,0,3.794,1.5,7.514,4.454,11.053l.32.383h2.137l.819-.745,22.07-20.057,2.816,2.578,19.254,17.479.818.745h4.156l.818-.745,19.254-17.479,2.816-2.578,2.816,2.578,19.254,17.479.819.745h2.137l.32-.383C705.409,558.344,706.906,554.624,706.906,550.83Zm-98.787,13.431,19.055,17.317,19.233-17.5L627.174,546.6l-19.055,17.315Zm49.753-.181,19.233,17.5,19.235-17.5L677.106,546.6Zm-60.5,13.269c0,15.409,25.066,28.407,54.765,28.407,29.68,0,54.767-13,54.767-28.407,0-3.793-1.5-7.515-4.454-11.072l-.32-.381H700l-.819.763-19.254,17.479-2.816,2.559-2.816-2.559-19.254-17.479-.818-.763h-4.156l-.818.763-19.254,17.479-2.816,2.559-2.837-2.559L605.1,566.659l-.819-.763h-2.137l-.32.381C598.872,569.834,597.374,573.556,597.374,577.35Z" transform="translate(-593.379 -518.775)" fill="#f4f4f4"/>
        <g id="Group_716" data-name="Group 716" transform="translate(68.221 29.799)">
          <ellipse id="Ellipse_154" data-name="Ellipse 154" cx="15.506" cy="15.506" rx="15.506" ry="15.506" transform="translate(0)" fill="#a5a5a5"/>
          <path id="Path_1187" data-name="Path 1187" d="M608.36,553.543a11.929,11.929,0,0,0,4.8,9.56,11.8,11.8,0,0,0,2.2,1.29,11.593,11.593,0,0,0,4.924,1.075,11.913,11.913,0,0,0,0-23.826,11.637,11.637,0,0,0-4.947,1.075,12.319,12.319,0,0,0-2.175,1.291A11.874,11.874,0,0,0,608.36,553.543Z" transform="translate(-604.768 -538.039)" fill="#3f3f3f"/>
          <path id="Path_1188" data-name="Path 1188" d="M611.026,552.32a8.026,8.026,0,0,0,3.234,6.434,7.891,7.891,0,0,0,1.48.868,7.786,7.786,0,0,0,3.313.725,8.019,8.019,0,0,0,0-16.037,7.827,7.827,0,0,0-3.329.724,8.222,8.222,0,0,0-1.464.869A7.992,7.992,0,0,0,611.026,552.32Z" transform="translate(-603.539 -536.81)" fill="#262626"/>
        </g>
        <g id="Group_717" data-name="Group 717" transform="translate(18.378 29.799)">
          <ellipse id="Ellipse_155" data-name="Ellipse 155" cx="15.506" cy="15.506" rx="15.506" ry="15.506" fill="#a5a5a5"/>
          <path id="Path_1189" data-name="Path 1189" d="M642.482,553.543a11.929,11.929,0,0,0,4.8,9.56,11.8,11.8,0,0,0,2.2,1.29,11.593,11.593,0,0,0,4.924,1.075,11.913,11.913,0,0,0,0-23.826,11.637,11.637,0,0,0-4.947,1.075,12.319,12.319,0,0,0-2.175,1.291A11.875,11.875,0,0,0,642.482,553.543Z" transform="translate(-638.89 -538.039)" fill="#3f3f3f"/>
          <path id="Path_1190" data-name="Path 1190" d="M645.148,552.32a8.026,8.026,0,0,0,3.234,6.434,7.9,7.9,0,0,0,1.48.868,7.786,7.786,0,0,0,3.313.725,8.019,8.019,0,0,0,0-16.037,7.828,7.828,0,0,0-3.329.724,8.23,8.23,0,0,0-1.464.869A7.992,7.992,0,0,0,645.148,552.32Z" transform="translate(-637.661 -536.81)" fill="#262626"/>
        </g>
        <g id="Group_718" data-name="Group 718" transform="translate(10.066 20.646)">
          <rect id="Rectangle_528" data-name="Rectangle 528" width="10.616" height="10.616" transform="translate(91.794 15.013) rotate(-135.001)" fill="#b7b7b7"/>
          <rect id="Rectangle_529" data-name="Rectangle 529" width="10.616" height="10.616" transform="translate(7.506 15.013) rotate(-135)" fill="#b7b7b7"/>
        </g>
        <g id="Group_719" data-name="Group 719" transform="translate(11.055 19.644)">
          <rect id="Rectangle_530" data-name="Rectangle 530" width="10.616" height="10.616" transform="translate(91.794 15.013) rotate(-135.001)" fill="#efefef"/>
          <rect id="Rectangle_531" data-name="Rectangle 531" width="10.616" height="10.616" transform="translate(7.506 15.013) rotate(-135)" fill="#efefef"/>
        </g>
        <ellipse id="Ellipse_156" data-name="Ellipse 156" cx="6.14" cy="6.219" rx="6.14" ry="6.219" transform="translate(59.484 107.187)" fill="#2a2a2a"/>
        <ellipse id="Ellipse_157" data-name="Ellipse 157" cx="6.14" cy="6.219" rx="6.14" ry="6.219" transform="translate(39.872 107.187)" fill="#2a2a2a"/>
      </g>
      <g id="Group_721" data-name="Group 721" transform="translate(2.453 81.646)">
        <path id="Rectangle_532" data-name="Rectangle 532" d="M4.482,0h69.01a1.345,1.345,0,0,1,1.345,1.345V16.223a4.482,4.482,0,0,1-4.482,4.482H4.482A4.482,4.482,0,0,1,0,16.223V4.482A4.482,4.482,0,0,1,4.482,0Z" transform="translate(97.918 37.957)" fill="#6c6c6c"/>
        <path id="Path_1191" data-name="Path 1191" d="M632.782,575.44l31.356,14.541H819.284v5.505h33.922a27.306,27.306,0,1,1,0,54.612H677.569a7.8,7.8,0,0,1-3.235-.765l-41.552-19.257a15.325,15.325,0,0,1-6.3-5.976,18.974,18.974,0,0,1-2.937-9.7V582.576C623.549,576.28,627.673,573.094,632.782,575.44Zm212.745,32.466a4.424,4.424,0,0,0-3.184-1.334,4.531,4.531,0,0,0-3.186,7.727,4.676,4.676,0,0,0,3.186,1.284,4.467,4.467,0,0,0,4.518-4.493A4.465,4.465,0,0,0,845.527,607.906Zm13.282-1.827a4.515,4.515,0,0,0-4.518-4.493h-.025a4.5,4.5,0,0,0-4.493,4.543,4.56,4.56,0,0,0,1.334,3.184,4.438,4.438,0,0,0,3.16,1.309h.025a4.515,4.515,0,0,0,4.518-4.493Zm10.617,1.728a4.471,4.471,0,0,0-3.184-1.334,4.6,4.6,0,0,0-3.209,1.358,4.545,4.545,0,0,0,.025,6.4,4.518,4.518,0,0,0,7.727-3.209A4.49,4.49,0,0,0,869.426,607.807Zm5.012,18.418a4.577,4.577,0,0,0,1.334-3.209v-.075a4.511,4.511,0,0,0-4.543-4.518,4.5,4.5,0,0,0-4.493,4.518v.075a4.521,4.521,0,0,0,7.7,3.209Zm-11.332,11.95a4.564,4.564,0,0,0,6.4,0,4.531,4.531,0,0,0-6.4-6.42A4.531,4.531,0,0,0,863.105,638.175Zm-8.764,6.271h.025a4.419,4.419,0,0,0,3.161-1.334,4.359,4.359,0,0,0,1.357-3.185,4.654,4.654,0,0,0-1.357-3.211,4.447,4.447,0,0,0-3.161-1.309,4.519,4.519,0,0,0-.025,9.038Zm-.025-14a7.461,7.461,0,0,0,7.457-7.406v-.124a7.431,7.431,0,0,0-14.863,0v.124a7.326,7.326,0,0,0,2.172,5.259A7.415,7.415,0,0,0,854.316,630.446Zm-15.11,7.753a4.564,4.564,0,0,0,6.4,0,4.59,4.59,0,0,0,0-6.42,4.516,4.516,0,0,0-3.186-1.334,4.543,4.543,0,0,0-3.209,7.753Zm-4.962-11.95a4.313,4.313,0,0,0,3.184,1.309,4.5,4.5,0,0,0,4.518-4.493v-.025a4.439,4.439,0,0,0-1.332-3.186,4.513,4.513,0,1,0-6.37,6.395Zm-52.868-5.974h20.294v12.27a4.543,4.543,0,0,0,9.086,0V616.967a5.79,5.79,0,0,0-5.8-5.777H781.377a4.543,4.543,0,1,0,0,9.086ZM634.61,580.7a5.219,5.219,0,0,0-2-.444,4.865,4.865,0,1,0,4.444,6.862,4.654,4.654,0,0,0,.421-1.975A4.876,4.876,0,0,0,634.61,580.7Zm13.653,6.074a5.069,5.069,0,0,0-1.975-.419,4.952,4.952,0,0,0-4.47,2.863,5.1,5.1,0,0,0-.419,1.975,4.867,4.867,0,0,0,9.308,2.025,5.063,5.063,0,0,0,.421-1.975A4.936,4.936,0,0,0,648.263,586.772Zm14.666,6.69a4.632,4.632,0,0,0-1.952-.419,4.877,4.877,0,0,0-4.444,2.863,4.846,4.846,0,0,0,8.839,3.976,4.661,4.661,0,0,0,.419-1.975A4.852,4.852,0,0,0,662.929,593.463Zm0,17.282L634.412,597.98a4.857,4.857,0,0,0-3.975,8.864l28.54,12.74a4.842,4.842,0,0,0,3.951-8.84Zm-4.4,24.467a4.808,4.808,0,0,0,6.395-2.419,4.715,4.715,0,0,0,.444-2,4.838,4.838,0,0,0-2.864-4.419,4.734,4.734,0,0,0-1.975-.421,4.876,4.876,0,0,0-4.443,2.865,4.657,4.657,0,0,0-.419,1.975A4.811,4.811,0,0,0,658.533,635.211Zm-14.69-6.64a4.876,4.876,0,0,0,6.42-2.445,5.066,5.066,0,0,0,.419-1.975,4.875,4.875,0,0,0-2.863-4.444,4.666,4.666,0,0,0-1.976-.421,4.868,4.868,0,0,0-4.443,2.84,5.224,5.224,0,0,0-.444,2A4.86,4.86,0,0,0,643.843,628.571Zm-13.627-6.1a4.852,4.852,0,1,0,3.95-8.864,5.205,5.205,0,0,0-1.975-.444,4.883,4.883,0,0,0-4.42,2.864,4.651,4.651,0,0,0-.419,1.975A4.885,4.885,0,0,0,630.216,622.472Z" transform="translate(-623.549 -574.669)" fill="#7c09b2"/>
      </g>
      <rect id="Rectangle_533" data-name="Rectangle 533" width="24.726" height="13.545" transform="translate(241.057 157.086)" fill="#2a2a2a"/>
      <rect id="Rectangle_534" data-name="Rectangle 534" width="24.726" height="13.545" transform="translate(234.702 157.086)" fill="#383838"/>
      <rect id="Rectangle_535" data-name="Rectangle 535" width="3.841" height="7.241" transform="translate(266.671 157.086)" fill="#383838"/>
      <rect id="Rectangle_536" data-name="Rectangle 536" width="3.841" height="7.241" transform="translate(271.653 157.086)" fill="#383838"/>
      <rect id="Rectangle_537" data-name="Rectangle 537" width="34.426" height="2.351" transform="translate(243.905 157.086)" fill="#2a2a2a"/>
      <rect id="Rectangle_538" data-name="Rectangle 538" width="37.146" height="2.351" transform="translate(229.524 157.086)" fill="#383838"/>
      <rect id="Rectangle_539" data-name="Rectangle 539" width="31.081" height="2.464" transform="translate(234.702 170.631)" fill="#f4f4f4"/>
      <rect id="Rectangle_540" data-name="Rectangle 540" width="82.533" height="43.176" rx="8" transform="translate(244.461 108.604)" fill="#d6d6d6"/>
      <rect id="Rectangle_541" data-name="Rectangle 541" width="44.713" height="43.176" rx="8" transform="translate(250.867 108.604)" fill="#a5a5a5"/>
      <g id="Group_726" data-name="Group 726" transform="translate(40.189 77.574)">
        <g id="Group_723" data-name="Group 723" transform="translate(7.961 8.374)">
          <ellipse id="Ellipse_158" data-name="Ellipse 158" cx="26.477" cy="26.477" rx="26.477" ry="26.477" transform="translate(17.519 17.275)" fill="#3f3f3f"/>
          <path id="Path_1192" data-name="Path 1192" d="M750.062,581.56a37.994,37.994,0,1,1-37.995,37.993A38,38,0,0,1,750.062,581.56Zm-14.539,44.7a15.844,15.844,0,0,1-1.277-4.251l-9.512-.117a25.2,25.2,0,0,0,2.657,9.192Zm-1.484-8.091h.094a15.936,15.936,0,0,1,1.03-4.464l-8.176-4.855a25.218,25.218,0,0,0-2.324,9.425Zm-5.311-12.482,8.182,4.594.09.045a16.02,16.02,0,0,1,3.247-3.4l-4.655-8.291A25.39,25.39,0,0,0,728.728,605.691Zm14.956,18.278a7.559,7.559,0,0,0,2.517,2.3,2.711,2.711,0,0,0,.394.213,7.338,7.338,0,0,0,3.243.811,1.421,1.421,0,0,0,.223.012,1.438,1.438,0,0,0,.225-.012,7.234,7.234,0,0,0,3.241-.821,1.866,1.866,0,0,0,.394-.2,7.759,7.759,0,0,0,2.518-2.3,4.08,4.08,0,0,0,.224-.362,7.422,7.422,0,0,0,1.109-3.36,2.694,2.694,0,0,0,.032-.427,2.331,2.331,0,0,0,.01-.267,7.665,7.665,0,0,0-.746-3.316,3.889,3.889,0,0,0-.191-.374,7.69,7.69,0,0,0-2.549-2.783,3.6,3.6,0,0,0-.362-.213,7.5,7.5,0,0,0-3.691-1.056,1.956,1.956,0,0,0-.426,0,7.612,7.612,0,0,0-3.69,1.044,2.455,2.455,0,0,0-.362.225,7.515,7.515,0,0,0-2.549,2.783,3.348,3.348,0,0,0-.193.384,7.639,7.639,0,0,0-.746,3.306,2.029,2.029,0,0,0,.012.267,2.708,2.708,0,0,0,.032.427,7.353,7.353,0,0,0,1.1,3.349C743.525,623.724,743.6,623.852,743.684,623.969Zm-.158-19.02a15.778,15.778,0,0,1,4.623-1.278l.111-9.492a25.24,25.24,0,0,0-9.566,2.62Zm8.449-1.278a15.841,15.841,0,0,1,4.622,1.278l4.833-8.149a25.24,25.24,0,0,0-9.566-2.62Zm4.115,30.713a16.029,16.029,0,0,1-4.1,1.047l-.112,9.5a25.106,25.106,0,0,0,9.059-2.378Zm-7.955,1.049a15.907,15.907,0,0,1-4.1-1.047l-4.844,8.164a25.1,25.1,0,0,0,9.059,2.378Zm16.4-36.8-4.654,8.292a16.1,16.1,0,0,1,3.246,3.4l8.271-4.642A25.491,25.491,0,0,0,764.532,598.637Zm.418,15.073a15.835,15.835,0,0,1,1.03,4.461l9.482.108a25.222,25.222,0,0,0-2.323-9.426Zm1.115,8.3-.2,0a15.676,15.676,0,0,1-1.271,4.245l8.145,4.835a25.159,25.159,0,0,0,2.656-9.191Zm4.8,12.182-8.3-4.662a15.878,15.878,0,0,1-3.108,2.967l4.644,8.271A25.6,25.6,0,0,0,770.864,634.193Zm-34.834,6.575,4.585-8.167.066-.095a15.986,15.986,0,0,1-3.122-2.967l-8.3,4.655A25.522,25.522,0,0,0,736.03,640.767Z" transform="translate(-706.066 -575.797)" fill="#a5a5a5"/>
          <g id="Group_722" data-name="Group 722">
            <path id="Path_1193" data-name="Path 1193" d="M708.657,605.012l13.589-2.772-13.68,2.3A3.162,3.162,0,0,1,708.657,605.012Z" transform="translate(-635.142 -566.27)" fill="#a5a5a5"/>
            <path id="Path_1194" data-name="Path 1194" d="M708.262,610.413l13.865,1.364-13.808-1.857A3.533,3.533,0,0,1,708.262,610.413Z" transform="translate(-634.579 -562.731)" fill="#a5a5a5"/>
            <path id="Path_1195" data-name="Path 1195" d="M711.721,600.411l12.095-6.623L711.5,599.974C711.574,600.116,711.653,600.256,711.721,600.411Z" transform="translate(-640.993 -570.164)" fill="#a5a5a5"/>
            <path id="Path_1196" data-name="Path 1196" d="M710.6,616.263l12.91,5.413-12.724-5.871A3.7,3.7,0,0,1,710.6,616.263Z" transform="translate(-639.374 -560.02)" fill="#a5a5a5"/>
            <path id="Path_1197" data-name="Path 1197" d="M717.121,596.426l9.587-9.86-9.924,9.522A3.674,3.674,0,0,1,717.121,596.426Z" transform="translate(-651.606 -573.491)" fill="#a5a5a5"/>
            <path id="Path_1198" data-name="Path 1198" d="M715.721,620.953c-.111.124-.221.261-.333.374l10.795,9.02Z" transform="translate(-649.044 -557.648)" fill="#a5a5a5"/>
            <path id="Path_1199" data-name="Path 1199" d="M724.391,593.434l6.23-12.2-6.654,11.975A4.015,4.015,0,0,1,724.391,593.434Z" transform="translate(-666.013 -575.949)" fill="#a5a5a5"/>
            <path id="Path_1200" data-name="Path 1200" d="M722.624,624.929c-.14.091-.292.181-.432.26l7.678,11.827Z" transform="translate(-662.669 -555.817)" fill="#a5a5a5"/>
            <path id="Path_1201" data-name="Path 1201" d="M735.226,578.249l-2.818,13.367a3.255,3.255,0,0,1,.473.1Z" transform="translate(-682.948 -577.323)" fill="#a5a5a5"/>
            <path id="Path_1202" data-name="Path 1202" d="M730.89,627.372c-.158.042-.327.086-.487.117l3.859,13.591Z" transform="translate(-679.056 -554.691)" fill="#a5a5a5"/>
            <path id="Path_1203" data-name="Path 1203" d="M740.171,577.886l1.239,13.6.172-.019a2.728,2.728,0,0,1,.31-.023Z" transform="translate(-700.954 -577.49)" fill="#a5a5a5"/>
            <path id="Path_1204" data-name="Path 1204" d="M739.064,628.06l-.324,14.124.814-14.1A3.225,3.225,0,0,1,739.064,628.06Z" transform="translate(-696.525 -554.374)" fill="#a5a5a5"/>
            <path id="Path_1205" data-name="Path 1205" d="M746.132,580.172l5.2,12.643c.155-.067.3-.133.453-.189Z" transform="translate(-719.554 -576.437)" fill="#a5a5a5"/>
            <path id="Path_1206" data-name="Path 1206" d="M749.167,626.876,744.7,640.265l4.943-13.22A3.783,3.783,0,0,1,749.167,626.876Z" transform="translate(-715.33 -554.92)" fill="#a5a5a5"/>
            <path id="Path_1207" data-name="Path 1207" d="M760.1,595.485a4.469,4.469,0,0,1,.364-.316l-9.087-10.259Z" transform="translate(-735.883 -574.254)" fill="#a5a5a5"/>
            <path id="Path_1208" data-name="Path 1208" d="M758.307,623.991l-8.2,11.451,8.593-11.147C758.568,624.2,758.444,624.1,758.307,623.991Z" transform="translate(-732.281 -556.249)" fill="#a5a5a5"/>
            <path id="Path_1209" data-name="Path 1209" d="M767.163,598.828,755.4,591.676l11.493,7.568A2.858,2.858,0,0,1,767.163,598.828Z" transform="translate(-748.476 -571.137)" fill="#a5a5a5"/>
            <path id="Path_1210" data-name="Path 1210" d="M765.627,619.67l-11.163,8.49,11.445-8.084A3.685,3.685,0,0,1,765.627,619.67Z" transform="translate(-745.849 -558.24)" fill="#a5a5a5"/>
            <path id="Path_1211" data-name="Path 1211" d="M771.285,603.246l-13.392-3.376,13.259,3.853C771.2,603.568,771.228,603.4,771.285,603.246Z" transform="translate(-756.234 -567.362)" fill="#a5a5a5"/>
            <path id="Path_1212" data-name="Path 1212" d="M770.469,614.273l-13.1,4.8,13.263-4.332A3.591,3.591,0,0,1,770.469,614.273Z" transform="translate(-754.821 -560.726)" fill="#a5a5a5"/>
            <path id="Path_1213" data-name="Path 1213" d="M772.45,608.265l-13.868.72,13.886-.235A3.356,3.356,0,0,1,772.45,608.265Z" transform="translate(-758.423 -563.494)" fill="#a5a5a5"/>
            <path id="Path_1214" data-name="Path 1214" d="M709.321,609.067l13.845-2.826-1.12-6.088-13.9,2.321a25.753,25.753,0,0,1,.726,3.025,3.164,3.164,0,0,1,.091.476c.1.551.174,1.1.238,1.671C709.254,608.126,709.293,608.6,709.321,609.067Z" transform="translate(-635.446 -567.232)" fill="#a5a5a5"/>
            <path id="Path_1215" data-name="Path 1215" d="M707.978,614.45l14.116,1.385.719-6.157L708.79,607.8a28.005,28.005,0,0,1-.2,3.1,3.526,3.526,0,0,1-.057.492A29.506,29.506,0,0,1,707.978,614.45Z" transform="translate(-634.85 -563.71)" fill="#a5a5a5"/>
            <path id="Path_1216" data-name="Path 1216" d="M713.551,604.116l12.331-6.737-2.875-5.492-12.53,6.3a24.436,24.436,0,0,1,1.6,2.666c.077.142.156.282.223.437A29.3,29.3,0,0,1,713.551,604.116Z" transform="translate(-641.569 -571.04)" fill="#a5a5a5"/>
            <path id="Path_1217" data-name="Path 1217" d="M709.713,619.938l13.157,5.51,2.5-5.669-12.91-5.963a25.19,25.19,0,0,1-1.109,2.907,3.706,3.706,0,0,1-.186.457A30.537,30.537,0,0,1,709.713,619.938Z" transform="translate(-639.937 -560.936)" fill="#a5a5a5"/>
            <path id="Path_1218" data-name="Path 1218" d="M719.959,599.469l9.752-10.041-4.36-4.388-10.082,9.666a24.356,24.356,0,0,1,2.3,2.086,3.658,3.658,0,0,1,.338.337A25.4,25.4,0,0,1,719.959,599.469Z" transform="translate(-652.396 -574.194)" fill="#a5a5a5"/>
            <path id="Path_1219" data-name="Path 1219" d="M713.968,624.318l10.988,9.185,4.065-4.686L718.38,619.27a26.354,26.354,0,0,1-1.895,2.458c-.111.124-.221.261-.333.374A26.051,26.051,0,0,1,713.968,624.318Z" transform="translate(-649.807 -558.424)" fill="#a5a5a5"/>
            <path id="Path_1220" data-name="Path 1220" d="M727.967,595.546l6.341-12.428-5.469-2.917-6.757,12.162a27.8,27.8,0,0,1,2.819,1.318,4.008,4.008,0,0,1,.424.228A27.615,27.615,0,0,1,727.967,595.546Z" transform="translate(-666.947 -576.423)" fill="#a5a5a5"/>
            <path id="Path_1221" data-name="Path 1221" d="M723.1,625.755a26.329,26.329,0,0,1-2.73,1.467l7.815,12.049,5.259-3.285-7.38-12.285c-.815.64-1.659,1.233-2.531,1.794C723.389,625.585,723.237,625.676,723.1,625.755Z" transform="translate(-663.574 -556.382)" fill="#a5a5a5"/>
            <path id="Path_1222" data-name="Path 1222" d="M736.873,592.685l2.393-13.706-6.082-1.164-2.866,13.6a24.3,24.3,0,0,1,3.076.4,3.245,3.245,0,0,1,.473.1A26.3,26.3,0,0,1,736.873,592.685Z" transform="translate(-683.933 -577.523)" fill="#a5a5a5"/>
            <path id="Path_1223" data-name="Path 1223" d="M731.393,627.794a25.615,25.615,0,0,1-3.051.6l3.923,13.833,6-1.583-3.424-13.94a30.786,30.786,0,0,1-2.961.969C731.721,627.72,731.552,627.764,731.393,627.794Z" transform="translate(-680.045 -554.997)" fill="#a5a5a5"/>
            <path id="Path_1224" data-name="Path 1224" d="M739.305,592.127c1-.225,2.016-.388,3.062-.519l.172-.019a2.742,2.742,0,0,1,.31-.023,26.078,26.078,0,0,1,3.113-.162L744.2,577.615l-6.163.679Z" transform="translate(-701.911 -577.615)" fill="#a5a5a5"/>
            <path id="Path_1225" data-name="Path 1225" d="M736.933,627.855l-.323,14.359,6.19.241.836-14.343a27.764,27.764,0,0,1-3.111.063,3.225,3.225,0,0,1-.489-.02A26.966,26.966,0,0,1,736.933,627.855Z" transform="translate(-697.496 -554.469)" fill="#a5a5a5"/>
            <path id="Path_1226" data-name="Path 1226" d="M752.654,593.029a24.22,24.22,0,0,1,2.911-1.075L749.827,579.3l-5.688,2.46,5.288,12.87a28.909,28.909,0,0,1,2.774-1.409C752.356,593.15,752.5,593.085,752.654,593.029Z" transform="translate(-720.423 -576.84)" fill="#a5a5a5"/>
            <path id="Path_1227" data-name="Path 1227" d="M747.207,626.053l-4.549,13.611,5.846,2.064,5.028-13.465a24.068,24.068,0,0,1-2.989-.839,3.784,3.784,0,0,1-.481-.169A25.214,25.214,0,0,1,747.207,626.053Z" transform="translate(-716.226 -555.299)" fill="#a5a5a5"/>
            <path id="Path_1228" data-name="Path 1228" d="M763.633,593.932,754.4,583.5l-4.714,4.035,8.894,10.768a26.028,26.028,0,0,1,2.228-2.172,4.469,4.469,0,0,1,.364-.316A27.072,27.072,0,0,1,763.633,593.932Z" transform="translate(-736.598 -574.902)" fill="#a5a5a5"/>
            <path id="Path_1229" data-name="Path 1229" d="M756.639,622.636l-8.326,11.627,4.968,3.7,8.758-11.351a28.334,28.334,0,0,1-2.623-1.69c-.134-.1-.259-.194-.4-.3A26.479,26.479,0,0,1,756.639,622.636Z" transform="translate(-732.994 -556.873)" fill="#a5a5a5"/>
            <path id="Path_1230" data-name="Path 1230" d="M769.435,597.13l-11.944-7.269-3.317,5.25,11.706,7.7a27.564,27.564,0,0,1,1.491-2.726,2.861,2.861,0,0,1,.266-.416A24,24,0,0,1,769.435,597.13Z" transform="translate(-748.949 -571.973)" fill="#a5a5a5"/>
            <path id="Path_1231" data-name="Path 1231" d="M764.42,617.9l-11.335,8.621,3.666,4.991,11.665-8.234a30.724,30.724,0,0,1-2.014-2.381,3.693,3.693,0,0,1-.282-.406A23,23,0,0,1,764.42,617.9Z" transform="translate(-746.342 -559.057)" fill="#a5a5a5"/>
            <path id="Path_1232" data-name="Path 1232" d="M772.457,601.24l-13.61-3.427-1.624,5.985,13.516,3.923a29.448,29.448,0,0,1,.606-3.05c.045-.155.076-.321.133-.478A24.551,24.551,0,0,1,772.457,601.24Z" transform="translate(-756.427 -568.309)" fill="#a5a5a5"/>
            <path id="Path_1233" data-name="Path 1233" d="M769.859,612.229,756.544,617.1l2.03,5.86,13.516-4.411a27.643,27.643,0,0,1-1.208-2.87,3.59,3.59,0,0,1-.165-.469A25.2,25.2,0,0,1,769.859,612.229Z" transform="translate(-755.069 -561.668)" fill="#a5a5a5"/>
            <path id="Path_1234" data-name="Path 1234" d="M772.448,606.134l-14.078.744.207,6.19,14.147-.24c-.058-.418-.118-.836-.165-1.255-.069-.616-.114-1.234-.145-1.842a3.366,3.366,0,0,1-.018-.485A25.43,25.43,0,0,1,772.448,606.134Z" transform="translate(-758.37 -564.476)" fill="#a5a5a5"/>
          </g>
        </g>
        <path id="Path_1235" data-name="Path 1235" d="M659.068,673.251h138.25a49.934,49.934,0,1,0,0-99.868H659.068a49.934,49.934,0,1,0,0,99.868Zm138.25-94.025a44.091,44.091,0,1,1,0,88.182H659.068a44.091,44.091,0,1,1,0-88.182Z" transform="translate(-606.943 -571.19)" fill="#2d2d2d"/>
        <path id="Path_1236" data-name="Path 1236" d="M657.233,577.383h5.843v7.3h-5.843v-7.3Zm13.146,0h5.843v7.3h-5.843v-7.3Zm13.146,0h5.843v7.3h-5.843v-7.3Zm13.146,0h5.843v7.3h-5.843v-7.3Zm13.146,0h5.843v7.3h-5.843v-7.3Zm13.146,0h5.843v7.3h-5.843v-7.3Zm13.146,0h5.843v7.3h-5.843v-7.3Zm13.146,0H755.1v7.3h-5.843v-7.3Zm13.146,0h5.843v7.3H762.4v-7.3Zm13.146,0h5.843v7.3h-5.843v-7.3Zm13.146,0h5.843v7.3H788.7v-7.3Zm13.126.454a43.993,43.993,0,0,1,4.367.86h0l.032.009h0l.029.007h0l.031.007,0,0,.026.006.006,0,.028.007.01,0,.021,0,.009,0,.026.006.012,0,.016,0,.013,0,.023.006.018,0,.009,0,.058.016h.006q.482.125.96.261l-2,7.025a36.563,36.563,0,0,0-4.756-1.017l1.046-7.228Zm12.534,3.794.007,0,.026.013.016.007.028.013.016.007.02.01.016.007.031.015.018.009.02.01.018.009.02.009.016.009.032.015.019.01.016.007.02.01.015.007.038.017.012.006.022.012.013.006.022.01.01.006.045.022.009,0,.025.012.009,0,.08.039.006,0,.026.013,0,0,.083.041.006,0,.115.058h0q1.433.721,2.8,1.54v0l.111.067,0,0,.079.048.006,0,.025.015.007.006.045.026.007,0,.02.013.012.007.021.013.013.007.035.02.015.01.019.01.015.01.018.01.023.015.022.013.02.013.015.009.02.013.013.007.032.02.013.007.022.015.013.007.029.019,0,0,.035.02.009.006.028.018.009.006.035.022h0l.034.022.007,0,.034.022h0l.076.048h0c.153.1.307.2.459.294l-3.981,6.123a37.044,37.044,0,0,0-4.251-2.379l3.136-6.6Zm10.863,7.318c.421.384.831.776,1.236,1.176h0l.069.07h0l.092.091,0,.006.064.064,0,0,.02.02,0,0,.064.064,0,.006.064.064,0,0,.019.02.007.007.061.061.007.007.018.019.009.007.032.034.009.009.018.019.009.009.019.019,0,0,.035.037.009.009.018.018.01.01.055.058.012.012.016.016.01.01.029.032.01.01.016.016.012.012.016.018.009.009.029.031.012.012.015.016.013.014.023.023.015.016.015.016.013.013.015.015.015.016.022.023.015.015.013.014.015.015.013.015.023.025.015.014.013.015.014.015.015.016.015.016.022.023.013.013.015.016.012.013.022.023.013.013.018.02.012.013.016.016.012.013.025.026.012.013.016.018.012.012.019.022.009.009.025.026.01.012.017.02.01.01.026.028.007.009.02.022.01.01.019.022.009.009.026.029.007.009.02.022.009.01.023.026.006.006.025.026.009.01.019.022.009.01.026.028.007.009.02.022.009.01.02.023.007.007.026.029.007.009.021.023.009.009.026.031h0l.026.029.007.009.023.025,0,.006.028.031,0,.006.023.025.007.009.025.028,0,0,.028.032.006.006.023.026.006.006.056.064.006.006.025.029,0,0,.028.032,0,0,.026.031,0,0,.059.066v0l.028.031,0,0,.058.067,0,0,.086.1,0,0c.089.1.177.209.266.313l-5.595,4.7a37.517,37.517,0,0,0-3.376-3.523l4.93-5.389Zm8.255,10.171a44.038,44.038,0,0,1,2.594,5.129h0l.035.085-6.725,2.848a36.918,36.918,0,0,0-2.193-4.347l6.288-3.715Zm4.905,12.144a43.708,43.708,0,0,1,.97,5.757l-7.267.733a36.624,36.624,0,0,0-.808-4.8l7.1-1.69Zm-6.186,12.587,7.289.466q-.072,1.1-.2,2.2v0l-.009.067h0q-.112.966-.264,1.918v0c-.015.089-.029.178-.045.267h0l-.007.042v0l-.01.064v0l0,.02v0l-.007.037v.009l0,.019h0l-.007.039v.007l0,.018,0,.016,0,.023,0,.013,0,.015,0,.025,0,.013,0,.015,0,.015,0,.025v.013l0,.018v.012l0,.026,0,.01,0,.022v.007l-.006.029v.007l0,.029h0l-.006.032v0l-.012.064v0c-.04.212-.079.424-.121.634l-7.163-1.427a36.882,36.882,0,0,0,.632-4.828Zm-2.312,10.666,6.826,2.6c-.07.181-.139.359-.21.539h0l-.012.029v0l-.035.089,0,.006-.01.028v0l-.022.052,0,.009-.009.023-.006.013-.009.023-.006.013-.015.038-.007.018-.009.019-.007.019-.007.018-.013.034-.006.015-.01.023-.006.016-.012.026,0,.01-.015.036,0,.012-.012.028,0,.012-.015.035,0,0-.016.038,0,.009-.015.032,0,.007-.032.079,0,.006-.016.038h0l-.035.085h0q-.828,1.959-1.838,3.818l-6.421-3.482a36.761,36.761,0,0,0,2.032-4.423Zm-5.367,9.52,5.761,4.49c-.473.606-.963,1.2-1.467,1.782l0,0-.02.023h0l-.063.073,0,0-.085.1,0,0-.063.07,0,0-.02.022v0l-.063.072,0,0-.063.07,0,0-.02.023,0,0-.061.069-.006,0-.019.022,0,0-.041.045v0l-.019.02-.006.007-.06.066-.006.006-.018.02-.007.007-.036.041,0,0-.017.019-.009.01-.017.019,0,0-.035.039-.007.007-.017.019-.009.009-.057.063-.007.009-.018.019-.007.007-.037.041,0,0-.017.019-.009.01-.017.017,0,.006-.034.036-.01.01-.016.018-.01.012-.055.058-.009.01-.017.018-.009.01-.031.034-.009.009-.016.018-.01.012-.016.016-.01.012-.029.031-.01.01-.016.017-.012.01-.032.035-.006.006-.017.017-.01.012-.016.017-.012.012-.025.026-.013.013-.016.016-.012.013-.015.016-.018.018-.02.022-.013.013-.015.016-.013.013-.019.02-.019.019-.015.015-.013.015-.015.015-.015.016-.022.022-.016.016-.013.015-.015.015-.013.013-.025.025-.012.013-.018.016-.012.013-.018.018-.013.015-.023.022-.012.013-.016.016-.013.013-.023.025-.01.01-.02.02-.012.012-.019.019-.009.009-.028.028-.009.01-.019.019-.01.01-.023.023-.007.007-.026.026-.01.009-.019.021-.01.009-.028.029-.006,0-.023.025-.009.009-.023.023-.006,0-.028.029-.009.007-.022.022-.009.009-.058.057-.007.009-.023.022,0,0-5.123-5.2a37.468,37.468,0,0,0,3.246-3.644Zm-7.927,7.549,4.2,5.974q-.5.353-1.015.692v0l-.037.023h0l-.072.048-.006,0-.034.022h0l-.035.022-.009.006-.026.017-.009.006-.034.022,0,0-.031.019-.012.009-.023.015-.012.007-.032.022-.01.006-.023.015-.013.01-.02.013-.015.009-.029.019-.018.01-.018.012-.015.01-.02.013-.025.016-.019.012-.018.012-.016.009-.018.012-.016.01-.032.02-.013.009-.02.013-.013.007-.069.044-.012.007-.02.013-.009.006-.044.028-.007,0-.022.013-.01.007-.073.045-.009.006-.022.013-.009.006-.076.047-.006,0-.025.015-.006,0-.047.029-.006,0-.023.015-.009,0-.023.015h0l-.05.031-.009,0-.022.015-.009,0-.073.045-.012.006-.022.015-.009,0-.048.029h0l-.023.015-.01.006-.023.013,0,0-.047.028-.009.006-.022.013-.012.007-.072.044-.01,0-.022.013-.01.007-.042.025-.009,0-.02.013-.013.007-.021.012-.012.007-.038.023-.012.006-.022.013-.012.007-.022.012,0,0-.045.026-.013.007-.02.012-.015.009-.031.019-.018.01-.019.01-.015.009-.02.012-.016.01-.029.016-.017.01-.019.01-.016.01-.018.01-.029.016-.019.012-.017.01-.018.01-.018.009-.023.015-.023.013-.019.01-.016.009-.019.012-.018.01-.026.015-.02.012-.018.01-.017.01-.018.009-.023.015-.023.013-.019.01-.018.009-.018.01-.016.01-.032.018-.015.009-.02.01-.016.01L816.9,660l-.022.012-.022.013-.018.009-.019.01-.018.01-.022.012-.025.015-.018.01-.017.009-.019.01-.018.01-.031.016-.016.01-.019.009-.018.01-.019.01-.026.015-.02.012-.018.009-.017.01-.018.009-.019.01-.032.017-.015.009-.02.01-.013.007-.072.039-.012.006-.023.012-.01.006-.047.026h0l-.023.013-.01,0-.082.044,0,0-.026.015-.006,0-.083.044h0l-.178.093-3.377-6.477a36.9,36.9,0,0,0,4.162-2.534Zm-9.768,4.889,2.257,6.946c-.33.108-.662.21-.995.31v0l-.039.012h0l-.019.006h-.006l-.034.01h-.007l-.018,0-.01,0-.028.007-.01,0-.016,0-.015,0-.016.006-.021.006-.013,0-.016.006-.016,0-.02.006-.01,0-.022.006-.007,0-.028.007-.007,0-.025.007h0l-.029.009-.007,0-.026.007h0l-.029.009h-.006l-.026.007h0l-.031.009h0l-.032.009h0l-.031.009h0q-1.976.559-4.023.932l-1.312-7.184a36.5,36.5,0,0,0,4.715-1.19Zm-10.774,1.782.109,7.3-.039,0h-.384l-.037,0h-5.383v-7.3h5.169c.188,0,.377,0,.564,0Zm-18.88,0h5.843v7.3h-5.843v-7.3Zm-13.147,0h5.843v7.3H764.02v-7.3Zm-13.146,0h5.843v7.3h-5.843v-7.3Zm-13.146,0h5.843v7.3h-5.843v-7.3Zm-13.147,0h5.843v7.3h-5.843v-7.3Zm-13.146,0h5.843v7.3h-5.843v-7.3Zm-13.146,0h5.843v7.3h-5.843v-7.3Zm-13.147,0h5.843v7.3h-5.843v-7.3Zm-13.146,0h5.843v7.3h-5.843v-7.3Zm-13.146,0h5.843v7.3h-5.843v-7.3Zm-11.126-1.246a36.665,36.665,0,0,0,4.772.942l-.935,7.244q-1.413-.182-2.8-.453h0l-.066-.013h0l-.063-.013-.006,0-.061-.012-.007,0-.029-.006,0,0-.025,0h-.009l-.028-.006h-.007l-.022,0-.012,0-.026,0-.01,0-.018,0-.015,0-.016,0-.02,0-.016,0-.015,0-.015,0-.025-.006h-.012l-.016,0-.012,0-.029-.006-.009,0-.019,0-.007,0-.034-.007H648.1l-.061-.013h-.006l-.063-.013h0l-.066-.015h0q-1.045-.226-2.071-.5l1.89-7.055Zm-10-4.37A36.809,36.809,0,0,0,642,654.959l-3.035,6.642c-.117-.053-.231-.105-.348-.161h0l-.082-.038-.01-.006-.023-.01-.012-.006-.038-.018-.016-.007-.019-.009-.017-.009-.018-.009-.034-.016-.01,0-.026-.013-.015-.006-.026-.013-.009,0-.038-.019-.006,0-.034-.016-.007,0-.077-.038h0l-.039-.019h0l-.082-.039h0a43.991,43.991,0,0,1-4.143-2.3l3.888-6.182Zm-8.3-7.131a37.325,37.325,0,0,0,3.428,3.472l-4.848,5.463a44.784,44.784,0,0,1-4.1-4.154l5.523-4.781Zm-5.856-9.233a36.943,36.943,0,0,0,2.26,4.313l-6.232,3.81a43.9,43.9,0,0,1-2.708-5.171l6.68-2.952Zm-2.866-10.529a36.75,36.75,0,0,0,.882,4.785l-7.079,1.8a44.069,44.069,0,0,1-.906-4.568h0l-.009-.069h0l-.009-.067v0l-.01-.066v0l-.009-.066v0l0-.032v0l0-.029v-.006l0-.031v0l0-.026v-.007l0-.031v0l0-.028v-.007l0-.029,0-.007,0-.025v-.009l0-.028v-.009l0-.022v-.01l0-.028v-.01l0-.019,0-.013,0-.026,0-.012,0-.018,0-.012,0-.028v-.012l0-.018v-.013l0-.026V626.9l0-.016,0-.013,0-.025,0-.016v-.013l0-.023v-.016l0-.016v-.012l0-.025v-.016l0-.016v-.013l0-.025,0-.015v-.045l7.254-.843Zm-6.827-12.25,7.184,1.318a36.668,36.668,0,0,0-.558,4.838L613.2,619.3a43.912,43.912,0,0,1,.583-5.317h0l.006-.032h0l.006-.032v0l.006-.029v0l.006-.031v-.006l0-.028v0l.006-.028v-.009l0-.025v-.01l0-.023v-.012l0-.019,0-.018,0-.017,0-.013,0-.018,0-.02,0-.016,0-.015,0-.013,0-.026,0-.012,0-.016v0Zm4.264-12.384L624.6,604.5a36.46,36.46,0,0,0-1.962,4.454l-6.865-2.493q.235-.646.489-1.284v0l.032-.082v-.006l.016-.036,0,0,.016-.042v0l.016-.036,0-.009.013-.034,0-.006.016-.039,0-.006.013-.032,0-.01.015-.034v-.006l.016-.037,0-.012.012-.028,0-.012.015-.035,0-.009.013-.031.006-.013.01-.025.006-.015.015-.035.006-.012.01-.025.007-.016.009-.022.006-.016.015-.034.007-.018.009-.019.007-.019.009-.02.007-.019.013-.029.007-.019.009-.018.007-.02.007-.018.015-.034.007-.016.009-.022.007-.014.009-.022.006-.012.018-.041.006-.013.009-.022.006-.013.034-.077,0-.01.01-.025.006-.01.021-.05,0,0,.01-.025,0-.01.012-.025,0-.007.022-.05,0-.007.012-.025,0-.009.012-.026,0,0,.023-.051,0-.009.01-.025,0-.01.035-.078.006-.012.01-.023,0-.01.035-.078.006-.013.01-.022,0-.012.022-.047,0-.006.01-.025.006-.012.01-.023,0-.009.02-.045,0-.01.01-.022.007-.013.034-.074.006-.015.01-.019.007-.018.01-.02.013-.029.009-.019.009-.019.009-.017.009-.021.012-.022.012-.026.007-.016.01-.02.007-.016.012-.026.009-.018.013-.026.006-.015.012-.025.006-.012.018-.035,0-.01.013-.028.006-.012.013-.029,0-.007.017-.038,0-.006.016-.032,0-.009.037-.076v0l.018-.035v-.006l.039-.079h0q.267-.552.552-1.1Zm7.718-10.582,5.2,5.127a37.237,37.237,0,0,0-3.19,3.693l-5.828-4.4a44.5,44.5,0,0,1,3.5-4.09h0l.061-.064,0,0,.029-.029h0l.061-.063,0,0,.029-.031h0l.031-.031,0-.006.025-.025.006-.007.031-.029h0l.028-.029,0,0Zm10.472-7.87,3.475,6.424a37.013,37.013,0,0,0-4.124,2.6l-4.292-5.909q.515-.374,1.041-.735h0l.075-.05h0l.033-.023,0,0,.071-.048.006,0,.031-.021.006,0,.034-.023.006,0,.029-.019.01-.007.026-.017.007,0,.034-.022.01-.009.023-.014.013-.009.023-.016.019-.012.022-.015.015-.01.019-.012.016-.01.029-.02.015-.01.018-.012.018-.01.018-.012.023-.016.02-.013.019-.013.015-.009.019-.013.012-.007.038-.025.01-.007.02-.013.012-.007.02-.013.01-.006.039-.026.01-.007.022-.013.01-.007.072-.045.009-.006.023-.015.007-.006.044-.028.007,0,.022-.015.01-.006.073-.047.007,0,.023-.015.009-.006.073-.047.009-.006.023-.015.006,0,.047-.031.006,0,.022-.015.01-.006.022-.015h0l.047-.029.01-.006.022-.014.009,0,.073-.045.01-.007.022-.013.009-.006.045-.026.006,0,.022-.013.012-.009.022-.012.009-.006.039-.025.012-.007.02-.013.013-.007.045-.028h0l.02-.012.015-.01.019-.01.015-.01.032-.019.016-.01.018-.01.016-.01.018-.01.019-.012.028-.018.018-.009.018-.012.018-.01.016-.01.031-.017.016-.01.019-.01.016-.01.019-.012.022-.013.025-.015.016-.009.019-.012.015-.009.031-.019.012-.006.025-.015.015-.009.022-.013.013-.007.032-.019.012-.007.023-.015.015-.007.023-.015.012-.006.034-.02.01-.006.025-.015.012-.007.035-.019,0,0,.031-.018.012-.007.026-.016.009,0,.037-.02.006,0,.031-.019.009,0,.031-.018.006,0,.035-.021.007,0,.031-.018.009,0,.072-.042.009,0,.032-.018,0,0,.038-.022h0l.034-.019.007,0,.034-.019h0l.038-.022h0l.035-.019,0,0,.076-.042,0,0,.035-.019h0l.039-.022h0l.038-.022h0l.077-.042v0l.037-.02,0,0,.076-.041,0,0,.037-.019,0,0,.076-.042.006,0,.037-.02Zm12.321-4.443,1.42,7.165a36.519,36.519,0,0,0-4.7,1.262L643,579.739a43.765,43.765,0,0,1,5.64-1.516Zm8.593-.84v7.3q-.565,0-1.126.016l-.219-7.3.269-.007h.11q.294-.007.587-.009h.045l.036,0h.3Z" transform="translate(-605.109 -569.348)" fill="#2d2d2d"/>
        <g id="Group_725" data-name="Group 725" transform="translate(146.097 8.035)">
          <path id="Path_1237" data-name="Path 1237" d="M638.086,624.939a16.284,16.284,0,0,1-1.991-4.074l-9.609,1.453a25.761,25.761,0,0,0,4.2,8.83Zm-2.835-7.913.1-.013a16.2,16.2,0,0,1,.3-4.671L626.6,608.8a25.762,25.762,0,0,0-.785,9.885Zm-7.418-11.7,9.008,3.278.1.031a16.359,16.359,0,0,1,2.711-3.966l-6.063-7.59A25.919,25.919,0,0,0,627.834,605.322Zm18.1,15.954a7.7,7.7,0,0,0,2.919,1.906,2.9,2.9,0,0,0,.434.151,7.521,7.521,0,0,0,3.4.28,1.467,1.467,0,0,0,.228-.026,1.444,1.444,0,0,0,.224-.048,7.42,7.42,0,0,0,3.133-1.363,2.083,2.083,0,0,0,.365-.27,7.931,7.931,0,0,0,2.156-2.739,4.318,4.318,0,0,0,.167-.4,7.591,7.591,0,0,0,.562-3.57,2.835,2.835,0,0,0-.038-.435,2.4,2.4,0,0,0-.034-.27,7.843,7.843,0,0,0-1.3-3.221c-.086-.118-.161-.238-.256-.345a7.857,7.857,0,0,0-3.029-2.385c-.131-.055-.262-.111-.4-.155a7.663,7.663,0,0,0-3.894-.454,1.53,1.53,0,0,0-.218.025,1.29,1.29,0,0,0-.213.047,7.769,7.769,0,0,0-3.547,1.664,2.5,2.5,0,0,0-.329.285,7.683,7.683,0,0,0-2.109,3.228,3.258,3.258,0,0,0-.13.419,7.786,7.786,0,0,0-.206,3.456,2.063,2.063,0,0,0,.054.267,2.759,2.759,0,0,0,.1.425,7.527,7.527,0,0,0,1.661,3.195A4.443,4.443,0,0,0,645.935,621.276Zm-3.3-19.15a16.139,16.139,0,0,1,4.449-2.054l-1.458-9.588a25.792,25.792,0,0,0-9.211,4.226Zm8.306-2.686a16.223,16.223,0,0,1,4.872.524l3.525-9.016a25.771,25.771,0,0,0-10.077-1.059Zm9.227,30.284a16.312,16.312,0,0,1-3.962,1.737l1.458,9.591a25.652,25.652,0,0,0,8.74-3.9Zm-7.846,2.374a16.28,16.28,0,0,1-4.309-.377l-3.534,9.032a25.645,25.645,0,0,0,9.527.9Zm10.446-39.807-3.322,9.129a16.422,16.422,0,0,1,3.837,2.9l7.57-6.049A26.015,26.015,0,0,0,662.764,592.289Zm2.914,15.127a16.192,16.192,0,0,1,1.776,4.328l9.578-1.459a25.778,25.778,0,0,0-3.9-9.119Zm2.5,8.184-.207.029a15.96,15.96,0,0,1-.58,4.49l9.013,3.528a25.715,25.715,0,0,0,1.157-9.706Zm6.854,11.487-9.143-3.328a16.292,16.292,0,0,1-2.644,3.506l6.049,7.569A26.118,26.118,0,0,0,675.028,627.088ZM641,639.478l3.272-8.992.051-.107a16.313,16.313,0,0,1-3.639-2.476l-7.6,6.068A26.061,26.061,0,0,0,641,639.478Z" transform="translate(-607.537 -571.672)" fill="#a5a5a5"/>
          <path id="Path_1238" data-name="Path 1238" d="M613.846,628.618a44.086,44.086,0,1,0,36.376-50.649A44.1,44.1,0,0,0,613.846,628.618Z" transform="translate(-613.256 -577.383)" fill="#a5a5a5"/>
          <path id="Path_1239" data-name="Path 1239" d="M617.724,625.86a38.31,38.31,0,1,0,31.611-44.013A38.324,38.324,0,0,0,617.724,625.86Z" transform="translate(-611.434 -575.56)" fill="#d6d6d6"/>
          <path id="Path_1240" data-name="Path 1240" d="M637.32,611.925a9.12,9.12,0,1,0,7.526-10.476A9.123,9.123,0,0,0,637.32,611.925Z" transform="translate(-602.225 -566.351)" fill="#3f3f3f"/>
          <g id="Group_724" data-name="Group 724" transform="translate(26.202 25.754)">
            <ellipse id="Ellipse_159" data-name="Ellipse 159" cx="2.185" cy="2.185" rx="2.185" ry="2.185" transform="translate(16.309)" fill="#3f3f3f"/>
            <ellipse id="Ellipse_160" data-name="Ellipse 160" cx="2.185" cy="2.185" rx="2.185" ry="2.185" transform="translate(16.309 32.618)" fill="#3f3f3f"/>
            <ellipse id="Ellipse_161" data-name="Ellipse 161" cx="2.185" cy="2.185" rx="2.185" ry="2.185" transform="translate(0 16.309)" fill="#3f3f3f"/>
            <ellipse id="Ellipse_162" data-name="Ellipse 162" cx="2.185" cy="2.185" rx="2.185" ry="2.185" transform="translate(32.618 16.309)" fill="#3f3f3f"/>
            <ellipse id="Ellipse_163" data-name="Ellipse 163" cx="2.185" cy="2.185" rx="2.185" ry="2.185" transform="translate(27.841 4.777)" fill="#3f3f3f"/>
            <ellipse id="Ellipse_164" data-name="Ellipse 164" cx="2.185" cy="2.185" rx="2.185" ry="2.185" transform="translate(4.777 27.841)" fill="#3f3f3f"/>
            <ellipse id="Ellipse_165" data-name="Ellipse 165" cx="2.185" cy="2.185" rx="2.185" ry="2.185" transform="translate(4.777 4.777)" fill="#3f3f3f"/>
            <ellipse id="Ellipse_166" data-name="Ellipse 166" cx="2.185" cy="2.185" rx="2.185" ry="2.185" transform="translate(27.841 27.841)" fill="#3f3f3f"/>
          </g>
        </g>
        <path id="Path_1241" data-name="Path 1241" d="M659.553,676.132h11.808v-2.921H659.553Zm14.709,0h11.6v-2.921h-11.6Zm14.5,0h11.6v-2.921h-11.6Zm14.5,0h11.6v-2.921h-11.6Zm14.5,0h11.6v-2.921h-11.6Zm14.5,0h11.6v-2.921h-11.6Zm14.5,0h11.6v-2.921h-11.6Zm14.5,0h11.6v-2.921h-11.6Zm14.5,0h11.6v-2.921h-11.6Zm14.5,0h7.711c1.332,0,2.679-.051,4-.152l-.223-2.913c-1.246.095-2.517.143-3.775.143H790.3Zm-133.732-.1.177-2.915a48.822,48.822,0,0,1-11.065-1.962l-.838,2.8A51.824,51.824,0,0,0,656.564,676.036Zm148.406-.367a51.749,51.749,0,0,0,11.548-2.932l-1.04-2.73a48.867,48.867,0,0,1-10.9,2.767Zm-162.965-2.65,1-2.745a49.1,49.1,0,0,1-10.053-5.025l-1.6,2.448A52.009,52.009,0,0,0,642.005,673.019Zm177.274-1.427a52.221,52.221,0,0,0,10.238-6.087l-1.771-2.326a49.275,49.275,0,0,1-9.663,5.748ZM628.907,666l1.733-2.353A49.673,49.673,0,0,1,622.4,656l-2.216,1.9A52.508,52.508,0,0,0,628.907,666ZM831.84,663.63a52.705,52.705,0,0,0,8.114-8.712l-2.35-1.737a49.644,49.644,0,0,1-7.663,8.228Zm-213.534-8.053,2.321-1.772a49.344,49.344,0,0,1-5.76-9.657l-2.664,1.2A52.212,52.212,0,0,0,618.307,655.577Zm223.351-3.106a52.162,52.162,0,0,0,5.336-10.643l-2.745-1a49.143,49.143,0,0,1-5.036,10.044Zm-230.6-9.882,2.727-1.044A48.784,48.784,0,0,1,611,630.654l-2.9.39A51.72,51.72,0,0,0,611.057,642.59ZM847.936,639a52.037,52.037,0,0,0,2.1-11.724l-2.916-.183a49.055,49.055,0,0,1-1.978,11.063ZM607.791,628.08l2.913-.228c-.1-1.263-.149-2.556-.149-3.845a49.771,49.771,0,0,1,.555-7.39l-2.889-.437a52.66,52.66,0,0,0-.587,7.825C607.633,625.372,607.686,626.742,607.791,628.08ZM850.133,624.3V624a52.181,52.181,0,0,0-1.29-11.538l-2.848.647a49.364,49.364,0,0,1,1.217,10.9v.269Zm-238.524-10.45a48.687,48.687,0,0,1,3.569-10.656l-2.645-1.242a51.706,51.706,0,0,0-3.782,11.3Zm233.682-3.471,2.807-.811a51.956,51.956,0,0,0-4.6-10.989l-2.547,1.429A49.049,49.049,0,0,1,845.291,610.378Zm-228.846-9.7a49.522,49.522,0,0,1,6.437-9.214l-2.188-1.935a52.483,52.483,0,0,0-6.82,9.761ZM839.5,597.591l2.461-1.572a52.678,52.678,0,0,0-7.51-9.243l-2.044,2.087A49.722,49.722,0,0,1,839.5,597.591Zm-214.7-8.183a49.54,49.54,0,0,1,8.766-7.042l-1.559-2.47a52.5,52.5,0,0,0-9.284,7.458Zm205.536-2.457,1.922-2.2a52.364,52.364,0,0,0-9.8-6.765l-1.374,2.577A49.546,49.546,0,0,1,830.343,586.951ZM636,580.931a48.983,48.983,0,0,1,10.394-4.284l-.8-2.81a51.822,51.822,0,0,0-11.014,4.539Zm182.575-1.62,1.225-2.653a51.774,51.774,0,0,0-11.316-3.717L807.9,575.8A48.8,48.8,0,0,1,818.574,579.311ZM649.122,575.96a49.37,49.37,0,0,1,10.636-1.157h.562v-2.921h-.562a52.3,52.3,0,0,0-11.265,1.226Zm156-.643.421-2.891a52.616,52.616,0,0,0-7.539-.545h-4.248V574.8h4.248A49.746,49.746,0,0,1,805.125,575.318Zm-141.9-.514h11.6v-2.921h-11.6Zm14.5,0h11.6v-2.921h-11.6Zm14.5,0h11.6v-2.921h-11.6Zm14.5,0h11.6v-2.921h-11.6Zm14.5,0h11.6v-2.921h-11.6Zm14.505,0h11.6v-2.921h-11.6Zm14.5,0h11.6v-2.921h-11.6Zm14.5,0h11.6v-2.921h-11.6Zm14.5,0h11.6v-2.921h-11.6Z" transform="translate(-607.633 -571.882)" fill="#2d2d2d"/>
      </g>
      <rect id="Rectangle_542" data-name="Rectangle 542" width="357.379" height="9.61" rx="3.29" transform="translate(0 177.008)" fill="#a5a5a5" opacity="0.26" style="mix-blend-mode: multiply;isolation: isolate"/>
    </g>
  </g>
</svg>
